%
M48
M72
T01C0.01378
T02C0.03200
T03C0.03937
%
T01
X92850Y87900
X118150Y49400
X102750Y38400
X148400Y79650
X153900Y98900
X170400Y85700
X192950Y96700
X204500Y86250
X186900Y112650
X184150Y119250
X172600Y115950
X159950Y136300
X148400Y139600
X148400Y130250
X115950Y181400
X97800Y209450
X74150Y232550
X63700Y252350
X104400Y312850
X115950Y305150
X139600Y268300
X152800Y265550
X158850Y258400
X136300Y251800
X148400Y223750
X165450Y223200
X166550Y215500
X168200Y201750
X184700Y221550
X189100Y230350
X177000Y236400
X203400Y228700
X206700Y232000
X216050Y227050
X229800Y213300
X226500Y201200
X238600Y202300
X221550Y185250
X208350Y177000
X201750Y185250
X205050Y188550
X202300Y191300
X206700Y200100
X228150Y164900
X233650Y168200
X251800Y164900
X258400Y163250
X284800Y177000
X306250Y190200
X323850Y192400
X323850Y199000
X306250Y221000
X266100Y246850
X253450Y231450
X249600Y245750
X250700Y249600
X246300Y265000
X233100Y279300
X228700Y271600
X246300Y282600
X239700Y290300
X236400Y292500
X236400Y301300
X239700Y309000
X232000Y329900
X244100Y364000
X195700Y330450
X186350Y313400
X169850Y301300
X188000Y290300
X197900Y282600
X206150Y301300
X184700Y266100
X154450Y286450
X173700Y350250
X228700Y242450
X259500Y197350
X311200Y151700
X327700Y144000
X305700Y117600
X241350Y117600
X234750Y119800
X223750Y38950
X87350Y145650
X70300Y129700
X62600Y133000
X56000Y139600
X52700Y172600
X289750Y285900
T02
X271000Y286000
X261000Y286000
X261000Y266000
X271000Y266000
X271000Y246000
X261000Y246000
X261000Y226000
X271000Y226000
X271000Y206000
X261000Y206000
X261000Y181000
X251000Y181000
X231000Y181000
X211000Y181000
X211000Y206000
X221000Y206000
X221000Y226000
X211000Y226000
X211000Y246000
X221000Y246000
X221000Y266000
X211000Y266000
X211000Y286000
X221000Y286000
X221000Y306000
X211000Y306000
X211000Y326000
X221000Y326000
X221000Y346000
X211000Y346000
X211000Y366000
X221000Y366000
X261000Y366000
X271000Y366000
X271000Y346000
X261000Y346000
X261000Y326000
X271000Y326000
X271000Y306000
X261000Y306000
X311000Y306000
X311000Y326000
X311000Y346000
X311000Y366000
X311000Y286000
X311000Y266000
X311000Y246000
X311000Y226000
X311000Y206000
X311000Y181000
X291000Y181000
X281000Y181000
X281000Y156000
X271000Y156000
X261000Y156000
X251000Y156000
X241000Y156000
X221000Y156000
X211000Y156000
X201000Y156000
X191000Y156000
X181000Y156000
X171000Y156000
X161000Y156000
X141000Y156000
X131000Y156000
X121000Y156000
X111000Y156000
X101000Y156000
X91000Y156000
X81000Y156000
X71000Y181000
X71000Y206000
X71000Y226000
X71000Y246000
X71000Y266000
X71000Y286000
X71000Y306000
X71000Y326000
X71000Y346000
X71000Y366000
X43000Y351000
X29000Y351000
X29000Y306000
X43000Y306000
X43000Y261000
X29000Y261000
X111000Y266000
X121000Y266000
X121000Y246000
X111000Y246000
X111000Y226000
X121000Y226000
X121000Y206000
X111000Y206000
X111000Y181000
X121000Y181000
X161000Y181000
X171000Y181000
X171000Y206000
X161000Y206000
X161000Y226000
X171000Y226000
X171000Y246000
X161000Y246000
X161000Y266000
X171000Y266000
X171000Y286000
X161000Y286000
X161000Y306000
X171000Y306000
X171000Y326000
X161000Y326000
X161000Y346000
X171000Y346000
X171000Y366000
X161000Y366000
X121000Y366000
X111000Y366000
X111000Y346000
X121000Y346000
X121000Y326000
X111000Y326000
X111000Y306000
X121000Y306000
X121000Y286000
X111000Y286000
X111000Y126000
X101000Y126000
X91000Y126000
X81000Y126000
X81000Y106000
X91000Y106000
X101000Y106000
X111000Y106000
X121000Y106000
X131000Y106000
X141000Y106000
X141000Y126000
X131000Y126000
X121000Y126000
X161000Y126000
X171000Y126000
X181000Y126000
X191000Y126000
X201000Y126000
X211000Y126000
X221000Y126000
X221000Y106000
X211000Y106000
X201000Y106000
X191000Y106000
X181000Y106000
X171000Y106000
X161000Y106000
X161000Y76000
X171000Y76000
X181000Y76000
X191000Y76000
X201000Y76000
X211000Y76000
X221000Y76000
X241000Y76000
X251000Y76000
X261000Y76000
X271000Y76000
X281000Y76000
X291000Y76000
X301000Y76000
X301000Y106000
X291000Y106000
X281000Y106000
X271000Y106000
X261000Y106000
X251000Y106000
X241000Y106000
X241000Y126000
X251000Y126000
X261000Y126000
X271000Y126000
X281000Y126000
X291000Y126000
X301000Y126000
X301000Y156000
X291000Y156000
X141000Y76000
X131000Y76000
X121000Y76000
X111000Y76000
X101000Y76000
X91000Y76000
X81000Y76000
T03
X61000Y31000
X71000Y31000
X81000Y31000
X106000Y31000
X116000Y31000
X141000Y31000
X151000Y31000
X176000Y31000
X186000Y31000
X211000Y31000
X221000Y31000
X231000Y31000
X251000Y31000
X261000Y31000
X271000Y31000
X291000Y31000
X301000Y31000
X311000Y31000
M30
