G75*
%MOIN*%
%OFA0B0*%
%FSLAX25Y25*%
%IPPOS*%
%LPD*%
%AMOC8*
5,1,8,0,0,1.08239X$1,22.5*
%
%ADD10C,0.00000*%
%ADD11OC8,0.06300*%
%ADD12C,0.06300*%
%ADD13OC8,0.05200*%
%ADD14C,0.05200*%
%ADD15C,0.05937*%
%ADD16C,0.01600*%
%ADD17C,0.02978*%
%ADD18C,0.02400*%
%ADD19C,0.02000*%
D10*
X0001000Y0001000D02*
X0001000Y0390961D01*
X0344701Y0390961D01*
X0344701Y0001000D01*
X0001000Y0001000D01*
D11*
X0043000Y0261000D03*
X0043000Y0306000D03*
X0043000Y0351000D03*
D12*
X0029000Y0351000D03*
X0029000Y0306000D03*
X0029000Y0261000D03*
D13*
X0071000Y0266000D03*
X0071000Y0246000D03*
X0071000Y0226000D03*
X0071000Y0206000D03*
X0071000Y0181000D03*
X0111000Y0181000D03*
X0121000Y0181000D03*
X0121000Y0206000D03*
X0111000Y0206000D03*
X0111000Y0226000D03*
X0121000Y0226000D03*
X0121000Y0246000D03*
X0111000Y0246000D03*
X0111000Y0266000D03*
X0121000Y0266000D03*
X0121000Y0286000D03*
X0111000Y0286000D03*
X0111000Y0306000D03*
X0121000Y0306000D03*
X0121000Y0326000D03*
X0111000Y0326000D03*
X0111000Y0346000D03*
X0121000Y0346000D03*
X0121000Y0366000D03*
X0111000Y0366000D03*
X0071000Y0366000D03*
X0071000Y0346000D03*
X0071000Y0326000D03*
X0071000Y0306000D03*
X0071000Y0286000D03*
X0161000Y0286000D03*
X0171000Y0286000D03*
X0171000Y0266000D03*
X0161000Y0266000D03*
X0161000Y0246000D03*
X0171000Y0246000D03*
X0171000Y0226000D03*
X0161000Y0226000D03*
X0161000Y0206000D03*
X0171000Y0206000D03*
X0171000Y0181000D03*
X0161000Y0181000D03*
X0211000Y0181000D03*
X0231000Y0181000D03*
X0251000Y0181000D03*
X0261000Y0181000D03*
X0281000Y0181000D03*
X0291000Y0181000D03*
X0311000Y0181000D03*
X0311000Y0206000D03*
X0311000Y0226000D03*
X0311000Y0246000D03*
X0311000Y0266000D03*
X0311000Y0286000D03*
X0311000Y0306000D03*
X0311000Y0326000D03*
X0311000Y0346000D03*
X0311000Y0366000D03*
X0271000Y0366000D03*
X0261000Y0366000D03*
X0261000Y0346000D03*
X0271000Y0346000D03*
X0271000Y0326000D03*
X0261000Y0326000D03*
X0261000Y0306000D03*
X0271000Y0306000D03*
X0271000Y0286000D03*
X0261000Y0286000D03*
X0261000Y0266000D03*
X0271000Y0266000D03*
X0271000Y0246000D03*
X0261000Y0246000D03*
X0261000Y0226000D03*
X0271000Y0226000D03*
X0271000Y0206000D03*
X0261000Y0206000D03*
X0221000Y0206000D03*
X0211000Y0206000D03*
X0211000Y0226000D03*
X0221000Y0226000D03*
X0221000Y0246000D03*
X0211000Y0246000D03*
X0211000Y0266000D03*
X0221000Y0266000D03*
X0221000Y0286000D03*
X0211000Y0286000D03*
X0211000Y0306000D03*
X0221000Y0306000D03*
X0221000Y0326000D03*
X0211000Y0326000D03*
X0211000Y0346000D03*
X0221000Y0346000D03*
X0221000Y0366000D03*
X0211000Y0366000D03*
X0171000Y0366000D03*
X0161000Y0366000D03*
X0161000Y0346000D03*
X0171000Y0346000D03*
X0171000Y0326000D03*
X0161000Y0326000D03*
X0161000Y0306000D03*
X0171000Y0306000D03*
D14*
X0171000Y0158600D02*
X0171000Y0153400D01*
X0161000Y0153400D02*
X0161000Y0158600D01*
X0141000Y0158600D02*
X0141000Y0153400D01*
X0131000Y0153400D02*
X0131000Y0158600D01*
X0121000Y0158600D02*
X0121000Y0153400D01*
X0111000Y0153400D02*
X0111000Y0158600D01*
X0101000Y0158600D02*
X0101000Y0153400D01*
X0091000Y0153400D02*
X0091000Y0158600D01*
X0081000Y0158600D02*
X0081000Y0153400D01*
X0081000Y0128600D02*
X0081000Y0123400D01*
X0091000Y0123400D02*
X0091000Y0128600D01*
X0101000Y0128600D02*
X0101000Y0123400D01*
X0111000Y0123400D02*
X0111000Y0128600D01*
X0121000Y0128600D02*
X0121000Y0123400D01*
X0131000Y0123400D02*
X0131000Y0128600D01*
X0141000Y0128600D02*
X0141000Y0123400D01*
X0141000Y0108600D02*
X0141000Y0103400D01*
X0131000Y0103400D02*
X0131000Y0108600D01*
X0121000Y0108600D02*
X0121000Y0103400D01*
X0111000Y0103400D02*
X0111000Y0108600D01*
X0101000Y0108600D02*
X0101000Y0103400D01*
X0091000Y0103400D02*
X0091000Y0108600D01*
X0081000Y0108600D02*
X0081000Y0103400D01*
X0081000Y0078600D02*
X0081000Y0073400D01*
X0091000Y0073400D02*
X0091000Y0078600D01*
X0101000Y0078600D02*
X0101000Y0073400D01*
X0111000Y0073400D02*
X0111000Y0078600D01*
X0121000Y0078600D02*
X0121000Y0073400D01*
X0131000Y0073400D02*
X0131000Y0078600D01*
X0141000Y0078600D02*
X0141000Y0073400D01*
X0161000Y0073400D02*
X0161000Y0078600D01*
X0171000Y0078600D02*
X0171000Y0073400D01*
X0181000Y0073400D02*
X0181000Y0078600D01*
X0191000Y0078600D02*
X0191000Y0073400D01*
X0201000Y0073400D02*
X0201000Y0078600D01*
X0211000Y0078600D02*
X0211000Y0073400D01*
X0221000Y0073400D02*
X0221000Y0078600D01*
X0241000Y0078600D02*
X0241000Y0073400D01*
X0251000Y0073400D02*
X0251000Y0078600D01*
X0261000Y0078600D02*
X0261000Y0073400D01*
X0271000Y0073400D02*
X0271000Y0078600D01*
X0281000Y0078600D02*
X0281000Y0073400D01*
X0291000Y0073400D02*
X0291000Y0078600D01*
X0301000Y0078600D02*
X0301000Y0073400D01*
X0301000Y0103400D02*
X0301000Y0108600D01*
X0291000Y0108600D02*
X0291000Y0103400D01*
X0281000Y0103400D02*
X0281000Y0108600D01*
X0271000Y0108600D02*
X0271000Y0103400D01*
X0261000Y0103400D02*
X0261000Y0108600D01*
X0251000Y0108600D02*
X0251000Y0103400D01*
X0241000Y0103400D02*
X0241000Y0108600D01*
X0241000Y0123400D02*
X0241000Y0128600D01*
X0251000Y0128600D02*
X0251000Y0123400D01*
X0261000Y0123400D02*
X0261000Y0128600D01*
X0271000Y0128600D02*
X0271000Y0123400D01*
X0281000Y0123400D02*
X0281000Y0128600D01*
X0291000Y0128600D02*
X0291000Y0123400D01*
X0301000Y0123400D02*
X0301000Y0128600D01*
X0301000Y0153400D02*
X0301000Y0158600D01*
X0291000Y0158600D02*
X0291000Y0153400D01*
X0281000Y0153400D02*
X0281000Y0158600D01*
X0271000Y0158600D02*
X0271000Y0153400D01*
X0261000Y0153400D02*
X0261000Y0158600D01*
X0251000Y0158600D02*
X0251000Y0153400D01*
X0241000Y0153400D02*
X0241000Y0158600D01*
X0221000Y0158600D02*
X0221000Y0153400D01*
X0211000Y0153400D02*
X0211000Y0158600D01*
X0201000Y0158600D02*
X0201000Y0153400D01*
X0191000Y0153400D02*
X0191000Y0158600D01*
X0181000Y0158600D02*
X0181000Y0153400D01*
X0181000Y0128600D02*
X0181000Y0123400D01*
X0171000Y0123400D02*
X0171000Y0128600D01*
X0161000Y0128600D02*
X0161000Y0123400D01*
X0161000Y0108600D02*
X0161000Y0103400D01*
X0171000Y0103400D02*
X0171000Y0108600D01*
X0181000Y0108600D02*
X0181000Y0103400D01*
X0191000Y0103400D02*
X0191000Y0108600D01*
X0201000Y0108600D02*
X0201000Y0103400D01*
X0211000Y0103400D02*
X0211000Y0108600D01*
X0221000Y0108600D02*
X0221000Y0103400D01*
X0221000Y0123400D02*
X0221000Y0128600D01*
X0211000Y0128600D02*
X0211000Y0123400D01*
X0201000Y0123400D02*
X0201000Y0128600D01*
X0191000Y0128600D02*
X0191000Y0123400D01*
D15*
X0186000Y0033969D02*
X0186000Y0028031D01*
X0176000Y0028031D02*
X0176000Y0033969D01*
X0151000Y0033969D02*
X0151000Y0028031D01*
X0141000Y0028031D02*
X0141000Y0033969D01*
X0116000Y0033969D02*
X0116000Y0028031D01*
X0106000Y0028031D02*
X0106000Y0033969D01*
X0081000Y0033969D02*
X0081000Y0028031D01*
X0071000Y0028031D02*
X0071000Y0033969D01*
X0061000Y0033969D02*
X0061000Y0028031D01*
X0211000Y0028031D02*
X0211000Y0033969D01*
X0221000Y0033969D02*
X0221000Y0028031D01*
X0231000Y0028031D02*
X0231000Y0033969D01*
X0251000Y0033969D02*
X0251000Y0028031D01*
X0261000Y0028031D02*
X0261000Y0033969D01*
X0271000Y0033969D02*
X0271000Y0028031D01*
X0291000Y0028031D02*
X0291000Y0033969D01*
X0301000Y0033969D02*
X0301000Y0028031D01*
X0311000Y0028031D02*
X0311000Y0033969D01*
D16*
X0315600Y0026300D02*
X0315600Y0147300D01*
X0311200Y0151700D01*
X0317800Y0149500D02*
X0291400Y0175900D01*
X0291400Y0180850D01*
X0291000Y0181000D01*
X0290300Y0181400D01*
X0290300Y0195700D01*
X0273800Y0212200D01*
X0268300Y0212200D01*
X0250150Y0230350D01*
X0250150Y0232550D01*
X0252350Y0234750D01*
X0258400Y0234750D01*
X0269400Y0245750D01*
X0270500Y0245750D01*
X0271000Y0246000D01*
X0266100Y0246850D02*
X0266100Y0251800D01*
X0317250Y0302950D01*
X0317250Y0325500D01*
X0296900Y0345850D01*
X0271050Y0345850D01*
X0271000Y0346000D01*
X0260600Y0351350D02*
X0239700Y0330450D01*
X0239700Y0309000D01*
X0236400Y0301300D02*
X0260600Y0325500D01*
X0261000Y0326000D01*
X0244100Y0346400D02*
X0227600Y0329900D01*
X0227600Y0323300D01*
X0214400Y0310100D01*
X0208900Y0310100D01*
X0202850Y0304050D01*
X0202850Y0284250D01*
X0203400Y0283700D01*
X0203400Y0228700D01*
X0206700Y0227600D02*
X0206700Y0200100D01*
X0202300Y0191300D02*
X0216600Y0205600D01*
X0216600Y0215500D01*
X0232000Y0230900D01*
X0232000Y0276000D01*
X0227600Y0280400D01*
X0227600Y0293600D01*
X0216600Y0304600D01*
X0216600Y0309000D01*
X0232000Y0324400D01*
X0232000Y0329900D01*
X0225400Y0324400D02*
X0225400Y0339800D01*
X0223200Y0342000D01*
X0240800Y0359600D01*
X0240800Y0365100D01*
X0245750Y0370050D01*
X0287000Y0370050D01*
X0310650Y0346400D01*
X0311000Y0346000D01*
X0311000Y0326000D02*
X0311200Y0325500D01*
X0315050Y0321650D01*
X0315050Y0304050D01*
X0272700Y0261700D01*
X0270500Y0261700D01*
X0258400Y0249600D01*
X0250700Y0249600D01*
X0249600Y0245750D02*
X0260600Y0245750D01*
X0261000Y0246000D01*
X0253450Y0231450D02*
X0296350Y0231450D01*
X0296900Y0230900D01*
X0296900Y0195150D01*
X0310650Y0181400D01*
X0311000Y0181000D01*
X0306250Y0190200D02*
X0306250Y0221000D01*
X0296350Y0231450D02*
X0310650Y0245750D01*
X0311000Y0246000D01*
X0311200Y0251800D02*
X0320550Y0242450D01*
X0320550Y0153350D01*
X0322200Y0151700D01*
X0322200Y0023000D01*
X0312850Y0013650D01*
X0174250Y0013650D01*
X0155550Y0032350D01*
X0155550Y0060950D01*
X0141250Y0075250D01*
X0141000Y0076000D01*
X0140700Y0076350D01*
X0139050Y0076350D01*
X0127500Y0087900D01*
X0117050Y0087900D01*
X0101100Y0103850D01*
X0101100Y0105500D01*
X0101000Y0106000D01*
X0106600Y0101650D02*
X0118150Y0090100D01*
X0140150Y0090100D01*
X0147300Y0082950D01*
X0164350Y0082950D01*
X0170950Y0076350D01*
X0171000Y0076000D01*
X0170950Y0075250D01*
X0167100Y0071400D01*
X0167100Y0024100D01*
X0175350Y0015850D01*
X0311750Y0015850D01*
X0320000Y0024100D01*
X0320000Y0150600D01*
X0318350Y0152250D01*
X0318350Y0159400D01*
X0294700Y0183050D01*
X0294700Y0194600D01*
X0263350Y0225950D01*
X0261150Y0225950D01*
X0261000Y0226000D01*
X0246300Y0230900D02*
X0267200Y0210000D01*
X0272700Y0210000D01*
X0275450Y0207250D01*
X0275450Y0204500D01*
X0269400Y0198450D01*
X0285350Y0182500D01*
X0285350Y0180850D01*
X0288100Y0178100D01*
X0288100Y0175900D01*
X0295250Y0168750D01*
X0295250Y0121450D01*
X0291400Y0117600D01*
X0291400Y0106050D01*
X0291000Y0106000D01*
X0281000Y0106000D02*
X0280950Y0106050D01*
X0279300Y0106050D01*
X0272700Y0112650D01*
X0231450Y0112650D01*
X0231450Y0166000D01*
X0216600Y0180850D01*
X0211100Y0180850D01*
X0211000Y0181000D01*
X0208350Y0177000D02*
X0205600Y0177000D01*
X0196800Y0185800D01*
X0196800Y0281500D01*
X0197900Y0282600D01*
X0206700Y0282050D02*
X0210550Y0285900D01*
X0211000Y0286000D01*
X0206700Y0282050D02*
X0206700Y0232000D01*
X0210550Y0231450D02*
X0206700Y0227600D01*
X0210550Y0231450D02*
X0210550Y0245750D01*
X0211000Y0246000D01*
X0228700Y0242450D02*
X0228700Y0239700D01*
X0216050Y0227050D01*
X0229800Y0225400D02*
X0229800Y0213300D01*
X0236400Y0215500D02*
X0209450Y0188550D01*
X0205050Y0188550D01*
X0201750Y0185250D02*
X0221550Y0185250D01*
X0226500Y0179750D02*
X0226500Y0201200D01*
X0231450Y0199550D02*
X0231450Y0181400D01*
X0231000Y0181000D01*
X0226500Y0179750D02*
X0236950Y0169300D01*
X0236950Y0151700D01*
X0245200Y0143450D01*
X0245200Y0121450D01*
X0241350Y0117600D01*
X0234750Y0119800D02*
X0233650Y0120900D01*
X0233650Y0168200D01*
X0228150Y0164900D02*
X0228150Y0154450D01*
X0222650Y0148950D01*
X0219350Y0148950D01*
X0212750Y0155550D01*
X0211100Y0155550D01*
X0211000Y0156000D01*
X0205050Y0153350D02*
X0210550Y0147850D01*
X0210550Y0126400D01*
X0211000Y0126000D01*
X0206700Y0128600D02*
X0206700Y0109900D01*
X0210550Y0106050D01*
X0211000Y0106000D01*
X0218800Y0105500D02*
X0210000Y0096700D01*
X0192950Y0096700D01*
X0186900Y0098350D02*
X0186900Y0112650D01*
X0189650Y0115950D02*
X0172600Y0115950D01*
X0173150Y0112650D02*
X0166000Y0112650D01*
X0148400Y0130250D01*
X0142900Y0136300D02*
X0159950Y0136300D01*
X0163250Y0142350D02*
X0163250Y0128600D01*
X0161050Y0126400D01*
X0161000Y0126000D01*
X0166550Y0122000D02*
X0169300Y0119250D01*
X0184150Y0119250D01*
X0189650Y0115950D02*
X0199550Y0125850D01*
X0200650Y0125850D01*
X0201000Y0126000D01*
X0206700Y0128600D02*
X0196800Y0138500D01*
X0196800Y0158850D01*
X0190200Y0165450D01*
X0190200Y0227600D01*
X0188000Y0229800D01*
X0188550Y0230350D01*
X0189100Y0230350D01*
X0188000Y0229800D02*
X0178100Y0239700D01*
X0177550Y0239700D01*
X0171500Y0245750D01*
X0171000Y0246000D01*
X0177000Y0236400D02*
X0188000Y0225400D01*
X0188000Y0220450D01*
X0177000Y0209450D01*
X0177000Y0153350D01*
X0171500Y0147850D01*
X0171500Y0126400D01*
X0171000Y0126000D01*
X0166550Y0122000D02*
X0166550Y0180850D01*
X0161050Y0180850D01*
X0161000Y0181000D01*
X0166550Y0180850D02*
X0170950Y0180850D01*
X0171000Y0181000D01*
X0160500Y0175350D02*
X0145100Y0190750D01*
X0145100Y0276000D01*
X0115950Y0305150D01*
X0111000Y0306000D02*
X0111000Y0301850D01*
X0142900Y0269950D01*
X0142900Y0162700D01*
X0163250Y0142350D01*
X0161000Y0156000D02*
X0160500Y0156100D01*
X0160500Y0175350D01*
X0159400Y0201750D02*
X0168200Y0201750D01*
X0161000Y0206000D02*
X0160500Y0206150D01*
X0160500Y0216050D01*
X0153350Y0223200D01*
X0153350Y0252900D01*
X0158850Y0258400D01*
X0160500Y0265550D02*
X0152800Y0265550D01*
X0151150Y0267200D01*
X0151150Y0287550D01*
X0156100Y0292500D01*
X0165450Y0292500D01*
X0186350Y0313400D01*
X0192400Y0307350D02*
X0210550Y0325500D01*
X0211000Y0326000D01*
X0211650Y0326050D01*
X0221000Y0326050D01*
X0221000Y0326000D01*
X0222650Y0321650D02*
X0217150Y0321650D01*
X0194600Y0299100D01*
X0194600Y0184700D01*
X0221000Y0158300D01*
X0221000Y0156000D01*
X0205050Y0153350D02*
X0205050Y0170950D01*
X0192400Y0183600D01*
X0192400Y0307350D01*
X0206150Y0301300D02*
X0221000Y0286450D01*
X0221000Y0286000D01*
X0225400Y0291400D02*
X0211100Y0305700D01*
X0211000Y0306000D01*
X0221000Y0306000D02*
X0221000Y0305700D01*
X0227600Y0305700D01*
X0235300Y0298000D01*
X0243000Y0298000D01*
X0243000Y0230900D01*
X0245200Y0228700D01*
X0245200Y0202850D01*
X0260600Y0187450D01*
X0260600Y0181400D01*
X0261000Y0181000D01*
X0275450Y0166550D01*
X0275450Y0152800D01*
X0290850Y0137400D01*
X0290850Y0126400D01*
X0291000Y0126000D01*
X0305700Y0117600D02*
X0305700Y0151150D01*
X0301300Y0155550D01*
X0301000Y0156000D01*
X0317800Y0149500D02*
X0317800Y0025200D01*
X0310650Y0018050D01*
X0176450Y0018050D01*
X0169300Y0025200D01*
X0169300Y0036750D01*
X0173150Y0040600D01*
X0174250Y0040600D01*
X0209450Y0075800D01*
X0210550Y0075800D01*
X0211000Y0076000D01*
X0219350Y0075800D02*
X0184150Y0040600D01*
X0177550Y0040600D01*
X0175350Y0038400D01*
X0174250Y0038400D01*
X0171500Y0035650D01*
X0171500Y0026300D01*
X0177550Y0020250D01*
X0309550Y0020250D01*
X0315600Y0026300D01*
X0324400Y0021900D02*
X0324400Y0191850D01*
X0323850Y0192400D01*
X0327700Y0195150D02*
X0323850Y0199000D01*
X0327700Y0195150D02*
X0327700Y0144000D01*
X0284800Y0177000D02*
X0279300Y0177000D01*
X0259500Y0196800D01*
X0259500Y0197350D01*
X0261150Y0205600D02*
X0261000Y0206000D01*
X0261150Y0205600D02*
X0262250Y0205600D01*
X0269400Y0198450D01*
X0245200Y0177550D02*
X0238600Y0184150D01*
X0238600Y0202300D01*
X0239700Y0207800D02*
X0231450Y0199550D01*
X0239700Y0207800D02*
X0239700Y0290300D01*
X0236400Y0292500D02*
X0236400Y0215500D01*
X0229800Y0225400D02*
X0234200Y0229800D01*
X0234200Y0278200D01*
X0233100Y0279300D01*
X0228700Y0276000D02*
X0225400Y0279300D01*
X0225400Y0291400D01*
X0228700Y0276000D02*
X0228700Y0271600D01*
X0246300Y0265000D02*
X0246300Y0230900D01*
X0247400Y0281500D02*
X0246300Y0282600D01*
X0247400Y0281500D02*
X0272700Y0281500D01*
X0277100Y0285900D01*
X0289750Y0285900D01*
X0302950Y0298000D02*
X0310650Y0305700D01*
X0311000Y0306000D01*
X0302950Y0298000D02*
X0243000Y0298000D01*
X0222650Y0321650D02*
X0225400Y0324400D01*
X0223200Y0342000D02*
X0208900Y0342000D01*
X0205050Y0345850D01*
X0171500Y0345850D01*
X0171000Y0346000D01*
X0173700Y0350250D02*
X0151150Y0350250D01*
X0122550Y0321650D01*
X0104400Y0321650D01*
X0104400Y0312850D01*
X0105500Y0309550D02*
X0103300Y0309550D01*
X0101100Y0311750D01*
X0101100Y0329350D01*
X0115400Y0343650D01*
X0115400Y0347500D01*
X0112650Y0350250D01*
X0089550Y0350250D01*
X0067000Y0327700D01*
X0067000Y0244100D01*
X0085150Y0225950D01*
X0085150Y0153350D01*
X0090650Y0147850D01*
X0090650Y0126400D01*
X0091000Y0126000D01*
X0086800Y0123100D02*
X0086800Y0145100D01*
X0087350Y0145650D01*
X0080750Y0147850D02*
X0056000Y0172600D01*
X0056000Y0241350D01*
X0034000Y0263350D01*
X0034000Y0345850D01*
X0029050Y0350800D01*
X0029000Y0351000D01*
X0031250Y0349700D01*
X0053800Y0372250D01*
X0288100Y0372250D01*
X0294150Y0366200D01*
X0310650Y0366200D01*
X0311000Y0366000D01*
X0261000Y0366000D02*
X0260600Y0365650D01*
X0260600Y0351350D01*
X0244100Y0346400D02*
X0244100Y0364000D01*
X0221000Y0365650D02*
X0221000Y0366000D01*
X0221000Y0365650D02*
X0216600Y0365650D01*
X0206700Y0355750D01*
X0047750Y0355750D01*
X0043000Y0351000D01*
X0038400Y0349150D02*
X0038400Y0353000D01*
X0051050Y0365650D01*
X0070300Y0365650D01*
X0071000Y0366000D01*
X0071400Y0365650D01*
X0105500Y0365650D01*
X0109350Y0361800D01*
X0156650Y0361800D01*
X0160500Y0365650D01*
X0161000Y0366000D01*
X0158850Y0370050D02*
X0206700Y0370050D01*
X0210550Y0366200D01*
X0211000Y0366000D01*
X0213850Y0353550D02*
X0221000Y0346400D01*
X0221000Y0346000D01*
X0213850Y0353550D02*
X0142350Y0353550D01*
X0114850Y0326050D01*
X0111000Y0326050D01*
X0111000Y0326000D01*
X0104400Y0329350D02*
X0104400Y0321650D01*
X0104400Y0329350D02*
X0120900Y0345850D01*
X0121000Y0346000D01*
X0121000Y0366000D02*
X0121450Y0366200D01*
X0155000Y0366200D01*
X0158850Y0370050D01*
X0161000Y0346000D02*
X0160500Y0345850D01*
X0134100Y0319450D01*
X0115400Y0319450D01*
X0105500Y0309550D01*
X0106600Y0307350D02*
X0106600Y0296350D01*
X0116500Y0286450D01*
X0116500Y0276550D01*
X0125300Y0267750D01*
X0125300Y0263900D01*
X0117050Y0255650D01*
X0111000Y0261700D01*
X0111000Y0266000D01*
X0117050Y0255650D02*
X0125300Y0247400D01*
X0125300Y0224300D01*
X0113750Y0212750D01*
X0096700Y0212750D01*
X0094500Y0210550D01*
X0094500Y0182500D01*
X0116500Y0160500D01*
X0116500Y0122000D01*
X0122550Y0115950D01*
X0133550Y0115950D01*
X0140700Y0108800D01*
X0140700Y0106050D01*
X0141000Y0106000D01*
X0153900Y0098900D02*
X0155000Y0098900D01*
X0162150Y0091750D01*
X0172600Y0091750D01*
X0180850Y0083500D01*
X0180850Y0076350D01*
X0181000Y0076000D01*
X0192400Y0086250D02*
X0195700Y0086250D01*
X0199000Y0082950D01*
X0225400Y0082950D01*
X0239150Y0069200D01*
X0243000Y0069200D01*
X0246850Y0073050D01*
X0246850Y0080750D01*
X0267200Y0101100D01*
X0262800Y0105500D01*
X0261150Y0105500D01*
X0261000Y0106000D01*
X0267200Y0101100D02*
X0282600Y0085700D01*
X0291400Y0085700D01*
X0300750Y0076350D01*
X0301000Y0076000D01*
X0281000Y0076000D02*
X0280950Y0075800D01*
X0279300Y0075800D01*
X0245750Y0042250D01*
X0197350Y0042250D01*
X0186350Y0031250D01*
X0186000Y0031000D01*
X0185250Y0038400D02*
X0183600Y0038400D01*
X0176450Y0031250D01*
X0176000Y0031000D01*
X0185250Y0038400D02*
X0191300Y0044450D01*
X0228150Y0044450D01*
X0259500Y0075800D01*
X0260600Y0075800D01*
X0261000Y0076000D01*
X0241000Y0076000D02*
X0240800Y0076350D01*
X0231450Y0085700D01*
X0231450Y0112650D01*
X0221000Y0106000D02*
X0221000Y0105500D01*
X0218800Y0105500D01*
X0204500Y0086250D02*
X0199000Y0086250D01*
X0186900Y0098350D01*
X0177000Y0101650D02*
X0192400Y0086250D01*
X0177000Y0101650D02*
X0177000Y0108800D01*
X0173150Y0112650D01*
X0148400Y0139600D02*
X0136850Y0151150D01*
X0136850Y0158850D01*
X0133000Y0162700D01*
X0130250Y0162700D01*
X0112100Y0180850D01*
X0111000Y0180850D01*
X0111000Y0181000D01*
X0115950Y0181400D02*
X0115950Y0195150D01*
X0139600Y0218800D01*
X0139600Y0268300D01*
X0136300Y0251800D02*
X0136300Y0232000D01*
X0121450Y0217150D01*
X0121450Y0206150D01*
X0121000Y0206000D01*
X0106050Y0214950D02*
X0117050Y0225950D01*
X0120900Y0225950D01*
X0121000Y0226000D01*
X0106050Y0214950D02*
X0095600Y0214950D01*
X0092300Y0211650D01*
X0092300Y0181400D01*
X0106600Y0167100D01*
X0106600Y0101650D01*
X0096150Y0086800D02*
X0096150Y0174250D01*
X0090100Y0180300D01*
X0090100Y0224850D01*
X0111000Y0245750D01*
X0111000Y0246000D01*
X0111550Y0245750D01*
X0120900Y0245750D01*
X0121000Y0246000D01*
X0148400Y0223750D02*
X0148400Y0212750D01*
X0159400Y0201750D01*
X0166550Y0215500D02*
X0166550Y0217700D01*
X0161050Y0223200D01*
X0161050Y0225950D01*
X0161000Y0226000D01*
X0165450Y0223200D02*
X0167650Y0223200D01*
X0169300Y0221550D01*
X0184700Y0221550D01*
X0184700Y0266100D02*
X0165450Y0285350D01*
X0165450Y0287550D01*
X0162700Y0290300D01*
X0158300Y0290300D01*
X0154450Y0286450D01*
X0171000Y0286000D02*
X0171500Y0286450D01*
X0175350Y0290300D01*
X0188000Y0290300D01*
X0169850Y0301300D02*
X0131900Y0301300D01*
X0123100Y0310100D01*
X0109350Y0310100D01*
X0106600Y0307350D01*
X0071000Y0346000D02*
X0063700Y0338700D01*
X0063700Y0252350D01*
X0047750Y0260050D02*
X0074150Y0233650D01*
X0074150Y0232550D01*
X0070850Y0233100D02*
X0043350Y0260600D01*
X0043000Y0261000D01*
X0047750Y0260050D02*
X0047750Y0339800D01*
X0038400Y0349150D01*
X0029000Y0261000D02*
X0029050Y0260600D01*
X0029050Y0175350D01*
X0073600Y0130800D01*
X0073600Y0091750D01*
X0086800Y0078550D01*
X0086800Y0071400D01*
X0108800Y0049400D01*
X0118150Y0049400D01*
X0122000Y0040600D02*
X0151150Y0011450D01*
X0313950Y0011450D01*
X0324400Y0021900D01*
X0261000Y0126000D02*
X0260600Y0126400D01*
X0260600Y0137950D01*
X0245200Y0153350D01*
X0245200Y0177550D01*
X0251800Y0164900D02*
X0256750Y0164900D01*
X0258400Y0163250D01*
X0221000Y0076000D02*
X0221000Y0075800D01*
X0219350Y0075800D01*
X0161000Y0076000D02*
X0160500Y0076350D01*
X0151700Y0076350D01*
X0148400Y0079650D01*
X0121450Y0075800D02*
X0121450Y0060400D01*
X0150600Y0031250D01*
X0151000Y0031000D01*
X0141000Y0031000D02*
X0140700Y0031250D01*
X0101100Y0070850D01*
X0101100Y0075800D01*
X0101000Y0076000D01*
X0091200Y0076350D02*
X0091000Y0076000D01*
X0091200Y0076350D02*
X0091200Y0081850D01*
X0096150Y0086800D01*
X0092850Y0087900D02*
X0090650Y0087900D01*
X0075800Y0102750D01*
X0075800Y0149500D01*
X0052700Y0172600D01*
X0080750Y0147850D02*
X0080750Y0126400D01*
X0081000Y0126000D01*
X0086800Y0123100D02*
X0081300Y0117600D01*
X0081300Y0106050D01*
X0081000Y0106000D01*
X0070300Y0129700D02*
X0070300Y0078000D01*
X0107700Y0040600D01*
X0122000Y0040600D01*
X0115950Y0031250D02*
X0116000Y0031000D01*
X0115950Y0031250D02*
X0108800Y0038400D01*
X0102750Y0038400D01*
X0121000Y0076000D02*
X0121450Y0075800D01*
X0131000Y0126000D02*
X0131350Y0126400D01*
X0133000Y0126400D01*
X0142900Y0136300D01*
X0131000Y0156000D02*
X0130800Y0156100D01*
X0129700Y0156100D01*
X0097800Y0188000D01*
X0097800Y0209450D01*
X0071000Y0226000D02*
X0070850Y0226500D01*
X0070850Y0233100D01*
X0056000Y0139600D02*
X0062600Y0133000D01*
X0160500Y0265550D02*
X0161000Y0266000D01*
X0171000Y0306000D02*
X0171500Y0306250D01*
X0195700Y0330450D01*
X0311000Y0266000D02*
X0311200Y0265550D01*
X0311200Y0251800D01*
D17*
X0306250Y0221000D03*
X0323850Y0199000D03*
X0323850Y0192400D03*
X0306250Y0190200D03*
X0284800Y0177000D03*
X0259500Y0197350D03*
X0238600Y0202300D03*
X0229800Y0213300D03*
X0226500Y0201200D03*
X0221550Y0185250D03*
X0208350Y0177000D03*
X0201750Y0185250D03*
X0205050Y0188550D03*
X0202300Y0191300D03*
X0206700Y0200100D03*
X0216050Y0227050D03*
X0206700Y0232000D03*
X0203400Y0228700D03*
X0189100Y0230350D03*
X0184700Y0221550D03*
X0177000Y0236400D03*
X0165450Y0223200D03*
X0166550Y0215500D03*
X0168200Y0201750D03*
X0148400Y0223750D03*
X0136300Y0251800D03*
X0139600Y0268300D03*
X0152800Y0265550D03*
X0158850Y0258400D03*
X0184700Y0266100D03*
X0197900Y0282600D03*
X0188000Y0290300D03*
X0169850Y0301300D03*
X0186350Y0313400D03*
X0195700Y0330450D03*
X0173700Y0350250D03*
X0206150Y0301300D03*
X0228700Y0271600D03*
X0233100Y0279300D03*
X0239700Y0290300D03*
X0236400Y0292500D03*
X0236400Y0301300D03*
X0239700Y0309000D03*
X0232000Y0329900D03*
X0244100Y0364000D03*
X0246300Y0282600D03*
X0246300Y0265000D03*
X0250700Y0249600D03*
X0249600Y0245750D03*
X0253450Y0231450D03*
X0266100Y0246850D03*
X0228700Y0242450D03*
X0289750Y0285900D03*
X0251800Y0164900D03*
X0258400Y0163250D03*
X0233650Y0168200D03*
X0228150Y0164900D03*
X0234750Y0119800D03*
X0241350Y0117600D03*
X0204500Y0086250D03*
X0192950Y0096700D03*
X0186900Y0112650D03*
X0184150Y0119250D03*
X0172600Y0115950D03*
X0159950Y0136300D03*
X0148400Y0139600D03*
X0148400Y0130250D03*
X0153900Y0098900D03*
X0148400Y0079650D03*
X0170400Y0085700D03*
X0118150Y0049400D03*
X0102750Y0038400D03*
X0092850Y0087900D03*
X0070300Y0129700D03*
X0062600Y0133000D03*
X0056000Y0139600D03*
X0087350Y0145650D03*
X0115950Y0181400D03*
X0097800Y0209450D03*
X0074150Y0232550D03*
X0063700Y0252350D03*
X0104400Y0312850D03*
X0115950Y0305150D03*
X0154450Y0286450D03*
X0052700Y0172600D03*
X0223750Y0038950D03*
X0305700Y0117600D03*
X0327700Y0144000D03*
X0311200Y0151700D03*
D18*
X0281000Y0156000D02*
X0280950Y0156100D01*
X0280950Y0170950D01*
X0256200Y0195700D01*
X0256200Y0207800D01*
X0258950Y0210550D01*
X0262800Y0210550D01*
X0267200Y0206150D01*
X0270500Y0206150D01*
X0271000Y0206000D01*
X0221000Y0252350D02*
X0221000Y0266000D01*
X0221000Y0252350D02*
X0215500Y0246850D01*
X0215500Y0231450D01*
X0210550Y0226500D01*
X0211000Y0226000D01*
X0170950Y0206150D02*
X0171000Y0206000D01*
X0170950Y0206150D02*
X0163250Y0213850D01*
X0163250Y0217150D01*
X0156100Y0224300D01*
X0156100Y0250700D01*
X0170950Y0265550D01*
X0171000Y0266000D01*
X0170950Y0267200D01*
X0161050Y0277100D01*
X0161050Y0285900D01*
X0161000Y0286000D01*
X0121000Y0266000D02*
X0116500Y0270500D01*
X0108800Y0270500D01*
X0108250Y0271600D01*
X0091750Y0288100D01*
X0091750Y0324950D01*
X0091200Y0326050D01*
X0111000Y0345850D01*
X0111000Y0346000D01*
X0091200Y0326050D02*
X0071400Y0326050D01*
X0071000Y0326000D01*
X0108800Y0270500D02*
X0084600Y0246300D01*
X0071400Y0246300D01*
X0071000Y0246000D01*
X0121000Y0156000D02*
X0120900Y0155550D01*
X0120900Y0126400D01*
X0121000Y0126000D01*
X0122000Y0125850D01*
X0129150Y0118700D01*
X0139050Y0118700D01*
X0163250Y0094500D01*
X0180300Y0094500D01*
X0191300Y0083500D01*
X0193500Y0083500D01*
X0201000Y0076000D01*
D19*
X0191000Y0076000D02*
X0190750Y0075800D01*
X0184150Y0069200D01*
X0179200Y0069200D01*
X0176450Y0071950D01*
X0176450Y0084050D01*
X0171500Y0089000D01*
X0148950Y0089000D01*
X0136300Y0101650D01*
X0136300Y0109350D01*
X0132450Y0113200D01*
X0121450Y0113200D01*
X0111000Y0123650D01*
X0111000Y0126000D01*
X0111000Y0106000D02*
X0111000Y0105500D01*
X0112650Y0105500D01*
X0125300Y0092850D01*
X0141250Y0092850D01*
X0148400Y0085700D01*
X0170400Y0085700D01*
X0223750Y0038950D02*
X0230900Y0031800D01*
X0231000Y0031000D01*
X0231450Y0031250D01*
X0241350Y0031250D01*
X0249050Y0038950D01*
X0262800Y0038950D01*
X0270500Y0031250D01*
X0271000Y0031000D01*
X0271600Y0030150D01*
X0278750Y0023000D01*
X0302950Y0023000D01*
X0310650Y0030700D01*
X0311000Y0031000D01*
X0310650Y0031800D01*
X0310650Y0075250D01*
X0284800Y0101100D01*
X0282600Y0098900D01*
X0279300Y0098900D01*
X0272700Y0105500D01*
X0271050Y0105500D01*
X0271000Y0106000D01*
X0284800Y0101100D02*
X0285350Y0101650D01*
X0285350Y0139050D01*
X0271050Y0153350D01*
X0271050Y0155550D01*
X0271000Y0156000D01*
X0279300Y0082950D02*
X0282600Y0082950D01*
X0286450Y0079100D01*
X0286450Y0035650D01*
X0290850Y0031250D01*
X0291000Y0031000D01*
X0272700Y0076350D02*
X0279300Y0082950D01*
X0272700Y0076350D02*
X0271050Y0076350D01*
X0271000Y0076000D01*
M02*
