G75*
%MOIN*%
%OFA0B0*%
%FSLAX25Y25*%
%IPPOS*%
%LPD*%
%AMOC8*
5,1,8,0,0,1.08239X$1,22.5*
%
%ADD10C,0.00000*%
%ADD11C,0.00600*%
%ADD12C,0.00500*%
%ADD13C,0.00800*%
%ADD14C,0.01000*%
%ADD15C,0.00400*%
D10*
X0001000Y0001000D02*
X0001000Y0315961D01*
X0394701Y0315961D01*
X0394701Y0001000D01*
X0001000Y0001000D01*
D11*
X0175500Y0126000D02*
X0177500Y0126000D01*
X0176500Y0125000D02*
X0176500Y0127000D01*
X0175000Y0126000D02*
X0175003Y0126270D01*
X0175013Y0126540D01*
X0175030Y0126809D01*
X0175053Y0127078D01*
X0175083Y0127347D01*
X0175119Y0127614D01*
X0175162Y0127881D01*
X0175211Y0128146D01*
X0175267Y0128410D01*
X0175330Y0128673D01*
X0175398Y0128934D01*
X0175474Y0129193D01*
X0175555Y0129450D01*
X0175643Y0129706D01*
X0175737Y0129959D01*
X0175837Y0130210D01*
X0175944Y0130458D01*
X0176056Y0130703D01*
X0176175Y0130946D01*
X0176299Y0131185D01*
X0176429Y0131422D01*
X0176565Y0131655D01*
X0176707Y0131885D01*
X0176854Y0132111D01*
X0177007Y0132334D01*
X0177165Y0132553D01*
X0177328Y0132768D01*
X0177497Y0132978D01*
X0177671Y0133185D01*
X0177850Y0133387D01*
X0178033Y0133585D01*
X0178222Y0133778D01*
X0178415Y0133967D01*
X0178613Y0134150D01*
X0178815Y0134329D01*
X0179022Y0134503D01*
X0179232Y0134672D01*
X0179447Y0134835D01*
X0179666Y0134993D01*
X0179889Y0135146D01*
X0180115Y0135293D01*
X0180345Y0135435D01*
X0180578Y0135571D01*
X0180815Y0135701D01*
X0181054Y0135825D01*
X0181297Y0135944D01*
X0181542Y0136056D01*
X0181790Y0136163D01*
X0182041Y0136263D01*
X0182294Y0136357D01*
X0182550Y0136445D01*
X0182807Y0136526D01*
X0183066Y0136602D01*
X0183327Y0136670D01*
X0183590Y0136733D01*
X0183854Y0136789D01*
X0184119Y0136838D01*
X0184386Y0136881D01*
X0184653Y0136917D01*
X0184922Y0136947D01*
X0185191Y0136970D01*
X0185460Y0136987D01*
X0185730Y0136997D01*
X0186000Y0137000D01*
X0186270Y0136997D01*
X0186540Y0136987D01*
X0186809Y0136970D01*
X0187078Y0136947D01*
X0187347Y0136917D01*
X0187614Y0136881D01*
X0187881Y0136838D01*
X0188146Y0136789D01*
X0188410Y0136733D01*
X0188673Y0136670D01*
X0188934Y0136602D01*
X0189193Y0136526D01*
X0189450Y0136445D01*
X0189706Y0136357D01*
X0189959Y0136263D01*
X0190210Y0136163D01*
X0190458Y0136056D01*
X0190703Y0135944D01*
X0190946Y0135825D01*
X0191185Y0135701D01*
X0191422Y0135571D01*
X0191655Y0135435D01*
X0191885Y0135293D01*
X0192111Y0135146D01*
X0192334Y0134993D01*
X0192553Y0134835D01*
X0192768Y0134672D01*
X0192978Y0134503D01*
X0193185Y0134329D01*
X0193387Y0134150D01*
X0193585Y0133967D01*
X0193778Y0133778D01*
X0193967Y0133585D01*
X0194150Y0133387D01*
X0194329Y0133185D01*
X0194503Y0132978D01*
X0194672Y0132768D01*
X0194835Y0132553D01*
X0194993Y0132334D01*
X0195146Y0132111D01*
X0195293Y0131885D01*
X0195435Y0131655D01*
X0195571Y0131422D01*
X0195701Y0131185D01*
X0195825Y0130946D01*
X0195944Y0130703D01*
X0196056Y0130458D01*
X0196163Y0130210D01*
X0196263Y0129959D01*
X0196357Y0129706D01*
X0196445Y0129450D01*
X0196526Y0129193D01*
X0196602Y0128934D01*
X0196670Y0128673D01*
X0196733Y0128410D01*
X0196789Y0128146D01*
X0196838Y0127881D01*
X0196881Y0127614D01*
X0196917Y0127347D01*
X0196947Y0127078D01*
X0196970Y0126809D01*
X0196987Y0126540D01*
X0196997Y0126270D01*
X0197000Y0126000D01*
X0196997Y0125730D01*
X0196987Y0125460D01*
X0196970Y0125191D01*
X0196947Y0124922D01*
X0196917Y0124653D01*
X0196881Y0124386D01*
X0196838Y0124119D01*
X0196789Y0123854D01*
X0196733Y0123590D01*
X0196670Y0123327D01*
X0196602Y0123066D01*
X0196526Y0122807D01*
X0196445Y0122550D01*
X0196357Y0122294D01*
X0196263Y0122041D01*
X0196163Y0121790D01*
X0196056Y0121542D01*
X0195944Y0121297D01*
X0195825Y0121054D01*
X0195701Y0120815D01*
X0195571Y0120578D01*
X0195435Y0120345D01*
X0195293Y0120115D01*
X0195146Y0119889D01*
X0194993Y0119666D01*
X0194835Y0119447D01*
X0194672Y0119232D01*
X0194503Y0119022D01*
X0194329Y0118815D01*
X0194150Y0118613D01*
X0193967Y0118415D01*
X0193778Y0118222D01*
X0193585Y0118033D01*
X0193387Y0117850D01*
X0193185Y0117671D01*
X0192978Y0117497D01*
X0192768Y0117328D01*
X0192553Y0117165D01*
X0192334Y0117007D01*
X0192111Y0116854D01*
X0191885Y0116707D01*
X0191655Y0116565D01*
X0191422Y0116429D01*
X0191185Y0116299D01*
X0190946Y0116175D01*
X0190703Y0116056D01*
X0190458Y0115944D01*
X0190210Y0115837D01*
X0189959Y0115737D01*
X0189706Y0115643D01*
X0189450Y0115555D01*
X0189193Y0115474D01*
X0188934Y0115398D01*
X0188673Y0115330D01*
X0188410Y0115267D01*
X0188146Y0115211D01*
X0187881Y0115162D01*
X0187614Y0115119D01*
X0187347Y0115083D01*
X0187078Y0115053D01*
X0186809Y0115030D01*
X0186540Y0115013D01*
X0186270Y0115003D01*
X0186000Y0115000D01*
X0185730Y0115003D01*
X0185460Y0115013D01*
X0185191Y0115030D01*
X0184922Y0115053D01*
X0184653Y0115083D01*
X0184386Y0115119D01*
X0184119Y0115162D01*
X0183854Y0115211D01*
X0183590Y0115267D01*
X0183327Y0115330D01*
X0183066Y0115398D01*
X0182807Y0115474D01*
X0182550Y0115555D01*
X0182294Y0115643D01*
X0182041Y0115737D01*
X0181790Y0115837D01*
X0181542Y0115944D01*
X0181297Y0116056D01*
X0181054Y0116175D01*
X0180815Y0116299D01*
X0180578Y0116429D01*
X0180345Y0116565D01*
X0180115Y0116707D01*
X0179889Y0116854D01*
X0179666Y0117007D01*
X0179447Y0117165D01*
X0179232Y0117328D01*
X0179022Y0117497D01*
X0178815Y0117671D01*
X0178613Y0117850D01*
X0178415Y0118033D01*
X0178222Y0118222D01*
X0178033Y0118415D01*
X0177850Y0118613D01*
X0177671Y0118815D01*
X0177497Y0119022D01*
X0177328Y0119232D01*
X0177165Y0119447D01*
X0177007Y0119666D01*
X0176854Y0119889D01*
X0176707Y0120115D01*
X0176565Y0120345D01*
X0176429Y0120578D01*
X0176299Y0120815D01*
X0176175Y0121054D01*
X0176056Y0121297D01*
X0175944Y0121542D01*
X0175837Y0121790D01*
X0175737Y0122041D01*
X0175643Y0122294D01*
X0175555Y0122550D01*
X0175474Y0122807D01*
X0175398Y0123066D01*
X0175330Y0123327D01*
X0175267Y0123590D01*
X0175211Y0123854D01*
X0175162Y0124119D01*
X0175119Y0124386D01*
X0175083Y0124653D01*
X0175053Y0124922D01*
X0175030Y0125191D01*
X0175013Y0125460D01*
X0175003Y0125730D01*
X0175000Y0126000D01*
X0159500Y0160000D02*
X0159500Y0161000D01*
X0159000Y0161500D01*
X0159000Y0170500D01*
X0159500Y0171000D01*
X0159500Y0172000D01*
X0159498Y0172060D01*
X0159493Y0172121D01*
X0159484Y0172180D01*
X0159471Y0172239D01*
X0159455Y0172298D01*
X0159435Y0172355D01*
X0159412Y0172410D01*
X0159385Y0172465D01*
X0159356Y0172517D01*
X0159323Y0172568D01*
X0159287Y0172617D01*
X0159249Y0172663D01*
X0159207Y0172707D01*
X0159163Y0172749D01*
X0159117Y0172787D01*
X0159068Y0172823D01*
X0159017Y0172856D01*
X0158965Y0172885D01*
X0158910Y0172912D01*
X0158855Y0172935D01*
X0158798Y0172955D01*
X0158739Y0172971D01*
X0158680Y0172984D01*
X0158621Y0172993D01*
X0158560Y0172998D01*
X0158500Y0173000D01*
X0153500Y0173000D02*
X0153440Y0172998D01*
X0153379Y0172993D01*
X0153320Y0172984D01*
X0153261Y0172971D01*
X0153202Y0172955D01*
X0153145Y0172935D01*
X0153090Y0172912D01*
X0153035Y0172885D01*
X0152983Y0172856D01*
X0152932Y0172823D01*
X0152883Y0172787D01*
X0152837Y0172749D01*
X0152793Y0172707D01*
X0152751Y0172663D01*
X0152713Y0172617D01*
X0152677Y0172568D01*
X0152644Y0172517D01*
X0152615Y0172465D01*
X0152588Y0172410D01*
X0152565Y0172355D01*
X0152545Y0172298D01*
X0152529Y0172239D01*
X0152516Y0172180D01*
X0152507Y0172121D01*
X0152502Y0172060D01*
X0152500Y0172000D01*
X0152500Y0171000D01*
X0153000Y0170500D01*
X0153000Y0161500D01*
X0152500Y0161000D01*
X0152500Y0160000D01*
X0152502Y0159940D01*
X0152507Y0159879D01*
X0152516Y0159820D01*
X0152529Y0159761D01*
X0152545Y0159702D01*
X0152565Y0159645D01*
X0152588Y0159590D01*
X0152615Y0159535D01*
X0152644Y0159483D01*
X0152677Y0159432D01*
X0152713Y0159383D01*
X0152751Y0159337D01*
X0152793Y0159293D01*
X0152837Y0159251D01*
X0152883Y0159213D01*
X0152932Y0159177D01*
X0152983Y0159144D01*
X0153035Y0159115D01*
X0153090Y0159088D01*
X0153145Y0159065D01*
X0153202Y0159045D01*
X0153261Y0159029D01*
X0153320Y0159016D01*
X0153379Y0159007D01*
X0153440Y0159002D01*
X0153500Y0159000D01*
X0158500Y0159000D02*
X0158560Y0159002D01*
X0158621Y0159007D01*
X0158680Y0159016D01*
X0158739Y0159029D01*
X0158798Y0159045D01*
X0158855Y0159065D01*
X0158910Y0159088D01*
X0158965Y0159115D01*
X0159017Y0159144D01*
X0159068Y0159177D01*
X0159117Y0159213D01*
X0159163Y0159251D01*
X0159207Y0159293D01*
X0159249Y0159337D01*
X0159287Y0159383D01*
X0159323Y0159432D01*
X0159356Y0159483D01*
X0159385Y0159535D01*
X0159412Y0159590D01*
X0159435Y0159645D01*
X0159455Y0159702D01*
X0159471Y0159761D01*
X0159484Y0159820D01*
X0159493Y0159879D01*
X0159498Y0159940D01*
X0159500Y0160000D01*
X0192500Y0160000D02*
X0192500Y0161000D01*
X0193000Y0161500D01*
X0193000Y0170500D01*
X0192500Y0171000D01*
X0192500Y0172000D01*
X0192502Y0172060D01*
X0192507Y0172121D01*
X0192516Y0172180D01*
X0192529Y0172239D01*
X0192545Y0172298D01*
X0192565Y0172355D01*
X0192588Y0172410D01*
X0192615Y0172465D01*
X0192644Y0172517D01*
X0192677Y0172568D01*
X0192713Y0172617D01*
X0192751Y0172663D01*
X0192793Y0172707D01*
X0192837Y0172749D01*
X0192883Y0172787D01*
X0192932Y0172823D01*
X0192983Y0172856D01*
X0193035Y0172885D01*
X0193090Y0172912D01*
X0193145Y0172935D01*
X0193202Y0172955D01*
X0193261Y0172971D01*
X0193320Y0172984D01*
X0193379Y0172993D01*
X0193440Y0172998D01*
X0193500Y0173000D01*
X0198500Y0173000D02*
X0198560Y0172998D01*
X0198621Y0172993D01*
X0198680Y0172984D01*
X0198739Y0172971D01*
X0198798Y0172955D01*
X0198855Y0172935D01*
X0198910Y0172912D01*
X0198965Y0172885D01*
X0199017Y0172856D01*
X0199068Y0172823D01*
X0199117Y0172787D01*
X0199163Y0172749D01*
X0199207Y0172707D01*
X0199249Y0172663D01*
X0199287Y0172617D01*
X0199323Y0172568D01*
X0199356Y0172517D01*
X0199385Y0172465D01*
X0199412Y0172410D01*
X0199435Y0172355D01*
X0199455Y0172298D01*
X0199471Y0172239D01*
X0199484Y0172180D01*
X0199493Y0172121D01*
X0199498Y0172060D01*
X0199500Y0172000D01*
X0199500Y0171000D01*
X0199000Y0170500D01*
X0199000Y0161500D01*
X0199500Y0161000D01*
X0199500Y0160000D01*
X0199498Y0159940D01*
X0199493Y0159879D01*
X0199484Y0159820D01*
X0199471Y0159761D01*
X0199455Y0159702D01*
X0199435Y0159645D01*
X0199412Y0159590D01*
X0199385Y0159535D01*
X0199356Y0159483D01*
X0199323Y0159432D01*
X0199287Y0159383D01*
X0199249Y0159337D01*
X0199207Y0159293D01*
X0199163Y0159251D01*
X0199117Y0159213D01*
X0199068Y0159177D01*
X0199017Y0159144D01*
X0198965Y0159115D01*
X0198910Y0159088D01*
X0198855Y0159065D01*
X0198798Y0159045D01*
X0198739Y0159029D01*
X0198680Y0159016D01*
X0198621Y0159007D01*
X0198560Y0159002D01*
X0198500Y0159000D01*
X0193500Y0159000D02*
X0193440Y0159002D01*
X0193379Y0159007D01*
X0193320Y0159016D01*
X0193261Y0159029D01*
X0193202Y0159045D01*
X0193145Y0159065D01*
X0193090Y0159088D01*
X0193035Y0159115D01*
X0192983Y0159144D01*
X0192932Y0159177D01*
X0192883Y0159213D01*
X0192837Y0159251D01*
X0192793Y0159293D01*
X0192751Y0159337D01*
X0192713Y0159383D01*
X0192677Y0159432D01*
X0192644Y0159483D01*
X0192615Y0159535D01*
X0192588Y0159590D01*
X0192565Y0159645D01*
X0192545Y0159702D01*
X0192529Y0159761D01*
X0192516Y0159820D01*
X0192507Y0159879D01*
X0192502Y0159940D01*
X0192500Y0160000D01*
X0227500Y0160000D02*
X0227500Y0161000D01*
X0228000Y0161500D01*
X0228000Y0170500D01*
X0227500Y0171000D01*
X0227500Y0172000D01*
X0227502Y0172060D01*
X0227507Y0172121D01*
X0227516Y0172180D01*
X0227529Y0172239D01*
X0227545Y0172298D01*
X0227565Y0172355D01*
X0227588Y0172410D01*
X0227615Y0172465D01*
X0227644Y0172517D01*
X0227677Y0172568D01*
X0227713Y0172617D01*
X0227751Y0172663D01*
X0227793Y0172707D01*
X0227837Y0172749D01*
X0227883Y0172787D01*
X0227932Y0172823D01*
X0227983Y0172856D01*
X0228035Y0172885D01*
X0228090Y0172912D01*
X0228145Y0172935D01*
X0228202Y0172955D01*
X0228261Y0172971D01*
X0228320Y0172984D01*
X0228379Y0172993D01*
X0228440Y0172998D01*
X0228500Y0173000D01*
X0233500Y0173000D02*
X0233560Y0172998D01*
X0233621Y0172993D01*
X0233680Y0172984D01*
X0233739Y0172971D01*
X0233798Y0172955D01*
X0233855Y0172935D01*
X0233910Y0172912D01*
X0233965Y0172885D01*
X0234017Y0172856D01*
X0234068Y0172823D01*
X0234117Y0172787D01*
X0234163Y0172749D01*
X0234207Y0172707D01*
X0234249Y0172663D01*
X0234287Y0172617D01*
X0234323Y0172568D01*
X0234356Y0172517D01*
X0234385Y0172465D01*
X0234412Y0172410D01*
X0234435Y0172355D01*
X0234455Y0172298D01*
X0234471Y0172239D01*
X0234484Y0172180D01*
X0234493Y0172121D01*
X0234498Y0172060D01*
X0234500Y0172000D01*
X0234500Y0171000D01*
X0234000Y0170500D01*
X0234000Y0161500D01*
X0234500Y0161000D01*
X0234500Y0160000D01*
X0234498Y0159940D01*
X0234493Y0159879D01*
X0234484Y0159820D01*
X0234471Y0159761D01*
X0234455Y0159702D01*
X0234435Y0159645D01*
X0234412Y0159590D01*
X0234385Y0159535D01*
X0234356Y0159483D01*
X0234323Y0159432D01*
X0234287Y0159383D01*
X0234249Y0159337D01*
X0234207Y0159293D01*
X0234163Y0159251D01*
X0234117Y0159213D01*
X0234068Y0159177D01*
X0234017Y0159144D01*
X0233965Y0159115D01*
X0233910Y0159088D01*
X0233855Y0159065D01*
X0233798Y0159045D01*
X0233739Y0159029D01*
X0233680Y0159016D01*
X0233621Y0159007D01*
X0233560Y0159002D01*
X0233500Y0159000D01*
X0228500Y0159000D02*
X0228440Y0159002D01*
X0228379Y0159007D01*
X0228320Y0159016D01*
X0228261Y0159029D01*
X0228202Y0159045D01*
X0228145Y0159065D01*
X0228090Y0159088D01*
X0228035Y0159115D01*
X0227983Y0159144D01*
X0227932Y0159177D01*
X0227883Y0159213D01*
X0227837Y0159251D01*
X0227793Y0159293D01*
X0227751Y0159337D01*
X0227713Y0159383D01*
X0227677Y0159432D01*
X0227644Y0159483D01*
X0227615Y0159535D01*
X0227588Y0159590D01*
X0227565Y0159645D01*
X0227545Y0159702D01*
X0227529Y0159761D01*
X0227516Y0159820D01*
X0227507Y0159879D01*
X0227502Y0159940D01*
X0227500Y0160000D01*
X0257500Y0160000D02*
X0257500Y0161000D01*
X0258000Y0161500D01*
X0258000Y0170500D01*
X0257500Y0171000D01*
X0257500Y0172000D01*
X0257502Y0172060D01*
X0257507Y0172121D01*
X0257516Y0172180D01*
X0257529Y0172239D01*
X0257545Y0172298D01*
X0257565Y0172355D01*
X0257588Y0172410D01*
X0257615Y0172465D01*
X0257644Y0172517D01*
X0257677Y0172568D01*
X0257713Y0172617D01*
X0257751Y0172663D01*
X0257793Y0172707D01*
X0257837Y0172749D01*
X0257883Y0172787D01*
X0257932Y0172823D01*
X0257983Y0172856D01*
X0258035Y0172885D01*
X0258090Y0172912D01*
X0258145Y0172935D01*
X0258202Y0172955D01*
X0258261Y0172971D01*
X0258320Y0172984D01*
X0258379Y0172993D01*
X0258440Y0172998D01*
X0258500Y0173000D01*
X0263500Y0173000D02*
X0263560Y0172998D01*
X0263621Y0172993D01*
X0263680Y0172984D01*
X0263739Y0172971D01*
X0263798Y0172955D01*
X0263855Y0172935D01*
X0263910Y0172912D01*
X0263965Y0172885D01*
X0264017Y0172856D01*
X0264068Y0172823D01*
X0264117Y0172787D01*
X0264163Y0172749D01*
X0264207Y0172707D01*
X0264249Y0172663D01*
X0264287Y0172617D01*
X0264323Y0172568D01*
X0264356Y0172517D01*
X0264385Y0172465D01*
X0264412Y0172410D01*
X0264435Y0172355D01*
X0264455Y0172298D01*
X0264471Y0172239D01*
X0264484Y0172180D01*
X0264493Y0172121D01*
X0264498Y0172060D01*
X0264500Y0172000D01*
X0264500Y0171000D01*
X0264000Y0170500D01*
X0264000Y0161500D01*
X0264500Y0161000D01*
X0264500Y0160000D01*
X0264498Y0159940D01*
X0264493Y0159879D01*
X0264484Y0159820D01*
X0264471Y0159761D01*
X0264455Y0159702D01*
X0264435Y0159645D01*
X0264412Y0159590D01*
X0264385Y0159535D01*
X0264356Y0159483D01*
X0264323Y0159432D01*
X0264287Y0159383D01*
X0264249Y0159337D01*
X0264207Y0159293D01*
X0264163Y0159251D01*
X0264117Y0159213D01*
X0264068Y0159177D01*
X0264017Y0159144D01*
X0263965Y0159115D01*
X0263910Y0159088D01*
X0263855Y0159065D01*
X0263798Y0159045D01*
X0263739Y0159029D01*
X0263680Y0159016D01*
X0263621Y0159007D01*
X0263560Y0159002D01*
X0263500Y0159000D01*
X0258500Y0159000D02*
X0258440Y0159002D01*
X0258379Y0159007D01*
X0258320Y0159016D01*
X0258261Y0159029D01*
X0258202Y0159045D01*
X0258145Y0159065D01*
X0258090Y0159088D01*
X0258035Y0159115D01*
X0257983Y0159144D01*
X0257932Y0159177D01*
X0257883Y0159213D01*
X0257837Y0159251D01*
X0257793Y0159293D01*
X0257751Y0159337D01*
X0257713Y0159383D01*
X0257677Y0159432D01*
X0257644Y0159483D01*
X0257615Y0159535D01*
X0257588Y0159590D01*
X0257565Y0159645D01*
X0257545Y0159702D01*
X0257529Y0159761D01*
X0257516Y0159820D01*
X0257507Y0159879D01*
X0257502Y0159940D01*
X0257500Y0160000D01*
X0250500Y0122000D02*
X0250500Y0120000D01*
X0249500Y0121000D02*
X0251500Y0121000D01*
X0230000Y0121000D02*
X0230003Y0121270D01*
X0230013Y0121540D01*
X0230030Y0121809D01*
X0230053Y0122078D01*
X0230083Y0122347D01*
X0230119Y0122614D01*
X0230162Y0122881D01*
X0230211Y0123146D01*
X0230267Y0123410D01*
X0230330Y0123673D01*
X0230398Y0123934D01*
X0230474Y0124193D01*
X0230555Y0124450D01*
X0230643Y0124706D01*
X0230737Y0124959D01*
X0230837Y0125210D01*
X0230944Y0125458D01*
X0231056Y0125703D01*
X0231175Y0125946D01*
X0231299Y0126185D01*
X0231429Y0126422D01*
X0231565Y0126655D01*
X0231707Y0126885D01*
X0231854Y0127111D01*
X0232007Y0127334D01*
X0232165Y0127553D01*
X0232328Y0127768D01*
X0232497Y0127978D01*
X0232671Y0128185D01*
X0232850Y0128387D01*
X0233033Y0128585D01*
X0233222Y0128778D01*
X0233415Y0128967D01*
X0233613Y0129150D01*
X0233815Y0129329D01*
X0234022Y0129503D01*
X0234232Y0129672D01*
X0234447Y0129835D01*
X0234666Y0129993D01*
X0234889Y0130146D01*
X0235115Y0130293D01*
X0235345Y0130435D01*
X0235578Y0130571D01*
X0235815Y0130701D01*
X0236054Y0130825D01*
X0236297Y0130944D01*
X0236542Y0131056D01*
X0236790Y0131163D01*
X0237041Y0131263D01*
X0237294Y0131357D01*
X0237550Y0131445D01*
X0237807Y0131526D01*
X0238066Y0131602D01*
X0238327Y0131670D01*
X0238590Y0131733D01*
X0238854Y0131789D01*
X0239119Y0131838D01*
X0239386Y0131881D01*
X0239653Y0131917D01*
X0239922Y0131947D01*
X0240191Y0131970D01*
X0240460Y0131987D01*
X0240730Y0131997D01*
X0241000Y0132000D01*
X0241270Y0131997D01*
X0241540Y0131987D01*
X0241809Y0131970D01*
X0242078Y0131947D01*
X0242347Y0131917D01*
X0242614Y0131881D01*
X0242881Y0131838D01*
X0243146Y0131789D01*
X0243410Y0131733D01*
X0243673Y0131670D01*
X0243934Y0131602D01*
X0244193Y0131526D01*
X0244450Y0131445D01*
X0244706Y0131357D01*
X0244959Y0131263D01*
X0245210Y0131163D01*
X0245458Y0131056D01*
X0245703Y0130944D01*
X0245946Y0130825D01*
X0246185Y0130701D01*
X0246422Y0130571D01*
X0246655Y0130435D01*
X0246885Y0130293D01*
X0247111Y0130146D01*
X0247334Y0129993D01*
X0247553Y0129835D01*
X0247768Y0129672D01*
X0247978Y0129503D01*
X0248185Y0129329D01*
X0248387Y0129150D01*
X0248585Y0128967D01*
X0248778Y0128778D01*
X0248967Y0128585D01*
X0249150Y0128387D01*
X0249329Y0128185D01*
X0249503Y0127978D01*
X0249672Y0127768D01*
X0249835Y0127553D01*
X0249993Y0127334D01*
X0250146Y0127111D01*
X0250293Y0126885D01*
X0250435Y0126655D01*
X0250571Y0126422D01*
X0250701Y0126185D01*
X0250825Y0125946D01*
X0250944Y0125703D01*
X0251056Y0125458D01*
X0251163Y0125210D01*
X0251263Y0124959D01*
X0251357Y0124706D01*
X0251445Y0124450D01*
X0251526Y0124193D01*
X0251602Y0123934D01*
X0251670Y0123673D01*
X0251733Y0123410D01*
X0251789Y0123146D01*
X0251838Y0122881D01*
X0251881Y0122614D01*
X0251917Y0122347D01*
X0251947Y0122078D01*
X0251970Y0121809D01*
X0251987Y0121540D01*
X0251997Y0121270D01*
X0252000Y0121000D01*
X0251997Y0120730D01*
X0251987Y0120460D01*
X0251970Y0120191D01*
X0251947Y0119922D01*
X0251917Y0119653D01*
X0251881Y0119386D01*
X0251838Y0119119D01*
X0251789Y0118854D01*
X0251733Y0118590D01*
X0251670Y0118327D01*
X0251602Y0118066D01*
X0251526Y0117807D01*
X0251445Y0117550D01*
X0251357Y0117294D01*
X0251263Y0117041D01*
X0251163Y0116790D01*
X0251056Y0116542D01*
X0250944Y0116297D01*
X0250825Y0116054D01*
X0250701Y0115815D01*
X0250571Y0115578D01*
X0250435Y0115345D01*
X0250293Y0115115D01*
X0250146Y0114889D01*
X0249993Y0114666D01*
X0249835Y0114447D01*
X0249672Y0114232D01*
X0249503Y0114022D01*
X0249329Y0113815D01*
X0249150Y0113613D01*
X0248967Y0113415D01*
X0248778Y0113222D01*
X0248585Y0113033D01*
X0248387Y0112850D01*
X0248185Y0112671D01*
X0247978Y0112497D01*
X0247768Y0112328D01*
X0247553Y0112165D01*
X0247334Y0112007D01*
X0247111Y0111854D01*
X0246885Y0111707D01*
X0246655Y0111565D01*
X0246422Y0111429D01*
X0246185Y0111299D01*
X0245946Y0111175D01*
X0245703Y0111056D01*
X0245458Y0110944D01*
X0245210Y0110837D01*
X0244959Y0110737D01*
X0244706Y0110643D01*
X0244450Y0110555D01*
X0244193Y0110474D01*
X0243934Y0110398D01*
X0243673Y0110330D01*
X0243410Y0110267D01*
X0243146Y0110211D01*
X0242881Y0110162D01*
X0242614Y0110119D01*
X0242347Y0110083D01*
X0242078Y0110053D01*
X0241809Y0110030D01*
X0241540Y0110013D01*
X0241270Y0110003D01*
X0241000Y0110000D01*
X0240730Y0110003D01*
X0240460Y0110013D01*
X0240191Y0110030D01*
X0239922Y0110053D01*
X0239653Y0110083D01*
X0239386Y0110119D01*
X0239119Y0110162D01*
X0238854Y0110211D01*
X0238590Y0110267D01*
X0238327Y0110330D01*
X0238066Y0110398D01*
X0237807Y0110474D01*
X0237550Y0110555D01*
X0237294Y0110643D01*
X0237041Y0110737D01*
X0236790Y0110837D01*
X0236542Y0110944D01*
X0236297Y0111056D01*
X0236054Y0111175D01*
X0235815Y0111299D01*
X0235578Y0111429D01*
X0235345Y0111565D01*
X0235115Y0111707D01*
X0234889Y0111854D01*
X0234666Y0112007D01*
X0234447Y0112165D01*
X0234232Y0112328D01*
X0234022Y0112497D01*
X0233815Y0112671D01*
X0233613Y0112850D01*
X0233415Y0113033D01*
X0233222Y0113222D01*
X0233033Y0113415D01*
X0232850Y0113613D01*
X0232671Y0113815D01*
X0232497Y0114022D01*
X0232328Y0114232D01*
X0232165Y0114447D01*
X0232007Y0114666D01*
X0231854Y0114889D01*
X0231707Y0115115D01*
X0231565Y0115345D01*
X0231429Y0115578D01*
X0231299Y0115815D01*
X0231175Y0116054D01*
X0231056Y0116297D01*
X0230944Y0116542D01*
X0230837Y0116790D01*
X0230737Y0117041D01*
X0230643Y0117294D01*
X0230555Y0117550D01*
X0230474Y0117807D01*
X0230398Y0118066D01*
X0230330Y0118327D01*
X0230267Y0118590D01*
X0230211Y0118854D01*
X0230162Y0119119D01*
X0230119Y0119386D01*
X0230083Y0119653D01*
X0230053Y0119922D01*
X0230030Y0120191D01*
X0230013Y0120460D01*
X0230003Y0120730D01*
X0230000Y0121000D01*
X0251000Y0226000D02*
X0251003Y0226245D01*
X0251012Y0226491D01*
X0251027Y0226736D01*
X0251048Y0226980D01*
X0251075Y0227224D01*
X0251108Y0227467D01*
X0251147Y0227710D01*
X0251192Y0227951D01*
X0251243Y0228191D01*
X0251300Y0228430D01*
X0251362Y0228667D01*
X0251431Y0228903D01*
X0251505Y0229137D01*
X0251585Y0229369D01*
X0251670Y0229599D01*
X0251761Y0229827D01*
X0251858Y0230052D01*
X0251960Y0230276D01*
X0252068Y0230496D01*
X0252181Y0230714D01*
X0252299Y0230929D01*
X0252423Y0231141D01*
X0252551Y0231350D01*
X0252685Y0231556D01*
X0252824Y0231758D01*
X0252968Y0231957D01*
X0253117Y0232152D01*
X0253270Y0232344D01*
X0253428Y0232532D01*
X0253590Y0232716D01*
X0253758Y0232895D01*
X0253929Y0233071D01*
X0254105Y0233242D01*
X0254284Y0233410D01*
X0254468Y0233572D01*
X0254656Y0233730D01*
X0254848Y0233883D01*
X0255043Y0234032D01*
X0255242Y0234176D01*
X0255444Y0234315D01*
X0255650Y0234449D01*
X0255859Y0234577D01*
X0256071Y0234701D01*
X0256286Y0234819D01*
X0256504Y0234932D01*
X0256724Y0235040D01*
X0256948Y0235142D01*
X0257173Y0235239D01*
X0257401Y0235330D01*
X0257631Y0235415D01*
X0257863Y0235495D01*
X0258097Y0235569D01*
X0258333Y0235638D01*
X0258570Y0235700D01*
X0258809Y0235757D01*
X0259049Y0235808D01*
X0259290Y0235853D01*
X0259533Y0235892D01*
X0259776Y0235925D01*
X0260020Y0235952D01*
X0260264Y0235973D01*
X0260509Y0235988D01*
X0260755Y0235997D01*
X0261000Y0236000D01*
X0261245Y0235997D01*
X0261491Y0235988D01*
X0261736Y0235973D01*
X0261980Y0235952D01*
X0262224Y0235925D01*
X0262467Y0235892D01*
X0262710Y0235853D01*
X0262951Y0235808D01*
X0263191Y0235757D01*
X0263430Y0235700D01*
X0263667Y0235638D01*
X0263903Y0235569D01*
X0264137Y0235495D01*
X0264369Y0235415D01*
X0264599Y0235330D01*
X0264827Y0235239D01*
X0265052Y0235142D01*
X0265276Y0235040D01*
X0265496Y0234932D01*
X0265714Y0234819D01*
X0265929Y0234701D01*
X0266141Y0234577D01*
X0266350Y0234449D01*
X0266556Y0234315D01*
X0266758Y0234176D01*
X0266957Y0234032D01*
X0267152Y0233883D01*
X0267344Y0233730D01*
X0267532Y0233572D01*
X0267716Y0233410D01*
X0267895Y0233242D01*
X0268071Y0233071D01*
X0268242Y0232895D01*
X0268410Y0232716D01*
X0268572Y0232532D01*
X0268730Y0232344D01*
X0268883Y0232152D01*
X0269032Y0231957D01*
X0269176Y0231758D01*
X0269315Y0231556D01*
X0269449Y0231350D01*
X0269577Y0231141D01*
X0269701Y0230929D01*
X0269819Y0230714D01*
X0269932Y0230496D01*
X0270040Y0230276D01*
X0270142Y0230052D01*
X0270239Y0229827D01*
X0270330Y0229599D01*
X0270415Y0229369D01*
X0270495Y0229137D01*
X0270569Y0228903D01*
X0270638Y0228667D01*
X0270700Y0228430D01*
X0270757Y0228191D01*
X0270808Y0227951D01*
X0270853Y0227710D01*
X0270892Y0227467D01*
X0270925Y0227224D01*
X0270952Y0226980D01*
X0270973Y0226736D01*
X0270988Y0226491D01*
X0270997Y0226245D01*
X0271000Y0226000D01*
X0270997Y0225755D01*
X0270988Y0225509D01*
X0270973Y0225264D01*
X0270952Y0225020D01*
X0270925Y0224776D01*
X0270892Y0224533D01*
X0270853Y0224290D01*
X0270808Y0224049D01*
X0270757Y0223809D01*
X0270700Y0223570D01*
X0270638Y0223333D01*
X0270569Y0223097D01*
X0270495Y0222863D01*
X0270415Y0222631D01*
X0270330Y0222401D01*
X0270239Y0222173D01*
X0270142Y0221948D01*
X0270040Y0221724D01*
X0269932Y0221504D01*
X0269819Y0221286D01*
X0269701Y0221071D01*
X0269577Y0220859D01*
X0269449Y0220650D01*
X0269315Y0220444D01*
X0269176Y0220242D01*
X0269032Y0220043D01*
X0268883Y0219848D01*
X0268730Y0219656D01*
X0268572Y0219468D01*
X0268410Y0219284D01*
X0268242Y0219105D01*
X0268071Y0218929D01*
X0267895Y0218758D01*
X0267716Y0218590D01*
X0267532Y0218428D01*
X0267344Y0218270D01*
X0267152Y0218117D01*
X0266957Y0217968D01*
X0266758Y0217824D01*
X0266556Y0217685D01*
X0266350Y0217551D01*
X0266141Y0217423D01*
X0265929Y0217299D01*
X0265714Y0217181D01*
X0265496Y0217068D01*
X0265276Y0216960D01*
X0265052Y0216858D01*
X0264827Y0216761D01*
X0264599Y0216670D01*
X0264369Y0216585D01*
X0264137Y0216505D01*
X0263903Y0216431D01*
X0263667Y0216362D01*
X0263430Y0216300D01*
X0263191Y0216243D01*
X0262951Y0216192D01*
X0262710Y0216147D01*
X0262467Y0216108D01*
X0262224Y0216075D01*
X0261980Y0216048D01*
X0261736Y0216027D01*
X0261491Y0216012D01*
X0261245Y0216003D01*
X0261000Y0216000D01*
X0260755Y0216003D01*
X0260509Y0216012D01*
X0260264Y0216027D01*
X0260020Y0216048D01*
X0259776Y0216075D01*
X0259533Y0216108D01*
X0259290Y0216147D01*
X0259049Y0216192D01*
X0258809Y0216243D01*
X0258570Y0216300D01*
X0258333Y0216362D01*
X0258097Y0216431D01*
X0257863Y0216505D01*
X0257631Y0216585D01*
X0257401Y0216670D01*
X0257173Y0216761D01*
X0256948Y0216858D01*
X0256724Y0216960D01*
X0256504Y0217068D01*
X0256286Y0217181D01*
X0256071Y0217299D01*
X0255859Y0217423D01*
X0255650Y0217551D01*
X0255444Y0217685D01*
X0255242Y0217824D01*
X0255043Y0217968D01*
X0254848Y0218117D01*
X0254656Y0218270D01*
X0254468Y0218428D01*
X0254284Y0218590D01*
X0254105Y0218758D01*
X0253929Y0218929D01*
X0253758Y0219105D01*
X0253590Y0219284D01*
X0253428Y0219468D01*
X0253270Y0219656D01*
X0253117Y0219848D01*
X0252968Y0220043D01*
X0252824Y0220242D01*
X0252685Y0220444D01*
X0252551Y0220650D01*
X0252423Y0220859D01*
X0252299Y0221071D01*
X0252181Y0221286D01*
X0252068Y0221504D01*
X0251960Y0221724D01*
X0251858Y0221948D01*
X0251761Y0222173D01*
X0251670Y0222401D01*
X0251585Y0222631D01*
X0251505Y0222863D01*
X0251431Y0223097D01*
X0251362Y0223333D01*
X0251300Y0223570D01*
X0251243Y0223809D01*
X0251192Y0224049D01*
X0251147Y0224290D01*
X0251108Y0224533D01*
X0251075Y0224776D01*
X0251048Y0225020D01*
X0251027Y0225264D01*
X0251012Y0225509D01*
X0251003Y0225755D01*
X0251000Y0226000D01*
X0146000Y0226000D02*
X0146003Y0226245D01*
X0146012Y0226491D01*
X0146027Y0226736D01*
X0146048Y0226980D01*
X0146075Y0227224D01*
X0146108Y0227467D01*
X0146147Y0227710D01*
X0146192Y0227951D01*
X0146243Y0228191D01*
X0146300Y0228430D01*
X0146362Y0228667D01*
X0146431Y0228903D01*
X0146505Y0229137D01*
X0146585Y0229369D01*
X0146670Y0229599D01*
X0146761Y0229827D01*
X0146858Y0230052D01*
X0146960Y0230276D01*
X0147068Y0230496D01*
X0147181Y0230714D01*
X0147299Y0230929D01*
X0147423Y0231141D01*
X0147551Y0231350D01*
X0147685Y0231556D01*
X0147824Y0231758D01*
X0147968Y0231957D01*
X0148117Y0232152D01*
X0148270Y0232344D01*
X0148428Y0232532D01*
X0148590Y0232716D01*
X0148758Y0232895D01*
X0148929Y0233071D01*
X0149105Y0233242D01*
X0149284Y0233410D01*
X0149468Y0233572D01*
X0149656Y0233730D01*
X0149848Y0233883D01*
X0150043Y0234032D01*
X0150242Y0234176D01*
X0150444Y0234315D01*
X0150650Y0234449D01*
X0150859Y0234577D01*
X0151071Y0234701D01*
X0151286Y0234819D01*
X0151504Y0234932D01*
X0151724Y0235040D01*
X0151948Y0235142D01*
X0152173Y0235239D01*
X0152401Y0235330D01*
X0152631Y0235415D01*
X0152863Y0235495D01*
X0153097Y0235569D01*
X0153333Y0235638D01*
X0153570Y0235700D01*
X0153809Y0235757D01*
X0154049Y0235808D01*
X0154290Y0235853D01*
X0154533Y0235892D01*
X0154776Y0235925D01*
X0155020Y0235952D01*
X0155264Y0235973D01*
X0155509Y0235988D01*
X0155755Y0235997D01*
X0156000Y0236000D01*
X0156245Y0235997D01*
X0156491Y0235988D01*
X0156736Y0235973D01*
X0156980Y0235952D01*
X0157224Y0235925D01*
X0157467Y0235892D01*
X0157710Y0235853D01*
X0157951Y0235808D01*
X0158191Y0235757D01*
X0158430Y0235700D01*
X0158667Y0235638D01*
X0158903Y0235569D01*
X0159137Y0235495D01*
X0159369Y0235415D01*
X0159599Y0235330D01*
X0159827Y0235239D01*
X0160052Y0235142D01*
X0160276Y0235040D01*
X0160496Y0234932D01*
X0160714Y0234819D01*
X0160929Y0234701D01*
X0161141Y0234577D01*
X0161350Y0234449D01*
X0161556Y0234315D01*
X0161758Y0234176D01*
X0161957Y0234032D01*
X0162152Y0233883D01*
X0162344Y0233730D01*
X0162532Y0233572D01*
X0162716Y0233410D01*
X0162895Y0233242D01*
X0163071Y0233071D01*
X0163242Y0232895D01*
X0163410Y0232716D01*
X0163572Y0232532D01*
X0163730Y0232344D01*
X0163883Y0232152D01*
X0164032Y0231957D01*
X0164176Y0231758D01*
X0164315Y0231556D01*
X0164449Y0231350D01*
X0164577Y0231141D01*
X0164701Y0230929D01*
X0164819Y0230714D01*
X0164932Y0230496D01*
X0165040Y0230276D01*
X0165142Y0230052D01*
X0165239Y0229827D01*
X0165330Y0229599D01*
X0165415Y0229369D01*
X0165495Y0229137D01*
X0165569Y0228903D01*
X0165638Y0228667D01*
X0165700Y0228430D01*
X0165757Y0228191D01*
X0165808Y0227951D01*
X0165853Y0227710D01*
X0165892Y0227467D01*
X0165925Y0227224D01*
X0165952Y0226980D01*
X0165973Y0226736D01*
X0165988Y0226491D01*
X0165997Y0226245D01*
X0166000Y0226000D01*
X0165997Y0225755D01*
X0165988Y0225509D01*
X0165973Y0225264D01*
X0165952Y0225020D01*
X0165925Y0224776D01*
X0165892Y0224533D01*
X0165853Y0224290D01*
X0165808Y0224049D01*
X0165757Y0223809D01*
X0165700Y0223570D01*
X0165638Y0223333D01*
X0165569Y0223097D01*
X0165495Y0222863D01*
X0165415Y0222631D01*
X0165330Y0222401D01*
X0165239Y0222173D01*
X0165142Y0221948D01*
X0165040Y0221724D01*
X0164932Y0221504D01*
X0164819Y0221286D01*
X0164701Y0221071D01*
X0164577Y0220859D01*
X0164449Y0220650D01*
X0164315Y0220444D01*
X0164176Y0220242D01*
X0164032Y0220043D01*
X0163883Y0219848D01*
X0163730Y0219656D01*
X0163572Y0219468D01*
X0163410Y0219284D01*
X0163242Y0219105D01*
X0163071Y0218929D01*
X0162895Y0218758D01*
X0162716Y0218590D01*
X0162532Y0218428D01*
X0162344Y0218270D01*
X0162152Y0218117D01*
X0161957Y0217968D01*
X0161758Y0217824D01*
X0161556Y0217685D01*
X0161350Y0217551D01*
X0161141Y0217423D01*
X0160929Y0217299D01*
X0160714Y0217181D01*
X0160496Y0217068D01*
X0160276Y0216960D01*
X0160052Y0216858D01*
X0159827Y0216761D01*
X0159599Y0216670D01*
X0159369Y0216585D01*
X0159137Y0216505D01*
X0158903Y0216431D01*
X0158667Y0216362D01*
X0158430Y0216300D01*
X0158191Y0216243D01*
X0157951Y0216192D01*
X0157710Y0216147D01*
X0157467Y0216108D01*
X0157224Y0216075D01*
X0156980Y0216048D01*
X0156736Y0216027D01*
X0156491Y0216012D01*
X0156245Y0216003D01*
X0156000Y0216000D01*
X0155755Y0216003D01*
X0155509Y0216012D01*
X0155264Y0216027D01*
X0155020Y0216048D01*
X0154776Y0216075D01*
X0154533Y0216108D01*
X0154290Y0216147D01*
X0154049Y0216192D01*
X0153809Y0216243D01*
X0153570Y0216300D01*
X0153333Y0216362D01*
X0153097Y0216431D01*
X0152863Y0216505D01*
X0152631Y0216585D01*
X0152401Y0216670D01*
X0152173Y0216761D01*
X0151948Y0216858D01*
X0151724Y0216960D01*
X0151504Y0217068D01*
X0151286Y0217181D01*
X0151071Y0217299D01*
X0150859Y0217423D01*
X0150650Y0217551D01*
X0150444Y0217685D01*
X0150242Y0217824D01*
X0150043Y0217968D01*
X0149848Y0218117D01*
X0149656Y0218270D01*
X0149468Y0218428D01*
X0149284Y0218590D01*
X0149105Y0218758D01*
X0148929Y0218929D01*
X0148758Y0219105D01*
X0148590Y0219284D01*
X0148428Y0219468D01*
X0148270Y0219656D01*
X0148117Y0219848D01*
X0147968Y0220043D01*
X0147824Y0220242D01*
X0147685Y0220444D01*
X0147551Y0220650D01*
X0147423Y0220859D01*
X0147299Y0221071D01*
X0147181Y0221286D01*
X0147068Y0221504D01*
X0146960Y0221724D01*
X0146858Y0221948D01*
X0146761Y0222173D01*
X0146670Y0222401D01*
X0146585Y0222631D01*
X0146505Y0222863D01*
X0146431Y0223097D01*
X0146362Y0223333D01*
X0146300Y0223570D01*
X0146243Y0223809D01*
X0146192Y0224049D01*
X0146147Y0224290D01*
X0146108Y0224533D01*
X0146075Y0224776D01*
X0146048Y0225020D01*
X0146027Y0225264D01*
X0146012Y0225509D01*
X0146003Y0225755D01*
X0146000Y0226000D01*
X0128500Y0241000D02*
X0123500Y0241000D01*
X0121000Y0243500D01*
X0121000Y0248500D01*
X0123500Y0251000D01*
X0121000Y0253500D01*
X0121000Y0258500D01*
X0123500Y0261000D01*
X0128500Y0261000D01*
X0131000Y0258500D01*
X0131000Y0253500D01*
X0128500Y0251000D01*
X0131000Y0248500D01*
X0131000Y0243500D01*
X0128500Y0241000D01*
X0128500Y0251000D02*
X0123500Y0251000D01*
D12*
X0133450Y0251921D02*
X0136950Y0251921D01*
X0137010Y0251919D01*
X0137071Y0251914D01*
X0137130Y0251905D01*
X0137189Y0251892D01*
X0137248Y0251876D01*
X0137305Y0251856D01*
X0137360Y0251833D01*
X0137415Y0251806D01*
X0137467Y0251777D01*
X0137518Y0251744D01*
X0137567Y0251708D01*
X0137613Y0251670D01*
X0137657Y0251628D01*
X0137699Y0251584D01*
X0137737Y0251538D01*
X0137773Y0251489D01*
X0137806Y0251438D01*
X0137835Y0251386D01*
X0137862Y0251331D01*
X0137885Y0251276D01*
X0137905Y0251219D01*
X0137921Y0251160D01*
X0137934Y0251101D01*
X0137943Y0251042D01*
X0137948Y0250981D01*
X0137950Y0250921D01*
X0137950Y0250421D01*
X0137950Y0254275D02*
X0133450Y0254275D01*
X0133450Y0255525D01*
X0133452Y0255594D01*
X0133458Y0255663D01*
X0133467Y0255731D01*
X0133480Y0255798D01*
X0133497Y0255865D01*
X0133518Y0255931D01*
X0133542Y0255995D01*
X0133570Y0256058D01*
X0133601Y0256120D01*
X0133635Y0256180D01*
X0133673Y0256237D01*
X0133714Y0256293D01*
X0133757Y0256346D01*
X0133804Y0256397D01*
X0133853Y0256445D01*
X0133905Y0256490D01*
X0133960Y0256532D01*
X0134016Y0256571D01*
X0134075Y0256608D01*
X0134136Y0256640D01*
X0134198Y0256670D01*
X0134262Y0256696D01*
X0134327Y0256718D01*
X0134393Y0256737D01*
X0134460Y0256752D01*
X0134528Y0256763D01*
X0134597Y0256771D01*
X0134666Y0256775D01*
X0134734Y0256775D01*
X0134803Y0256771D01*
X0134872Y0256763D01*
X0134940Y0256752D01*
X0135007Y0256737D01*
X0135073Y0256718D01*
X0135138Y0256696D01*
X0135202Y0256670D01*
X0135264Y0256640D01*
X0135325Y0256608D01*
X0135384Y0256571D01*
X0135440Y0256532D01*
X0135495Y0256490D01*
X0135547Y0256445D01*
X0135596Y0256397D01*
X0135643Y0256346D01*
X0135686Y0256293D01*
X0135727Y0256237D01*
X0135765Y0256180D01*
X0135799Y0256120D01*
X0135830Y0256058D01*
X0135858Y0255995D01*
X0135882Y0255931D01*
X0135903Y0255865D01*
X0135920Y0255798D01*
X0135933Y0255731D01*
X0135942Y0255663D01*
X0135948Y0255594D01*
X0135950Y0255525D01*
X0135950Y0254275D01*
X0134450Y0258550D02*
X0133450Y0259800D01*
X0137950Y0259800D01*
X0137950Y0258550D02*
X0137950Y0261050D01*
X0160350Y0212875D02*
X0162850Y0210750D01*
X0162850Y0213250D01*
X0159350Y0210750D02*
X0159281Y0210774D01*
X0159214Y0210802D01*
X0159148Y0210833D01*
X0159084Y0210867D01*
X0159022Y0210904D01*
X0158961Y0210945D01*
X0158903Y0210988D01*
X0158847Y0211034D01*
X0158793Y0211084D01*
X0158742Y0211135D01*
X0158694Y0211189D01*
X0158648Y0211246D01*
X0158605Y0211305D01*
X0158566Y0211366D01*
X0158529Y0211428D01*
X0158496Y0211493D01*
X0158465Y0211559D01*
X0158439Y0211627D01*
X0158415Y0211695D01*
X0158395Y0211765D01*
X0158379Y0211836D01*
X0158366Y0211908D01*
X0158357Y0211980D01*
X0158352Y0212052D01*
X0158350Y0212125D01*
X0158352Y0212190D01*
X0158358Y0212256D01*
X0158367Y0212320D01*
X0158380Y0212384D01*
X0158397Y0212448D01*
X0158418Y0212510D01*
X0158442Y0212571D01*
X0158470Y0212630D01*
X0158501Y0212688D01*
X0158535Y0212743D01*
X0158573Y0212797D01*
X0158613Y0212848D01*
X0158657Y0212897D01*
X0158703Y0212943D01*
X0158752Y0212987D01*
X0158803Y0213027D01*
X0158857Y0213065D01*
X0158913Y0213099D01*
X0158970Y0213130D01*
X0159029Y0213158D01*
X0159090Y0213182D01*
X0159152Y0213203D01*
X0159216Y0213220D01*
X0159280Y0213233D01*
X0159344Y0213242D01*
X0159410Y0213248D01*
X0159475Y0213250D01*
X0159540Y0213248D01*
X0159605Y0213243D01*
X0159670Y0213234D01*
X0159734Y0213222D01*
X0159797Y0213206D01*
X0159859Y0213187D01*
X0159921Y0213165D01*
X0159981Y0213139D01*
X0160039Y0213110D01*
X0160096Y0213078D01*
X0160151Y0213043D01*
X0160204Y0213005D01*
X0160255Y0212965D01*
X0160304Y0212921D01*
X0160350Y0212875D01*
X0159600Y0208600D02*
X0161600Y0208600D01*
X0161668Y0208598D01*
X0161735Y0208593D01*
X0161802Y0208584D01*
X0161869Y0208571D01*
X0161934Y0208554D01*
X0161999Y0208535D01*
X0162063Y0208511D01*
X0162125Y0208484D01*
X0162186Y0208454D01*
X0162244Y0208421D01*
X0162301Y0208385D01*
X0162356Y0208345D01*
X0162409Y0208303D01*
X0162460Y0208257D01*
X0162507Y0208210D01*
X0162553Y0208159D01*
X0162595Y0208106D01*
X0162635Y0208051D01*
X0162671Y0207994D01*
X0162704Y0207936D01*
X0162734Y0207875D01*
X0162761Y0207813D01*
X0162785Y0207749D01*
X0162804Y0207684D01*
X0162821Y0207619D01*
X0162834Y0207552D01*
X0162843Y0207485D01*
X0162848Y0207418D01*
X0162850Y0207350D01*
X0162850Y0206100D01*
X0158350Y0206100D01*
X0158350Y0207350D01*
X0158352Y0207418D01*
X0158357Y0207485D01*
X0158366Y0207552D01*
X0158379Y0207619D01*
X0158396Y0207684D01*
X0158415Y0207749D01*
X0158439Y0207813D01*
X0158466Y0207875D01*
X0158496Y0207936D01*
X0158529Y0207994D01*
X0158565Y0208051D01*
X0158605Y0208106D01*
X0158647Y0208159D01*
X0158693Y0208210D01*
X0158740Y0208257D01*
X0158791Y0208303D01*
X0158844Y0208345D01*
X0158899Y0208385D01*
X0158956Y0208421D01*
X0159014Y0208454D01*
X0159075Y0208484D01*
X0159137Y0208511D01*
X0159201Y0208535D01*
X0159266Y0208554D01*
X0159331Y0208571D01*
X0159398Y0208584D01*
X0159465Y0208593D01*
X0159532Y0208598D01*
X0159600Y0208600D01*
X0158350Y0204210D02*
X0158350Y0202210D01*
X0162850Y0202210D01*
X0162850Y0204210D01*
X0160350Y0203710D02*
X0160350Y0202210D01*
X0162850Y0200310D02*
X0162850Y0198310D01*
X0158350Y0198310D01*
X0197750Y0136750D02*
X0198750Y0136750D01*
X0197750Y0136750D02*
X0197690Y0136748D01*
X0197629Y0136743D01*
X0197570Y0136734D01*
X0197511Y0136721D01*
X0197452Y0136705D01*
X0197395Y0136685D01*
X0197340Y0136662D01*
X0197285Y0136635D01*
X0197233Y0136606D01*
X0197182Y0136573D01*
X0197133Y0136537D01*
X0197087Y0136499D01*
X0197043Y0136457D01*
X0197001Y0136413D01*
X0196963Y0136367D01*
X0196927Y0136318D01*
X0196894Y0136267D01*
X0196865Y0136215D01*
X0196838Y0136160D01*
X0196815Y0136105D01*
X0196795Y0136048D01*
X0196779Y0135989D01*
X0196766Y0135930D01*
X0196757Y0135871D01*
X0196752Y0135810D01*
X0196750Y0135750D01*
X0196750Y0133250D01*
X0196752Y0133190D01*
X0196757Y0133129D01*
X0196766Y0133070D01*
X0196779Y0133011D01*
X0196795Y0132952D01*
X0196815Y0132895D01*
X0196838Y0132840D01*
X0196865Y0132785D01*
X0196894Y0132733D01*
X0196927Y0132682D01*
X0196963Y0132633D01*
X0197001Y0132587D01*
X0197043Y0132543D01*
X0197087Y0132501D01*
X0197133Y0132463D01*
X0197182Y0132427D01*
X0197233Y0132394D01*
X0197285Y0132365D01*
X0197340Y0132338D01*
X0197395Y0132315D01*
X0197452Y0132295D01*
X0197511Y0132279D01*
X0197570Y0132266D01*
X0197629Y0132257D01*
X0197690Y0132252D01*
X0197750Y0132250D01*
X0198750Y0132250D01*
X0200515Y0132250D02*
X0203015Y0132250D01*
X0201765Y0132250D02*
X0201765Y0136750D01*
X0200515Y0135750D01*
X0224985Y0114750D02*
X0225985Y0114750D01*
X0224985Y0114750D02*
X0224925Y0114748D01*
X0224864Y0114743D01*
X0224805Y0114734D01*
X0224746Y0114721D01*
X0224687Y0114705D01*
X0224630Y0114685D01*
X0224575Y0114662D01*
X0224520Y0114635D01*
X0224468Y0114606D01*
X0224417Y0114573D01*
X0224368Y0114537D01*
X0224322Y0114499D01*
X0224278Y0114457D01*
X0224236Y0114413D01*
X0224198Y0114367D01*
X0224162Y0114318D01*
X0224129Y0114267D01*
X0224100Y0114215D01*
X0224073Y0114160D01*
X0224050Y0114105D01*
X0224030Y0114048D01*
X0224014Y0113989D01*
X0224001Y0113930D01*
X0223992Y0113871D01*
X0223987Y0113810D01*
X0223985Y0113750D01*
X0223985Y0111250D01*
X0223987Y0111190D01*
X0223992Y0111129D01*
X0224001Y0111070D01*
X0224014Y0111011D01*
X0224030Y0110952D01*
X0224050Y0110895D01*
X0224073Y0110840D01*
X0224100Y0110785D01*
X0224129Y0110733D01*
X0224162Y0110682D01*
X0224198Y0110633D01*
X0224236Y0110587D01*
X0224278Y0110543D01*
X0224322Y0110501D01*
X0224368Y0110463D01*
X0224417Y0110427D01*
X0224468Y0110394D01*
X0224520Y0110365D01*
X0224575Y0110338D01*
X0224630Y0110315D01*
X0224687Y0110295D01*
X0224746Y0110279D01*
X0224805Y0110266D01*
X0224864Y0110257D01*
X0224925Y0110252D01*
X0224985Y0110250D01*
X0225985Y0110250D01*
X0227750Y0110250D02*
X0230250Y0110250D01*
X0227750Y0110250D02*
X0229875Y0112750D01*
X0229125Y0114750D02*
X0229052Y0114748D01*
X0228980Y0114743D01*
X0228908Y0114734D01*
X0228836Y0114721D01*
X0228765Y0114705D01*
X0228695Y0114685D01*
X0228627Y0114661D01*
X0228559Y0114635D01*
X0228493Y0114604D01*
X0228428Y0114571D01*
X0228366Y0114534D01*
X0228305Y0114495D01*
X0228246Y0114452D01*
X0228189Y0114406D01*
X0228135Y0114358D01*
X0228084Y0114307D01*
X0228034Y0114253D01*
X0227988Y0114197D01*
X0227945Y0114139D01*
X0227904Y0114078D01*
X0227867Y0114016D01*
X0227833Y0113952D01*
X0227802Y0113886D01*
X0227774Y0113819D01*
X0227750Y0113750D01*
X0229875Y0112750D02*
X0229921Y0112796D01*
X0229965Y0112845D01*
X0230005Y0112896D01*
X0230043Y0112949D01*
X0230078Y0113004D01*
X0230110Y0113061D01*
X0230139Y0113119D01*
X0230165Y0113179D01*
X0230187Y0113241D01*
X0230206Y0113303D01*
X0230222Y0113366D01*
X0230234Y0113430D01*
X0230243Y0113495D01*
X0230248Y0113560D01*
X0230250Y0113625D01*
X0230248Y0113690D01*
X0230242Y0113756D01*
X0230233Y0113820D01*
X0230220Y0113884D01*
X0230203Y0113948D01*
X0230182Y0114010D01*
X0230158Y0114071D01*
X0230130Y0114130D01*
X0230099Y0114188D01*
X0230065Y0114243D01*
X0230027Y0114297D01*
X0229987Y0114348D01*
X0229943Y0114397D01*
X0229897Y0114443D01*
X0229848Y0114487D01*
X0229797Y0114527D01*
X0229743Y0114565D01*
X0229688Y0114599D01*
X0229630Y0114630D01*
X0229571Y0114658D01*
X0229510Y0114682D01*
X0229448Y0114703D01*
X0229384Y0114720D01*
X0229320Y0114733D01*
X0229256Y0114742D01*
X0229190Y0114748D01*
X0229125Y0114750D01*
X0264500Y0094248D02*
X0264500Y0077752D01*
X0270500Y0080472D02*
X0270500Y0081528D01*
X0266622Y0076454D02*
X0266397Y0076561D01*
X0266174Y0076673D01*
X0265954Y0076790D01*
X0265737Y0076912D01*
X0265522Y0077040D01*
X0265311Y0077173D01*
X0265103Y0077310D01*
X0264899Y0077453D01*
X0264697Y0077600D01*
X0264500Y0077752D01*
X0275472Y0076500D02*
X0275702Y0076612D01*
X0275929Y0076729D01*
X0276153Y0076851D01*
X0276374Y0076979D01*
X0276591Y0077113D01*
X0276806Y0077251D01*
X0277017Y0077395D01*
X0277224Y0077544D01*
X0277428Y0077698D01*
X0277628Y0077856D01*
X0277824Y0078020D01*
X0278016Y0078188D01*
X0278204Y0078361D01*
X0278388Y0078539D01*
X0278567Y0078720D01*
X0278742Y0078907D01*
X0278912Y0079097D01*
X0279077Y0079291D01*
X0279238Y0079490D01*
X0279394Y0079692D01*
X0279545Y0079898D01*
X0279691Y0080108D01*
X0279831Y0080321D01*
X0279967Y0080537D01*
X0280097Y0080757D01*
X0280222Y0080980D01*
X0280341Y0081205D01*
X0280455Y0081434D01*
X0280563Y0081665D01*
X0280666Y0081899D01*
X0280763Y0082135D01*
X0280854Y0082374D01*
X0280939Y0082614D01*
X0281019Y0082857D01*
X0281092Y0083102D01*
X0281160Y0083348D01*
X0281221Y0083596D01*
X0281276Y0083845D01*
X0281326Y0084095D01*
X0281369Y0084347D01*
X0281406Y0084600D01*
X0281437Y0084853D01*
X0281462Y0085107D01*
X0281481Y0085362D01*
X0281493Y0085617D01*
X0281499Y0085872D01*
X0281499Y0086128D01*
X0281493Y0086383D01*
X0281481Y0086638D01*
X0281462Y0086893D01*
X0281437Y0087147D01*
X0281406Y0087400D01*
X0281369Y0087653D01*
X0281326Y0087905D01*
X0281276Y0088155D01*
X0281221Y0088404D01*
X0281160Y0088652D01*
X0281092Y0088898D01*
X0281019Y0089143D01*
X0280939Y0089386D01*
X0280854Y0089626D01*
X0280763Y0089865D01*
X0280666Y0090101D01*
X0280563Y0090335D01*
X0280455Y0090566D01*
X0280341Y0090795D01*
X0280222Y0091020D01*
X0280097Y0091243D01*
X0279967Y0091463D01*
X0279831Y0091679D01*
X0279691Y0091892D01*
X0279545Y0092102D01*
X0279394Y0092308D01*
X0279238Y0092510D01*
X0279077Y0092709D01*
X0278912Y0092903D01*
X0278742Y0093093D01*
X0278567Y0093280D01*
X0278388Y0093461D01*
X0278204Y0093639D01*
X0278016Y0093812D01*
X0277824Y0093980D01*
X0277628Y0094144D01*
X0277428Y0094302D01*
X0277224Y0094456D01*
X0277017Y0094605D01*
X0276806Y0094749D01*
X0276591Y0094887D01*
X0276374Y0095021D01*
X0276153Y0095149D01*
X0275929Y0095271D01*
X0275702Y0095388D01*
X0275472Y0095500D01*
X0270500Y0091528D02*
X0270500Y0090472D01*
X0266528Y0095502D02*
X0266313Y0095398D01*
X0266100Y0095289D01*
X0265890Y0095175D01*
X0265683Y0095056D01*
X0265478Y0094933D01*
X0265276Y0094805D01*
X0265077Y0094672D01*
X0264882Y0094535D01*
X0264689Y0094394D01*
X0264500Y0094248D01*
X0283250Y0094500D02*
X0287750Y0094500D01*
X0287750Y0093250D02*
X0287750Y0095750D01*
X0284250Y0093250D02*
X0283250Y0094500D01*
X0284500Y0091395D02*
X0286500Y0091395D01*
X0286750Y0090895D02*
X0287750Y0091895D01*
X0286500Y0091395D02*
X0286569Y0091393D01*
X0286638Y0091387D01*
X0286706Y0091378D01*
X0286773Y0091365D01*
X0286840Y0091348D01*
X0286906Y0091327D01*
X0286970Y0091303D01*
X0287033Y0091275D01*
X0287095Y0091244D01*
X0287155Y0091210D01*
X0287212Y0091172D01*
X0287268Y0091131D01*
X0287321Y0091088D01*
X0287372Y0091041D01*
X0287420Y0090992D01*
X0287465Y0090940D01*
X0287507Y0090885D01*
X0287546Y0090829D01*
X0287583Y0090770D01*
X0287615Y0090709D01*
X0287645Y0090647D01*
X0287671Y0090583D01*
X0287693Y0090518D01*
X0287712Y0090452D01*
X0287727Y0090385D01*
X0287738Y0090317D01*
X0287746Y0090248D01*
X0287750Y0090179D01*
X0287750Y0090111D01*
X0287746Y0090042D01*
X0287738Y0089973D01*
X0287727Y0089905D01*
X0287712Y0089838D01*
X0287693Y0089772D01*
X0287671Y0089707D01*
X0287645Y0089643D01*
X0287615Y0089581D01*
X0287583Y0089520D01*
X0287546Y0089461D01*
X0287507Y0089405D01*
X0287465Y0089350D01*
X0287420Y0089298D01*
X0287372Y0089249D01*
X0287321Y0089202D01*
X0287268Y0089159D01*
X0287212Y0089118D01*
X0287155Y0089080D01*
X0287095Y0089046D01*
X0287033Y0089015D01*
X0286970Y0088987D01*
X0286906Y0088963D01*
X0286840Y0088942D01*
X0286773Y0088925D01*
X0286706Y0088912D01*
X0286638Y0088903D01*
X0286569Y0088897D01*
X0286500Y0088895D01*
X0284500Y0088895D01*
X0284431Y0088897D01*
X0284362Y0088903D01*
X0284294Y0088912D01*
X0284227Y0088925D01*
X0284160Y0088942D01*
X0284094Y0088963D01*
X0284030Y0088987D01*
X0283967Y0089015D01*
X0283905Y0089046D01*
X0283845Y0089080D01*
X0283788Y0089118D01*
X0283732Y0089159D01*
X0283679Y0089202D01*
X0283628Y0089249D01*
X0283580Y0089298D01*
X0283535Y0089350D01*
X0283493Y0089405D01*
X0283454Y0089461D01*
X0283417Y0089520D01*
X0283385Y0089581D01*
X0283355Y0089643D01*
X0283329Y0089707D01*
X0283307Y0089772D01*
X0283288Y0089838D01*
X0283273Y0089905D01*
X0283262Y0089973D01*
X0283254Y0090042D01*
X0283250Y0090111D01*
X0283250Y0090179D01*
X0283254Y0090248D01*
X0283262Y0090317D01*
X0283273Y0090385D01*
X0283288Y0090452D01*
X0283307Y0090518D01*
X0283329Y0090583D01*
X0283355Y0090647D01*
X0283385Y0090709D01*
X0283417Y0090770D01*
X0283454Y0090829D01*
X0283493Y0090885D01*
X0283535Y0090940D01*
X0283580Y0090992D01*
X0283628Y0091041D01*
X0283679Y0091088D01*
X0283732Y0091131D01*
X0283788Y0091172D01*
X0283845Y0091210D01*
X0283905Y0091244D01*
X0283967Y0091275D01*
X0284030Y0091303D01*
X0284094Y0091327D01*
X0284160Y0091348D01*
X0284227Y0091365D01*
X0284294Y0091378D01*
X0284362Y0091387D01*
X0284431Y0091393D01*
X0284500Y0091395D01*
X0182750Y0091895D02*
X0181750Y0090895D01*
X0181500Y0091395D02*
X0179500Y0091395D01*
X0179431Y0091393D01*
X0179362Y0091387D01*
X0179294Y0091378D01*
X0179227Y0091365D01*
X0179160Y0091348D01*
X0179094Y0091327D01*
X0179030Y0091303D01*
X0178967Y0091275D01*
X0178905Y0091244D01*
X0178845Y0091210D01*
X0178788Y0091172D01*
X0178732Y0091131D01*
X0178679Y0091088D01*
X0178628Y0091041D01*
X0178580Y0090992D01*
X0178535Y0090940D01*
X0178493Y0090885D01*
X0178454Y0090829D01*
X0178417Y0090770D01*
X0178385Y0090709D01*
X0178355Y0090647D01*
X0178329Y0090583D01*
X0178307Y0090518D01*
X0178288Y0090452D01*
X0178273Y0090385D01*
X0178262Y0090317D01*
X0178254Y0090248D01*
X0178250Y0090179D01*
X0178250Y0090111D01*
X0178254Y0090042D01*
X0178262Y0089973D01*
X0178273Y0089905D01*
X0178288Y0089838D01*
X0178307Y0089772D01*
X0178329Y0089707D01*
X0178355Y0089643D01*
X0178385Y0089581D01*
X0178417Y0089520D01*
X0178454Y0089461D01*
X0178493Y0089405D01*
X0178535Y0089350D01*
X0178580Y0089298D01*
X0178628Y0089249D01*
X0178679Y0089202D01*
X0178732Y0089159D01*
X0178788Y0089118D01*
X0178845Y0089080D01*
X0178905Y0089046D01*
X0178967Y0089015D01*
X0179030Y0088987D01*
X0179094Y0088963D01*
X0179160Y0088942D01*
X0179227Y0088925D01*
X0179294Y0088912D01*
X0179362Y0088903D01*
X0179431Y0088897D01*
X0179500Y0088895D01*
X0181500Y0088895D01*
X0181569Y0088897D01*
X0181638Y0088903D01*
X0181706Y0088912D01*
X0181773Y0088925D01*
X0181840Y0088942D01*
X0181906Y0088963D01*
X0181970Y0088987D01*
X0182033Y0089015D01*
X0182095Y0089046D01*
X0182155Y0089080D01*
X0182212Y0089118D01*
X0182268Y0089159D01*
X0182321Y0089202D01*
X0182372Y0089249D01*
X0182420Y0089298D01*
X0182465Y0089350D01*
X0182507Y0089405D01*
X0182546Y0089461D01*
X0182583Y0089520D01*
X0182615Y0089581D01*
X0182645Y0089643D01*
X0182671Y0089707D01*
X0182693Y0089772D01*
X0182712Y0089838D01*
X0182727Y0089905D01*
X0182738Y0089973D01*
X0182746Y0090042D01*
X0182750Y0090111D01*
X0182750Y0090179D01*
X0182746Y0090248D01*
X0182738Y0090317D01*
X0182727Y0090385D01*
X0182712Y0090452D01*
X0182693Y0090518D01*
X0182671Y0090583D01*
X0182645Y0090647D01*
X0182615Y0090709D01*
X0182583Y0090770D01*
X0182546Y0090829D01*
X0182507Y0090885D01*
X0182465Y0090940D01*
X0182420Y0090992D01*
X0182372Y0091041D01*
X0182321Y0091088D01*
X0182268Y0091131D01*
X0182212Y0091172D01*
X0182155Y0091210D01*
X0182095Y0091244D01*
X0182033Y0091275D01*
X0181970Y0091303D01*
X0181906Y0091327D01*
X0181840Y0091348D01*
X0181773Y0091365D01*
X0181706Y0091378D01*
X0181638Y0091387D01*
X0181569Y0091393D01*
X0181500Y0091395D01*
X0182750Y0093250D02*
X0182750Y0095750D01*
X0182750Y0093250D02*
X0180250Y0095375D01*
X0178250Y0094625D02*
X0178252Y0094552D01*
X0178257Y0094480D01*
X0178266Y0094408D01*
X0178279Y0094336D01*
X0178295Y0094265D01*
X0178315Y0094195D01*
X0178339Y0094127D01*
X0178365Y0094059D01*
X0178396Y0093993D01*
X0178429Y0093928D01*
X0178466Y0093866D01*
X0178505Y0093805D01*
X0178548Y0093746D01*
X0178594Y0093689D01*
X0178642Y0093635D01*
X0178693Y0093584D01*
X0178747Y0093534D01*
X0178803Y0093488D01*
X0178861Y0093445D01*
X0178922Y0093404D01*
X0178984Y0093367D01*
X0179048Y0093333D01*
X0179114Y0093302D01*
X0179181Y0093274D01*
X0179250Y0093250D01*
X0180250Y0095375D02*
X0180204Y0095421D01*
X0180155Y0095465D01*
X0180104Y0095505D01*
X0180051Y0095543D01*
X0179996Y0095578D01*
X0179939Y0095610D01*
X0179881Y0095639D01*
X0179821Y0095665D01*
X0179759Y0095687D01*
X0179697Y0095706D01*
X0179634Y0095722D01*
X0179570Y0095734D01*
X0179505Y0095743D01*
X0179440Y0095748D01*
X0179375Y0095750D01*
X0179310Y0095748D01*
X0179244Y0095742D01*
X0179180Y0095733D01*
X0179116Y0095720D01*
X0179052Y0095703D01*
X0178990Y0095682D01*
X0178929Y0095658D01*
X0178870Y0095630D01*
X0178813Y0095599D01*
X0178757Y0095565D01*
X0178703Y0095527D01*
X0178652Y0095487D01*
X0178603Y0095443D01*
X0178557Y0095397D01*
X0178513Y0095348D01*
X0178473Y0095297D01*
X0178435Y0095243D01*
X0178401Y0095188D01*
X0178370Y0095130D01*
X0178342Y0095071D01*
X0178318Y0095010D01*
X0178297Y0094948D01*
X0178280Y0094884D01*
X0178267Y0094820D01*
X0178258Y0094756D01*
X0178252Y0094690D01*
X0178250Y0094625D01*
X0165500Y0091528D02*
X0165500Y0090472D01*
X0161528Y0095502D02*
X0161313Y0095398D01*
X0161100Y0095289D01*
X0160890Y0095175D01*
X0160683Y0095056D01*
X0160478Y0094933D01*
X0160276Y0094805D01*
X0160077Y0094672D01*
X0159882Y0094535D01*
X0159689Y0094394D01*
X0159500Y0094248D01*
X0159500Y0077752D01*
X0165500Y0080472D02*
X0165500Y0081528D01*
X0161622Y0076454D02*
X0161397Y0076561D01*
X0161174Y0076673D01*
X0160954Y0076790D01*
X0160737Y0076912D01*
X0160522Y0077040D01*
X0160311Y0077173D01*
X0160103Y0077310D01*
X0159899Y0077453D01*
X0159697Y0077600D01*
X0159500Y0077752D01*
X0170472Y0076500D02*
X0170702Y0076612D01*
X0170929Y0076729D01*
X0171153Y0076851D01*
X0171374Y0076979D01*
X0171591Y0077113D01*
X0171806Y0077251D01*
X0172017Y0077395D01*
X0172224Y0077544D01*
X0172428Y0077698D01*
X0172628Y0077856D01*
X0172824Y0078020D01*
X0173016Y0078188D01*
X0173204Y0078361D01*
X0173388Y0078539D01*
X0173567Y0078720D01*
X0173742Y0078907D01*
X0173912Y0079097D01*
X0174077Y0079291D01*
X0174238Y0079490D01*
X0174394Y0079692D01*
X0174545Y0079898D01*
X0174691Y0080108D01*
X0174831Y0080321D01*
X0174967Y0080537D01*
X0175097Y0080757D01*
X0175222Y0080980D01*
X0175341Y0081205D01*
X0175455Y0081434D01*
X0175563Y0081665D01*
X0175666Y0081899D01*
X0175763Y0082135D01*
X0175854Y0082374D01*
X0175939Y0082614D01*
X0176019Y0082857D01*
X0176092Y0083102D01*
X0176160Y0083348D01*
X0176221Y0083596D01*
X0176276Y0083845D01*
X0176326Y0084095D01*
X0176369Y0084347D01*
X0176406Y0084600D01*
X0176437Y0084853D01*
X0176462Y0085107D01*
X0176481Y0085362D01*
X0176493Y0085617D01*
X0176499Y0085872D01*
X0176499Y0086128D01*
X0176493Y0086383D01*
X0176481Y0086638D01*
X0176462Y0086893D01*
X0176437Y0087147D01*
X0176406Y0087400D01*
X0176369Y0087653D01*
X0176326Y0087905D01*
X0176276Y0088155D01*
X0176221Y0088404D01*
X0176160Y0088652D01*
X0176092Y0088898D01*
X0176019Y0089143D01*
X0175939Y0089386D01*
X0175854Y0089626D01*
X0175763Y0089865D01*
X0175666Y0090101D01*
X0175563Y0090335D01*
X0175455Y0090566D01*
X0175341Y0090795D01*
X0175222Y0091020D01*
X0175097Y0091243D01*
X0174967Y0091463D01*
X0174831Y0091679D01*
X0174691Y0091892D01*
X0174545Y0092102D01*
X0174394Y0092308D01*
X0174238Y0092510D01*
X0174077Y0092709D01*
X0173912Y0092903D01*
X0173742Y0093093D01*
X0173567Y0093280D01*
X0173388Y0093461D01*
X0173204Y0093639D01*
X0173016Y0093812D01*
X0172824Y0093980D01*
X0172628Y0094144D01*
X0172428Y0094302D01*
X0172224Y0094456D01*
X0172017Y0094605D01*
X0171806Y0094749D01*
X0171591Y0094887D01*
X0171374Y0095021D01*
X0171153Y0095149D01*
X0170929Y0095271D01*
X0170702Y0095388D01*
X0170472Y0095500D01*
X0263350Y0198310D02*
X0267850Y0198310D01*
X0267850Y0200310D01*
X0267850Y0202210D02*
X0263350Y0202210D01*
X0263350Y0204210D01*
X0263350Y0206100D02*
X0263350Y0207350D01*
X0263352Y0207418D01*
X0263357Y0207485D01*
X0263366Y0207552D01*
X0263379Y0207619D01*
X0263396Y0207684D01*
X0263415Y0207749D01*
X0263439Y0207813D01*
X0263466Y0207875D01*
X0263496Y0207936D01*
X0263529Y0207994D01*
X0263565Y0208051D01*
X0263605Y0208106D01*
X0263647Y0208159D01*
X0263693Y0208210D01*
X0263740Y0208257D01*
X0263791Y0208303D01*
X0263844Y0208345D01*
X0263899Y0208385D01*
X0263956Y0208421D01*
X0264014Y0208454D01*
X0264075Y0208484D01*
X0264137Y0208511D01*
X0264201Y0208535D01*
X0264266Y0208554D01*
X0264331Y0208571D01*
X0264398Y0208584D01*
X0264465Y0208593D01*
X0264532Y0208598D01*
X0264600Y0208600D01*
X0266600Y0208600D01*
X0266668Y0208598D01*
X0266735Y0208593D01*
X0266802Y0208584D01*
X0266869Y0208571D01*
X0266934Y0208554D01*
X0266999Y0208535D01*
X0267063Y0208511D01*
X0267125Y0208484D01*
X0267186Y0208454D01*
X0267244Y0208421D01*
X0267301Y0208385D01*
X0267356Y0208345D01*
X0267409Y0208303D01*
X0267460Y0208257D01*
X0267507Y0208210D01*
X0267553Y0208159D01*
X0267595Y0208106D01*
X0267635Y0208051D01*
X0267671Y0207994D01*
X0267704Y0207936D01*
X0267734Y0207875D01*
X0267761Y0207813D01*
X0267785Y0207749D01*
X0267804Y0207684D01*
X0267821Y0207619D01*
X0267834Y0207552D01*
X0267843Y0207485D01*
X0267848Y0207418D01*
X0267850Y0207350D01*
X0267850Y0206100D01*
X0263350Y0206100D01*
X0265350Y0203710D02*
X0265350Y0202210D01*
X0267850Y0202210D02*
X0267850Y0204210D01*
X0267850Y0210750D02*
X0267850Y0213250D01*
X0267850Y0212000D02*
X0263350Y0212000D01*
X0264350Y0210750D01*
D13*
X0268500Y0216000D02*
X0253500Y0216000D01*
X0163500Y0216000D02*
X0148500Y0216000D01*
D14*
X0148257Y0216187D01*
X0148019Y0216379D01*
X0147786Y0216578D01*
X0147558Y0216782D01*
X0147335Y0216991D01*
X0147117Y0217206D01*
X0146904Y0217426D01*
X0146697Y0217651D01*
X0146495Y0217882D01*
X0146299Y0218117D01*
X0146109Y0218357D01*
X0145925Y0218601D01*
X0145747Y0218850D01*
X0145575Y0219104D01*
X0145409Y0219361D01*
X0145249Y0219622D01*
X0145096Y0219887D01*
X0144950Y0220156D01*
X0144810Y0220429D01*
X0144677Y0220704D01*
X0144551Y0220983D01*
X0144431Y0221265D01*
X0144319Y0221550D01*
X0144214Y0221837D01*
X0144115Y0222127D01*
X0144024Y0222419D01*
X0143940Y0222714D01*
X0143863Y0223010D01*
X0143793Y0223308D01*
X0143731Y0223608D01*
X0143676Y0223909D01*
X0143629Y0224211D01*
X0143589Y0224515D01*
X0143556Y0224819D01*
X0143531Y0225124D01*
X0143513Y0225430D01*
X0143503Y0225736D01*
X0143500Y0226042D01*
X0143505Y0226348D01*
X0143517Y0226654D01*
X0143537Y0226960D01*
X0143564Y0227264D01*
X0143599Y0227569D01*
X0143641Y0227872D01*
X0143690Y0228174D01*
X0143747Y0228475D01*
X0143812Y0228774D01*
X0143883Y0229072D01*
X0143962Y0229367D01*
X0144048Y0229661D01*
X0144141Y0229953D01*
X0144242Y0230242D01*
X0144349Y0230529D01*
X0144464Y0230813D01*
X0144585Y0231094D01*
X0144713Y0231372D01*
X0144848Y0231647D01*
X0144990Y0231918D01*
X0145138Y0232186D01*
X0145293Y0232450D01*
X0145454Y0232710D01*
X0145621Y0232966D01*
X0145795Y0233219D01*
X0145975Y0233466D01*
X0146161Y0233710D01*
X0146352Y0233948D01*
X0146550Y0234182D01*
X0146753Y0234411D01*
X0146962Y0234635D01*
X0147176Y0234854D01*
X0147396Y0235067D01*
X0147620Y0235275D01*
X0147850Y0235478D01*
X0148084Y0235674D01*
X0148324Y0235865D01*
X0148567Y0236050D01*
X0148816Y0236229D01*
X0149068Y0236402D01*
X0149325Y0236569D01*
X0149586Y0236729D01*
X0149851Y0236883D01*
X0150119Y0237030D01*
X0150391Y0237171D01*
X0150666Y0237305D01*
X0150945Y0237432D01*
X0151226Y0237553D01*
X0151511Y0237666D01*
X0151798Y0237772D01*
X0152087Y0237872D01*
X0152379Y0237964D01*
X0152673Y0238049D01*
X0152969Y0238127D01*
X0153267Y0238198D01*
X0153567Y0238261D01*
X0153868Y0238317D01*
X0154170Y0238365D01*
X0154473Y0238406D01*
X0154777Y0238440D01*
X0155082Y0238466D01*
X0155388Y0238485D01*
X0155694Y0238496D01*
X0156000Y0238500D01*
X0156306Y0238496D01*
X0156612Y0238485D01*
X0156918Y0238466D01*
X0157223Y0238440D01*
X0157527Y0238406D01*
X0157830Y0238365D01*
X0158132Y0238317D01*
X0158433Y0238261D01*
X0158733Y0238198D01*
X0159031Y0238127D01*
X0159327Y0238049D01*
X0159621Y0237964D01*
X0159913Y0237872D01*
X0160202Y0237772D01*
X0160489Y0237666D01*
X0160774Y0237553D01*
X0161055Y0237432D01*
X0161334Y0237305D01*
X0161609Y0237171D01*
X0161881Y0237030D01*
X0162149Y0236883D01*
X0162414Y0236729D01*
X0162675Y0236569D01*
X0162932Y0236402D01*
X0163184Y0236229D01*
X0163433Y0236050D01*
X0163676Y0235865D01*
X0163916Y0235674D01*
X0164150Y0235478D01*
X0164380Y0235275D01*
X0164604Y0235067D01*
X0164824Y0234854D01*
X0165038Y0234635D01*
X0165247Y0234411D01*
X0165450Y0234182D01*
X0165648Y0233948D01*
X0165839Y0233710D01*
X0166025Y0233466D01*
X0166205Y0233219D01*
X0166379Y0232966D01*
X0166546Y0232710D01*
X0166707Y0232450D01*
X0166862Y0232186D01*
X0167010Y0231918D01*
X0167152Y0231647D01*
X0167287Y0231372D01*
X0167415Y0231094D01*
X0167536Y0230813D01*
X0167651Y0230529D01*
X0167758Y0230242D01*
X0167859Y0229953D01*
X0167952Y0229661D01*
X0168038Y0229367D01*
X0168117Y0229072D01*
X0168188Y0228774D01*
X0168253Y0228475D01*
X0168310Y0228174D01*
X0168359Y0227872D01*
X0168401Y0227569D01*
X0168436Y0227264D01*
X0168463Y0226960D01*
X0168483Y0226654D01*
X0168495Y0226348D01*
X0168500Y0226042D01*
X0168497Y0225736D01*
X0168487Y0225430D01*
X0168469Y0225124D01*
X0168444Y0224819D01*
X0168411Y0224515D01*
X0168371Y0224211D01*
X0168324Y0223909D01*
X0168269Y0223608D01*
X0168207Y0223308D01*
X0168137Y0223010D01*
X0168060Y0222714D01*
X0167976Y0222419D01*
X0167885Y0222127D01*
X0167786Y0221837D01*
X0167681Y0221550D01*
X0167569Y0221265D01*
X0167449Y0220983D01*
X0167323Y0220704D01*
X0167190Y0220429D01*
X0167050Y0220156D01*
X0166904Y0219887D01*
X0166751Y0219622D01*
X0166591Y0219361D01*
X0166425Y0219104D01*
X0166253Y0218850D01*
X0166075Y0218601D01*
X0165891Y0218357D01*
X0165701Y0218117D01*
X0165505Y0217882D01*
X0165303Y0217651D01*
X0165096Y0217426D01*
X0164883Y0217206D01*
X0164665Y0216991D01*
X0164442Y0216782D01*
X0164214Y0216578D01*
X0163981Y0216379D01*
X0163743Y0216187D01*
X0163500Y0216000D01*
X0253500Y0216000D02*
X0253257Y0216187D01*
X0253019Y0216379D01*
X0252786Y0216578D01*
X0252558Y0216782D01*
X0252335Y0216991D01*
X0252117Y0217206D01*
X0251904Y0217426D01*
X0251697Y0217651D01*
X0251495Y0217882D01*
X0251299Y0218117D01*
X0251109Y0218357D01*
X0250925Y0218601D01*
X0250747Y0218850D01*
X0250575Y0219104D01*
X0250409Y0219361D01*
X0250249Y0219622D01*
X0250096Y0219887D01*
X0249950Y0220156D01*
X0249810Y0220429D01*
X0249677Y0220704D01*
X0249551Y0220983D01*
X0249431Y0221265D01*
X0249319Y0221550D01*
X0249214Y0221837D01*
X0249115Y0222127D01*
X0249024Y0222419D01*
X0248940Y0222714D01*
X0248863Y0223010D01*
X0248793Y0223308D01*
X0248731Y0223608D01*
X0248676Y0223909D01*
X0248629Y0224211D01*
X0248589Y0224515D01*
X0248556Y0224819D01*
X0248531Y0225124D01*
X0248513Y0225430D01*
X0248503Y0225736D01*
X0248500Y0226042D01*
X0248505Y0226348D01*
X0248517Y0226654D01*
X0248537Y0226960D01*
X0248564Y0227264D01*
X0248599Y0227569D01*
X0248641Y0227872D01*
X0248690Y0228174D01*
X0248747Y0228475D01*
X0248812Y0228774D01*
X0248883Y0229072D01*
X0248962Y0229367D01*
X0249048Y0229661D01*
X0249141Y0229953D01*
X0249242Y0230242D01*
X0249349Y0230529D01*
X0249464Y0230813D01*
X0249585Y0231094D01*
X0249713Y0231372D01*
X0249848Y0231647D01*
X0249990Y0231918D01*
X0250138Y0232186D01*
X0250293Y0232450D01*
X0250454Y0232710D01*
X0250621Y0232966D01*
X0250795Y0233219D01*
X0250975Y0233466D01*
X0251161Y0233710D01*
X0251352Y0233948D01*
X0251550Y0234182D01*
X0251753Y0234411D01*
X0251962Y0234635D01*
X0252176Y0234854D01*
X0252396Y0235067D01*
X0252620Y0235275D01*
X0252850Y0235478D01*
X0253084Y0235674D01*
X0253324Y0235865D01*
X0253567Y0236050D01*
X0253816Y0236229D01*
X0254068Y0236402D01*
X0254325Y0236569D01*
X0254586Y0236729D01*
X0254851Y0236883D01*
X0255119Y0237030D01*
X0255391Y0237171D01*
X0255666Y0237305D01*
X0255945Y0237432D01*
X0256226Y0237553D01*
X0256511Y0237666D01*
X0256798Y0237772D01*
X0257087Y0237872D01*
X0257379Y0237964D01*
X0257673Y0238049D01*
X0257969Y0238127D01*
X0258267Y0238198D01*
X0258567Y0238261D01*
X0258868Y0238317D01*
X0259170Y0238365D01*
X0259473Y0238406D01*
X0259777Y0238440D01*
X0260082Y0238466D01*
X0260388Y0238485D01*
X0260694Y0238496D01*
X0261000Y0238500D01*
X0261306Y0238496D01*
X0261612Y0238485D01*
X0261918Y0238466D01*
X0262223Y0238440D01*
X0262527Y0238406D01*
X0262830Y0238365D01*
X0263132Y0238317D01*
X0263433Y0238261D01*
X0263733Y0238198D01*
X0264031Y0238127D01*
X0264327Y0238049D01*
X0264621Y0237964D01*
X0264913Y0237872D01*
X0265202Y0237772D01*
X0265489Y0237666D01*
X0265774Y0237553D01*
X0266055Y0237432D01*
X0266334Y0237305D01*
X0266609Y0237171D01*
X0266881Y0237030D01*
X0267149Y0236883D01*
X0267414Y0236729D01*
X0267675Y0236569D01*
X0267932Y0236402D01*
X0268184Y0236229D01*
X0268433Y0236050D01*
X0268676Y0235865D01*
X0268916Y0235674D01*
X0269150Y0235478D01*
X0269380Y0235275D01*
X0269604Y0235067D01*
X0269824Y0234854D01*
X0270038Y0234635D01*
X0270247Y0234411D01*
X0270450Y0234182D01*
X0270648Y0233948D01*
X0270839Y0233710D01*
X0271025Y0233466D01*
X0271205Y0233219D01*
X0271379Y0232966D01*
X0271546Y0232710D01*
X0271707Y0232450D01*
X0271862Y0232186D01*
X0272010Y0231918D01*
X0272152Y0231647D01*
X0272287Y0231372D01*
X0272415Y0231094D01*
X0272536Y0230813D01*
X0272651Y0230529D01*
X0272758Y0230242D01*
X0272859Y0229953D01*
X0272952Y0229661D01*
X0273038Y0229367D01*
X0273117Y0229072D01*
X0273188Y0228774D01*
X0273253Y0228475D01*
X0273310Y0228174D01*
X0273359Y0227872D01*
X0273401Y0227569D01*
X0273436Y0227264D01*
X0273463Y0226960D01*
X0273483Y0226654D01*
X0273495Y0226348D01*
X0273500Y0226042D01*
X0273497Y0225736D01*
X0273487Y0225430D01*
X0273469Y0225124D01*
X0273444Y0224819D01*
X0273411Y0224515D01*
X0273371Y0224211D01*
X0273324Y0223909D01*
X0273269Y0223608D01*
X0273207Y0223308D01*
X0273137Y0223010D01*
X0273060Y0222714D01*
X0272976Y0222419D01*
X0272885Y0222127D01*
X0272786Y0221837D01*
X0272681Y0221550D01*
X0272569Y0221265D01*
X0272449Y0220983D01*
X0272323Y0220704D01*
X0272190Y0220429D01*
X0272050Y0220156D01*
X0271904Y0219887D01*
X0271751Y0219622D01*
X0271591Y0219361D01*
X0271425Y0219104D01*
X0271253Y0218850D01*
X0271075Y0218601D01*
X0270891Y0218357D01*
X0270701Y0218117D01*
X0270505Y0217882D01*
X0270303Y0217651D01*
X0270096Y0217426D01*
X0269883Y0217206D01*
X0269665Y0216991D01*
X0269442Y0216782D01*
X0269214Y0216578D01*
X0268981Y0216379D01*
X0268743Y0216187D01*
X0268500Y0216000D01*
D15*
X0255422Y0163729D02*
X0255422Y0161784D01*
X0252700Y0162562D01*
X0254644Y0163145D02*
X0256200Y0163145D01*
X0256200Y0160244D02*
X0254644Y0159467D01*
X0254644Y0159272D02*
X0254644Y0158300D01*
X0254644Y0159272D02*
X0254642Y0159333D01*
X0254636Y0159394D01*
X0254627Y0159454D01*
X0254613Y0159514D01*
X0254596Y0159572D01*
X0254576Y0159630D01*
X0254551Y0159686D01*
X0254524Y0159740D01*
X0254493Y0159793D01*
X0254458Y0159843D01*
X0254421Y0159892D01*
X0254381Y0159937D01*
X0254337Y0159981D01*
X0254292Y0160021D01*
X0254243Y0160058D01*
X0254193Y0160093D01*
X0254140Y0160124D01*
X0254086Y0160151D01*
X0254030Y0160176D01*
X0253972Y0160196D01*
X0253914Y0160213D01*
X0253854Y0160227D01*
X0253794Y0160236D01*
X0253733Y0160242D01*
X0253672Y0160244D01*
X0253611Y0160242D01*
X0253550Y0160236D01*
X0253490Y0160227D01*
X0253430Y0160213D01*
X0253372Y0160196D01*
X0253314Y0160176D01*
X0253258Y0160151D01*
X0253204Y0160124D01*
X0253151Y0160093D01*
X0253101Y0160058D01*
X0253052Y0160021D01*
X0253007Y0159981D01*
X0252963Y0159937D01*
X0252923Y0159892D01*
X0252886Y0159843D01*
X0252851Y0159793D01*
X0252820Y0159740D01*
X0252793Y0159686D01*
X0252768Y0159630D01*
X0252748Y0159572D01*
X0252731Y0159514D01*
X0252717Y0159454D01*
X0252708Y0159394D01*
X0252702Y0159333D01*
X0252700Y0159272D01*
X0252700Y0158300D01*
X0256200Y0158300D01*
X0226200Y0158300D02*
X0222700Y0158300D01*
X0222700Y0159272D01*
X0222702Y0159333D01*
X0222708Y0159394D01*
X0222717Y0159454D01*
X0222731Y0159514D01*
X0222748Y0159572D01*
X0222768Y0159630D01*
X0222793Y0159686D01*
X0222820Y0159740D01*
X0222851Y0159793D01*
X0222886Y0159843D01*
X0222923Y0159892D01*
X0222963Y0159937D01*
X0223007Y0159981D01*
X0223052Y0160021D01*
X0223101Y0160058D01*
X0223151Y0160093D01*
X0223204Y0160124D01*
X0223258Y0160151D01*
X0223314Y0160176D01*
X0223372Y0160196D01*
X0223430Y0160213D01*
X0223490Y0160227D01*
X0223550Y0160236D01*
X0223611Y0160242D01*
X0223672Y0160244D01*
X0223733Y0160242D01*
X0223794Y0160236D01*
X0223854Y0160227D01*
X0223914Y0160213D01*
X0223972Y0160196D01*
X0224030Y0160176D01*
X0224086Y0160151D01*
X0224140Y0160124D01*
X0224193Y0160093D01*
X0224243Y0160058D01*
X0224292Y0160021D01*
X0224337Y0159981D01*
X0224381Y0159937D01*
X0224421Y0159892D01*
X0224458Y0159843D01*
X0224493Y0159793D01*
X0224524Y0159740D01*
X0224551Y0159686D01*
X0224576Y0159630D01*
X0224596Y0159572D01*
X0224613Y0159514D01*
X0224627Y0159454D01*
X0224636Y0159394D01*
X0224642Y0159333D01*
X0224644Y0159272D01*
X0224644Y0158300D01*
X0224644Y0159467D02*
X0226200Y0160244D01*
X0226200Y0161784D02*
X0226200Y0162756D01*
X0226198Y0162817D01*
X0226192Y0162878D01*
X0226183Y0162938D01*
X0226169Y0162998D01*
X0226152Y0163056D01*
X0226132Y0163114D01*
X0226107Y0163170D01*
X0226080Y0163224D01*
X0226049Y0163277D01*
X0226014Y0163327D01*
X0225977Y0163376D01*
X0225937Y0163421D01*
X0225893Y0163465D01*
X0225848Y0163505D01*
X0225799Y0163542D01*
X0225749Y0163577D01*
X0225696Y0163608D01*
X0225642Y0163635D01*
X0225586Y0163660D01*
X0225528Y0163680D01*
X0225470Y0163697D01*
X0225410Y0163711D01*
X0225350Y0163720D01*
X0225289Y0163726D01*
X0225228Y0163728D01*
X0225167Y0163726D01*
X0225106Y0163720D01*
X0225046Y0163711D01*
X0224986Y0163697D01*
X0224928Y0163680D01*
X0224870Y0163660D01*
X0224814Y0163635D01*
X0224760Y0163608D01*
X0224707Y0163577D01*
X0224657Y0163542D01*
X0224608Y0163505D01*
X0224563Y0163465D01*
X0224519Y0163421D01*
X0224479Y0163376D01*
X0224442Y0163327D01*
X0224407Y0163277D01*
X0224376Y0163224D01*
X0224349Y0163170D01*
X0224324Y0163114D01*
X0224304Y0163056D01*
X0224287Y0162998D01*
X0224273Y0162938D01*
X0224264Y0162878D01*
X0224258Y0162817D01*
X0224256Y0162756D01*
X0224256Y0162951D02*
X0224256Y0162173D01*
X0224256Y0162951D02*
X0224254Y0163007D01*
X0224248Y0163062D01*
X0224238Y0163116D01*
X0224224Y0163170D01*
X0224207Y0163223D01*
X0224186Y0163274D01*
X0224161Y0163324D01*
X0224132Y0163372D01*
X0224101Y0163417D01*
X0224066Y0163460D01*
X0224028Y0163501D01*
X0223987Y0163539D01*
X0223944Y0163574D01*
X0223899Y0163605D01*
X0223851Y0163634D01*
X0223801Y0163659D01*
X0223750Y0163680D01*
X0223697Y0163697D01*
X0223643Y0163711D01*
X0223589Y0163721D01*
X0223534Y0163727D01*
X0223478Y0163729D01*
X0223422Y0163727D01*
X0223367Y0163721D01*
X0223313Y0163711D01*
X0223259Y0163697D01*
X0223206Y0163680D01*
X0223155Y0163659D01*
X0223105Y0163634D01*
X0223057Y0163605D01*
X0223012Y0163574D01*
X0222969Y0163539D01*
X0222928Y0163501D01*
X0222890Y0163460D01*
X0222855Y0163417D01*
X0222824Y0163372D01*
X0222795Y0163324D01*
X0222770Y0163274D01*
X0222749Y0163223D01*
X0222732Y0163170D01*
X0222718Y0163116D01*
X0222708Y0163062D01*
X0222702Y0163007D01*
X0222700Y0162951D01*
X0222700Y0161784D01*
X0191200Y0161784D02*
X0191200Y0163729D01*
X0191200Y0161784D02*
X0189256Y0163437D01*
X0187700Y0162854D02*
X0187702Y0162790D01*
X0187707Y0162726D01*
X0187716Y0162662D01*
X0187729Y0162599D01*
X0187746Y0162537D01*
X0187765Y0162476D01*
X0187789Y0162416D01*
X0187815Y0162358D01*
X0187845Y0162301D01*
X0187879Y0162246D01*
X0187915Y0162193D01*
X0187954Y0162142D01*
X0187996Y0162094D01*
X0188041Y0162047D01*
X0188088Y0162004D01*
X0188138Y0161963D01*
X0188190Y0161926D01*
X0188244Y0161891D01*
X0188300Y0161859D01*
X0188358Y0161831D01*
X0188417Y0161806D01*
X0188478Y0161785D01*
X0189256Y0163437D02*
X0189214Y0163478D01*
X0189170Y0163517D01*
X0189123Y0163552D01*
X0189075Y0163585D01*
X0189024Y0163615D01*
X0188972Y0163641D01*
X0188918Y0163664D01*
X0188863Y0163684D01*
X0188807Y0163700D01*
X0188750Y0163713D01*
X0188692Y0163722D01*
X0188634Y0163727D01*
X0188575Y0163729D01*
X0188518Y0163727D01*
X0188461Y0163722D01*
X0188404Y0163712D01*
X0188349Y0163699D01*
X0188294Y0163683D01*
X0188240Y0163662D01*
X0188188Y0163639D01*
X0188138Y0163612D01*
X0188089Y0163582D01*
X0188042Y0163548D01*
X0187998Y0163512D01*
X0187956Y0163473D01*
X0187917Y0163431D01*
X0187881Y0163387D01*
X0187847Y0163340D01*
X0187817Y0163292D01*
X0187790Y0163241D01*
X0187767Y0163189D01*
X0187746Y0163135D01*
X0187730Y0163080D01*
X0187717Y0163025D01*
X0187707Y0162968D01*
X0187702Y0162911D01*
X0187700Y0162854D01*
X0187700Y0159272D02*
X0187700Y0158300D01*
X0191200Y0158300D01*
X0189644Y0158300D02*
X0189644Y0159272D01*
X0189644Y0159467D02*
X0191200Y0160244D01*
X0189644Y0159272D02*
X0189642Y0159333D01*
X0189636Y0159394D01*
X0189627Y0159454D01*
X0189613Y0159514D01*
X0189596Y0159572D01*
X0189576Y0159630D01*
X0189551Y0159686D01*
X0189524Y0159740D01*
X0189493Y0159793D01*
X0189458Y0159843D01*
X0189421Y0159892D01*
X0189381Y0159937D01*
X0189337Y0159981D01*
X0189292Y0160021D01*
X0189243Y0160058D01*
X0189193Y0160093D01*
X0189140Y0160124D01*
X0189086Y0160151D01*
X0189030Y0160176D01*
X0188972Y0160196D01*
X0188914Y0160213D01*
X0188854Y0160227D01*
X0188794Y0160236D01*
X0188733Y0160242D01*
X0188672Y0160244D01*
X0188611Y0160242D01*
X0188550Y0160236D01*
X0188490Y0160227D01*
X0188430Y0160213D01*
X0188372Y0160196D01*
X0188314Y0160176D01*
X0188258Y0160151D01*
X0188204Y0160124D01*
X0188151Y0160093D01*
X0188101Y0160058D01*
X0188052Y0160021D01*
X0188007Y0159981D01*
X0187963Y0159937D01*
X0187923Y0159892D01*
X0187886Y0159843D01*
X0187851Y0159793D01*
X0187820Y0159740D01*
X0187793Y0159686D01*
X0187768Y0159630D01*
X0187748Y0159572D01*
X0187731Y0159514D01*
X0187717Y0159454D01*
X0187708Y0159394D01*
X0187702Y0159333D01*
X0187700Y0159272D01*
X0151200Y0158300D02*
X0147700Y0158300D01*
X0147700Y0159272D01*
X0147702Y0159333D01*
X0147708Y0159394D01*
X0147717Y0159454D01*
X0147731Y0159514D01*
X0147748Y0159572D01*
X0147768Y0159630D01*
X0147793Y0159686D01*
X0147820Y0159740D01*
X0147851Y0159793D01*
X0147886Y0159843D01*
X0147923Y0159892D01*
X0147963Y0159937D01*
X0148007Y0159981D01*
X0148052Y0160021D01*
X0148101Y0160058D01*
X0148151Y0160093D01*
X0148204Y0160124D01*
X0148258Y0160151D01*
X0148314Y0160176D01*
X0148372Y0160196D01*
X0148430Y0160213D01*
X0148490Y0160227D01*
X0148550Y0160236D01*
X0148611Y0160242D01*
X0148672Y0160244D01*
X0148733Y0160242D01*
X0148794Y0160236D01*
X0148854Y0160227D01*
X0148914Y0160213D01*
X0148972Y0160196D01*
X0149030Y0160176D01*
X0149086Y0160151D01*
X0149140Y0160124D01*
X0149193Y0160093D01*
X0149243Y0160058D01*
X0149292Y0160021D01*
X0149337Y0159981D01*
X0149381Y0159937D01*
X0149421Y0159892D01*
X0149458Y0159843D01*
X0149493Y0159793D01*
X0149524Y0159740D01*
X0149551Y0159686D01*
X0149576Y0159630D01*
X0149596Y0159572D01*
X0149613Y0159514D01*
X0149627Y0159454D01*
X0149636Y0159394D01*
X0149642Y0159333D01*
X0149644Y0159272D01*
X0149644Y0158300D01*
X0149644Y0159467D02*
X0151200Y0160244D01*
X0151200Y0161784D02*
X0151200Y0163729D01*
X0151200Y0162756D02*
X0147700Y0162756D01*
X0148478Y0161784D01*
M02*
