%
M48
M72
T01C0.03200
T02C0.04000
%
T01
X166000Y76000
X166000Y86000
X166000Y96000
X181000Y126000
X191000Y126000
X196000Y156000
X196000Y176000
X231000Y176000
X231000Y156000
X261000Y156000
X261000Y176000
X261000Y221000
X261000Y231000
X156000Y231000
X156000Y221000
X156000Y176000
X156000Y156000
X236000Y121000
X246000Y121000
X271000Y96000
X271000Y86000
X271000Y76000
T02
X126000Y246000
X126000Y256000
M30
