%
M48
M72
T01C0.01378
T02C0.03200
T03C0.03937
%
T01
X82850Y87900
X108150Y49400
X92750Y38400
X138400Y79650
X143900Y98900
X160400Y85700
X182950Y96700
X194500Y86250
X176900Y112650
X174150Y119250
X162600Y115950
X149950Y136300
X138400Y139600
X138400Y130250
X105950Y181400
X87800Y209450
X64150Y232550
X53700Y252350
X94400Y312850
X105950Y305150
X129600Y268300
X142800Y265550
X148850Y258400
X167000Y236400
X179100Y230350
X174700Y221550
X193400Y228700
X196700Y232000
X206050Y227050
X219800Y213300
X228600Y202300
X216500Y201200
X211550Y185250
X198350Y177000
X191750Y185250
X195050Y188550
X192300Y191300
X196700Y200100
X223650Y168200
X218150Y164900
X241800Y164900
X248400Y163250
X274800Y177000
X296250Y190200
X313850Y192400
X313850Y199000
X296250Y221000
X256100Y246850
X243450Y231450
X239600Y245750
X240700Y249600
X236300Y265000
X223100Y279300
X218700Y271600
X236300Y282600
X229700Y290300
X226400Y292500
X226400Y301300
X229700Y309000
X222000Y329900
X196150Y301300
X187900Y282600
X178000Y290300
X176350Y313400
X185700Y330450
X163700Y350250
X159850Y301300
X144450Y286450
X174700Y266100
X155450Y223200
X156550Y215500
X158200Y201750
X138400Y223750
X126300Y251800
X42700Y172600
X46000Y139600
X52600Y133000
X60300Y129700
X77350Y145650
X213750Y38950
X231350Y117600
X224750Y119800
X249500Y197350
X218700Y242450
X279750Y285900
X234100Y364000
X301200Y151700
X317700Y144000
X295700Y117600
T02
X71000Y76000
X81000Y76000
X91000Y76000
X101000Y76000
X111000Y76000
X121000Y76000
X131000Y76000
X151000Y76000
X161000Y76000
X171000Y76000
X181000Y76000
X191000Y76000
X201000Y76000
X211000Y76000
X231000Y76000
X241000Y76000
X251000Y76000
X261000Y76000
X271000Y76000
X281000Y76000
X291000Y76000
X291000Y106000
X281000Y106000
X271000Y106000
X261000Y106000
X251000Y106000
X241000Y106000
X231000Y106000
X231000Y126000
X241000Y126000
X251000Y126000
X261000Y126000
X271000Y126000
X281000Y126000
X291000Y126000
X291000Y156000
X281000Y156000
X271000Y156000
X261000Y156000
X251000Y156000
X241000Y156000
X231000Y156000
X211000Y156000
X201000Y156000
X191000Y156000
X181000Y156000
X171000Y156000
X161000Y156000
X151000Y156000
X131000Y156000
X121000Y156000
X111000Y156000
X101000Y156000
X91000Y156000
X81000Y156000
X71000Y156000
X61000Y181000
X61000Y206000
X61000Y226000
X61000Y246000
X61000Y266000
X61000Y286000
X61000Y306000
X61000Y326000
X61000Y346000
X61000Y366000
X33000Y351000
X19000Y351000
X19000Y306000
X33000Y306000
X33000Y261000
X19000Y261000
X101000Y266000
X111000Y266000
X111000Y246000
X101000Y246000
X101000Y226000
X111000Y226000
X111000Y206000
X101000Y206000
X101000Y181000
X111000Y181000
X151000Y181000
X161000Y181000
X161000Y206000
X151000Y206000
X151000Y226000
X161000Y226000
X161000Y246000
X151000Y246000
X151000Y266000
X161000Y266000
X161000Y286000
X151000Y286000
X151000Y306000
X161000Y306000
X161000Y326000
X151000Y326000
X151000Y346000
X161000Y346000
X161000Y366000
X151000Y366000
X111000Y366000
X101000Y366000
X101000Y346000
X111000Y346000
X111000Y326000
X101000Y326000
X101000Y306000
X111000Y306000
X111000Y286000
X101000Y286000
X201000Y286000
X211000Y286000
X211000Y266000
X201000Y266000
X201000Y246000
X211000Y246000
X211000Y226000
X201000Y226000
X201000Y206000
X211000Y206000
X201000Y181000
X221000Y181000
X241000Y181000
X251000Y181000
X271000Y181000
X281000Y181000
X301000Y181000
X301000Y206000
X301000Y226000
X301000Y246000
X301000Y266000
X301000Y286000
X301000Y306000
X301000Y326000
X301000Y346000
X301000Y366000
X261000Y366000
X251000Y366000
X251000Y346000
X261000Y346000
X261000Y326000
X251000Y326000
X251000Y306000
X261000Y306000
X261000Y286000
X251000Y286000
X251000Y266000
X261000Y266000
X261000Y246000
X251000Y246000
X251000Y226000
X261000Y226000
X261000Y206000
X251000Y206000
X211000Y126000
X201000Y126000
X191000Y126000
X181000Y126000
X171000Y126000
X161000Y126000
X151000Y126000
X151000Y106000
X161000Y106000
X171000Y106000
X181000Y106000
X191000Y106000
X201000Y106000
X211000Y106000
X131000Y106000
X121000Y106000
X111000Y106000
X101000Y106000
X91000Y106000
X81000Y106000
X71000Y106000
X71000Y126000
X81000Y126000
X91000Y126000
X101000Y126000
X111000Y126000
X121000Y126000
X131000Y126000
X201000Y306000
X211000Y306000
X211000Y326000
X201000Y326000
X201000Y346000
X211000Y346000
X211000Y366000
X201000Y366000
T03
X51000Y31000
X61000Y31000
X71000Y31000
X96000Y31000
X106000Y31000
X131000Y31000
X141000Y31000
X166000Y31000
X176000Y31000
X201000Y31000
X211000Y31000
X221000Y31000
X241000Y31000
X251000Y31000
X261000Y31000
X281000Y31000
X291000Y31000
X301000Y31000
M30
