G75*
%MOIN*%
%OFA0B0*%
%FSLAX25Y25*%
%IPPOS*%
%LPD*%
%AMOC8*
5,1,8,0,0,1.08239X$1,22.5*
%
%ADD10OC8,0.06300*%
%ADD11C,0.06300*%
%ADD12OC8,0.05200*%
%ADD13C,0.05200*%
%ADD14C,0.05937*%
%ADD15C,0.01600*%
%ADD16C,0.02978*%
%ADD17C,0.02400*%
%ADD18C,0.02000*%
D10*
X0033000Y0261000D03*
X0033000Y0306000D03*
X0033000Y0351000D03*
D11*
X0019000Y0351000D03*
X0019000Y0306000D03*
X0019000Y0261000D03*
D12*
X0061000Y0266000D03*
X0061000Y0246000D03*
X0061000Y0226000D03*
X0061000Y0206000D03*
X0061000Y0181000D03*
X0101000Y0181000D03*
X0111000Y0181000D03*
X0111000Y0206000D03*
X0101000Y0206000D03*
X0101000Y0226000D03*
X0111000Y0226000D03*
X0111000Y0246000D03*
X0101000Y0246000D03*
X0101000Y0266000D03*
X0111000Y0266000D03*
X0111000Y0286000D03*
X0101000Y0286000D03*
X0101000Y0306000D03*
X0111000Y0306000D03*
X0111000Y0326000D03*
X0101000Y0326000D03*
X0101000Y0346000D03*
X0111000Y0346000D03*
X0111000Y0366000D03*
X0101000Y0366000D03*
X0061000Y0366000D03*
X0061000Y0346000D03*
X0061000Y0326000D03*
X0061000Y0306000D03*
X0061000Y0286000D03*
X0151000Y0286000D03*
X0161000Y0286000D03*
X0161000Y0266000D03*
X0151000Y0266000D03*
X0151000Y0246000D03*
X0161000Y0246000D03*
X0161000Y0226000D03*
X0151000Y0226000D03*
X0151000Y0206000D03*
X0161000Y0206000D03*
X0161000Y0181000D03*
X0151000Y0181000D03*
X0201000Y0181000D03*
X0221000Y0181000D03*
X0241000Y0181000D03*
X0251000Y0181000D03*
X0271000Y0181000D03*
X0281000Y0181000D03*
X0301000Y0181000D03*
X0301000Y0206000D03*
X0301000Y0226000D03*
X0301000Y0246000D03*
X0301000Y0266000D03*
X0301000Y0286000D03*
X0301000Y0306000D03*
X0301000Y0326000D03*
X0301000Y0346000D03*
X0301000Y0366000D03*
X0261000Y0366000D03*
X0251000Y0366000D03*
X0251000Y0346000D03*
X0261000Y0346000D03*
X0261000Y0326000D03*
X0251000Y0326000D03*
X0251000Y0306000D03*
X0261000Y0306000D03*
X0261000Y0286000D03*
X0251000Y0286000D03*
X0251000Y0266000D03*
X0261000Y0266000D03*
X0261000Y0246000D03*
X0251000Y0246000D03*
X0251000Y0226000D03*
X0261000Y0226000D03*
X0261000Y0206000D03*
X0251000Y0206000D03*
X0211000Y0206000D03*
X0201000Y0206000D03*
X0201000Y0226000D03*
X0211000Y0226000D03*
X0211000Y0246000D03*
X0201000Y0246000D03*
X0201000Y0266000D03*
X0211000Y0266000D03*
X0211000Y0286000D03*
X0201000Y0286000D03*
X0201000Y0306000D03*
X0211000Y0306000D03*
X0211000Y0326000D03*
X0201000Y0326000D03*
X0201000Y0346000D03*
X0211000Y0346000D03*
X0211000Y0366000D03*
X0201000Y0366000D03*
X0161000Y0366000D03*
X0151000Y0366000D03*
X0151000Y0346000D03*
X0161000Y0346000D03*
X0161000Y0326000D03*
X0151000Y0326000D03*
X0151000Y0306000D03*
X0161000Y0306000D03*
D13*
X0161000Y0158600D02*
X0161000Y0153400D01*
X0151000Y0153400D02*
X0151000Y0158600D01*
X0131000Y0158600D02*
X0131000Y0153400D01*
X0121000Y0153400D02*
X0121000Y0158600D01*
X0111000Y0158600D02*
X0111000Y0153400D01*
X0101000Y0153400D02*
X0101000Y0158600D01*
X0091000Y0158600D02*
X0091000Y0153400D01*
X0081000Y0153400D02*
X0081000Y0158600D01*
X0071000Y0158600D02*
X0071000Y0153400D01*
X0071000Y0128600D02*
X0071000Y0123400D01*
X0081000Y0123400D02*
X0081000Y0128600D01*
X0091000Y0128600D02*
X0091000Y0123400D01*
X0101000Y0123400D02*
X0101000Y0128600D01*
X0111000Y0128600D02*
X0111000Y0123400D01*
X0121000Y0123400D02*
X0121000Y0128600D01*
X0131000Y0128600D02*
X0131000Y0123400D01*
X0131000Y0108600D02*
X0131000Y0103400D01*
X0121000Y0103400D02*
X0121000Y0108600D01*
X0111000Y0108600D02*
X0111000Y0103400D01*
X0101000Y0103400D02*
X0101000Y0108600D01*
X0091000Y0108600D02*
X0091000Y0103400D01*
X0081000Y0103400D02*
X0081000Y0108600D01*
X0071000Y0108600D02*
X0071000Y0103400D01*
X0071000Y0078600D02*
X0071000Y0073400D01*
X0081000Y0073400D02*
X0081000Y0078600D01*
X0091000Y0078600D02*
X0091000Y0073400D01*
X0101000Y0073400D02*
X0101000Y0078600D01*
X0111000Y0078600D02*
X0111000Y0073400D01*
X0121000Y0073400D02*
X0121000Y0078600D01*
X0131000Y0078600D02*
X0131000Y0073400D01*
X0151000Y0073400D02*
X0151000Y0078600D01*
X0161000Y0078600D02*
X0161000Y0073400D01*
X0171000Y0073400D02*
X0171000Y0078600D01*
X0181000Y0078600D02*
X0181000Y0073400D01*
X0191000Y0073400D02*
X0191000Y0078600D01*
X0201000Y0078600D02*
X0201000Y0073400D01*
X0211000Y0073400D02*
X0211000Y0078600D01*
X0231000Y0078600D02*
X0231000Y0073400D01*
X0241000Y0073400D02*
X0241000Y0078600D01*
X0251000Y0078600D02*
X0251000Y0073400D01*
X0261000Y0073400D02*
X0261000Y0078600D01*
X0271000Y0078600D02*
X0271000Y0073400D01*
X0281000Y0073400D02*
X0281000Y0078600D01*
X0291000Y0078600D02*
X0291000Y0073400D01*
X0291000Y0103400D02*
X0291000Y0108600D01*
X0281000Y0108600D02*
X0281000Y0103400D01*
X0271000Y0103400D02*
X0271000Y0108600D01*
X0261000Y0108600D02*
X0261000Y0103400D01*
X0251000Y0103400D02*
X0251000Y0108600D01*
X0241000Y0108600D02*
X0241000Y0103400D01*
X0231000Y0103400D02*
X0231000Y0108600D01*
X0231000Y0123400D02*
X0231000Y0128600D01*
X0241000Y0128600D02*
X0241000Y0123400D01*
X0251000Y0123400D02*
X0251000Y0128600D01*
X0261000Y0128600D02*
X0261000Y0123400D01*
X0271000Y0123400D02*
X0271000Y0128600D01*
X0281000Y0128600D02*
X0281000Y0123400D01*
X0291000Y0123400D02*
X0291000Y0128600D01*
X0291000Y0153400D02*
X0291000Y0158600D01*
X0281000Y0158600D02*
X0281000Y0153400D01*
X0271000Y0153400D02*
X0271000Y0158600D01*
X0261000Y0158600D02*
X0261000Y0153400D01*
X0251000Y0153400D02*
X0251000Y0158600D01*
X0241000Y0158600D02*
X0241000Y0153400D01*
X0231000Y0153400D02*
X0231000Y0158600D01*
X0211000Y0158600D02*
X0211000Y0153400D01*
X0201000Y0153400D02*
X0201000Y0158600D01*
X0191000Y0158600D02*
X0191000Y0153400D01*
X0181000Y0153400D02*
X0181000Y0158600D01*
X0171000Y0158600D02*
X0171000Y0153400D01*
X0171000Y0128600D02*
X0171000Y0123400D01*
X0161000Y0123400D02*
X0161000Y0128600D01*
X0151000Y0128600D02*
X0151000Y0123400D01*
X0151000Y0108600D02*
X0151000Y0103400D01*
X0161000Y0103400D02*
X0161000Y0108600D01*
X0171000Y0108600D02*
X0171000Y0103400D01*
X0181000Y0103400D02*
X0181000Y0108600D01*
X0191000Y0108600D02*
X0191000Y0103400D01*
X0201000Y0103400D02*
X0201000Y0108600D01*
X0211000Y0108600D02*
X0211000Y0103400D01*
X0211000Y0123400D02*
X0211000Y0128600D01*
X0201000Y0128600D02*
X0201000Y0123400D01*
X0191000Y0123400D02*
X0191000Y0128600D01*
X0181000Y0128600D02*
X0181000Y0123400D01*
D14*
X0176000Y0033969D02*
X0176000Y0028031D01*
X0166000Y0028031D02*
X0166000Y0033969D01*
X0141000Y0033969D02*
X0141000Y0028031D01*
X0131000Y0028031D02*
X0131000Y0033969D01*
X0106000Y0033969D02*
X0106000Y0028031D01*
X0096000Y0028031D02*
X0096000Y0033969D01*
X0071000Y0033969D02*
X0071000Y0028031D01*
X0061000Y0028031D02*
X0061000Y0033969D01*
X0051000Y0033969D02*
X0051000Y0028031D01*
X0201000Y0028031D02*
X0201000Y0033969D01*
X0211000Y0033969D02*
X0211000Y0028031D01*
X0221000Y0028031D02*
X0221000Y0033969D01*
X0241000Y0033969D02*
X0241000Y0028031D01*
X0251000Y0028031D02*
X0251000Y0033969D01*
X0261000Y0033969D02*
X0261000Y0028031D01*
X0281000Y0028031D02*
X0281000Y0033969D01*
X0291000Y0033969D02*
X0291000Y0028031D01*
X0301000Y0028031D02*
X0301000Y0033969D01*
D15*
X0052600Y0020250D02*
X0046550Y0026300D01*
X0046550Y0036200D01*
X0048750Y0038400D01*
X0053700Y0038400D01*
X0060850Y0031250D01*
X0061000Y0031000D01*
X0058650Y0023550D02*
X0051500Y0030700D01*
X0051000Y0031000D01*
X0058650Y0023550D02*
X0108150Y0023550D01*
X0123000Y0038400D01*
X0131800Y0038400D01*
X0165350Y0071950D01*
X0165350Y0079100D01*
X0182950Y0096700D01*
X0194500Y0086250D02*
X0229150Y0086250D01*
X0239050Y0076350D01*
X0240700Y0076350D01*
X0241000Y0076000D01*
X0241000Y0106000D02*
X0241250Y0106050D01*
X0241250Y0117600D01*
X0245100Y0121450D01*
X0245100Y0183050D01*
X0242350Y0185800D01*
X0252800Y0196250D01*
X0252800Y0198450D01*
X0246750Y0204500D01*
X0246750Y0247950D01*
X0241800Y0252900D01*
X0152150Y0252900D01*
X0120800Y0221550D01*
X0110350Y0221550D01*
X0094950Y0206150D01*
X0061400Y0206150D01*
X0061000Y0206000D01*
X0053700Y0202850D02*
X0053700Y0252350D01*
X0049300Y0252350D02*
X0056450Y0259500D01*
X0131800Y0259500D01*
X0134550Y0262250D01*
X0143900Y0262250D01*
X0146650Y0265000D01*
X0146650Y0267750D01*
X0156000Y0277100D01*
X0220900Y0277100D01*
X0229700Y0268300D01*
X0248400Y0268300D01*
X0250600Y0266100D01*
X0251000Y0266000D01*
X0251700Y0266100D01*
X0260500Y0266100D01*
X0261000Y0266000D01*
X0254450Y0261700D02*
X0228600Y0261700D01*
X0218700Y0271600D01*
X0219800Y0274900D02*
X0229700Y0265000D01*
X0236300Y0265000D01*
X0240150Y0250150D02*
X0240700Y0249600D01*
X0240150Y0250150D02*
X0181850Y0250150D01*
X0168100Y0236400D01*
X0167000Y0236400D01*
X0174700Y0239700D02*
X0161000Y0226000D01*
X0160950Y0225950D01*
X0160950Y0224300D01*
X0143900Y0207250D01*
X0143900Y0098900D01*
X0147200Y0097800D02*
X0147200Y0101100D01*
X0146650Y0101650D01*
X0146650Y0195700D01*
X0156550Y0205600D01*
X0156550Y0215500D01*
X0155450Y0223200D02*
X0126850Y0194600D01*
X0126850Y0151700D01*
X0130700Y0147850D01*
X0130700Y0126400D01*
X0131000Y0126000D01*
X0138400Y0130250D02*
X0138400Y0139600D01*
X0135100Y0146750D02*
X0135100Y0088450D01*
X0125200Y0078550D01*
X0125200Y0071400D01*
X0095500Y0041700D01*
X0081750Y0041700D01*
X0014100Y0109350D01*
X0014100Y0308450D01*
X0071300Y0365650D01*
X0101000Y0365650D01*
X0101000Y0366000D01*
X0112550Y0350250D02*
X0065250Y0350250D01*
X0061000Y0346000D01*
X0070750Y0361800D02*
X0140600Y0361800D01*
X0151050Y0372250D01*
X0263800Y0372250D01*
X0300650Y0335400D01*
X0300650Y0326050D01*
X0301000Y0326000D01*
X0265450Y0327700D02*
X0265450Y0304600D01*
X0262700Y0301850D01*
X0263250Y0301300D01*
X0263250Y0298000D01*
X0321550Y0239700D01*
X0321550Y0167100D01*
X0288000Y0133550D01*
X0277000Y0144550D01*
X0277000Y0158300D01*
X0271500Y0163800D01*
X0271500Y0180850D01*
X0271000Y0181000D01*
X0266550Y0182500D02*
X0289650Y0205600D01*
X0300650Y0205600D01*
X0301000Y0206000D01*
X0301200Y0205050D01*
X0313850Y0192400D01*
X0314950Y0189100D02*
X0301750Y0189100D01*
X0297350Y0193500D01*
X0287450Y0193500D01*
X0275350Y0181400D01*
X0275350Y0177550D01*
X0274800Y0177000D01*
X0281400Y0175350D02*
X0296250Y0190200D01*
X0299550Y0185250D02*
X0291300Y0177000D01*
X0291300Y0156100D01*
X0291000Y0156000D01*
X0281400Y0156100D02*
X0281000Y0156000D01*
X0281400Y0156100D02*
X0281400Y0175350D01*
X0266550Y0182500D02*
X0266550Y0151700D01*
X0275350Y0142900D01*
X0275350Y0103300D01*
X0280850Y0097800D01*
X0280850Y0076350D01*
X0281000Y0076000D01*
X0291000Y0106000D02*
X0291300Y0106050D01*
X0291300Y0117600D01*
X0317700Y0144000D01*
X0301200Y0151700D02*
X0301200Y0180850D01*
X0301000Y0181000D01*
X0299550Y0185250D02*
X0314400Y0185250D01*
X0319350Y0190200D01*
X0319350Y0213850D01*
X0256650Y0276550D01*
X0256650Y0286450D01*
X0252800Y0290300D01*
X0249500Y0290300D01*
X0246200Y0287000D01*
X0227500Y0287000D01*
X0217600Y0296900D01*
X0159850Y0296900D01*
X0151050Y0305700D01*
X0151000Y0306000D01*
X0149400Y0310100D02*
X0196700Y0310100D01*
X0200550Y0306250D01*
X0201000Y0306000D01*
X0196150Y0301300D02*
X0159850Y0301300D01*
X0164800Y0292500D02*
X0107600Y0292500D01*
X0101550Y0286450D01*
X0101000Y0286000D01*
X0101000Y0285900D01*
X0098250Y0285900D01*
X0093850Y0281500D01*
X0043250Y0281500D01*
X0019050Y0305700D01*
X0019000Y0306000D01*
X0028400Y0304050D02*
X0028400Y0319450D01*
X0070750Y0361800D01*
X0112550Y0350250D02*
X0141150Y0321650D01*
X0152700Y0321650D01*
X0155450Y0324400D01*
X0155450Y0326600D01*
X0174700Y0345850D01*
X0200550Y0345850D01*
X0201000Y0346000D01*
X0211000Y0346000D02*
X0211000Y0345850D01*
X0222000Y0334850D01*
X0222000Y0329900D01*
X0220900Y0326600D02*
X0245650Y0326600D01*
X0249500Y0330450D01*
X0262700Y0330450D01*
X0265450Y0327700D01*
X0261000Y0346000D02*
X0261050Y0346400D01*
X0265450Y0350800D01*
X0265450Y0367300D01*
X0262700Y0370050D01*
X0258850Y0370050D01*
X0256650Y0367850D01*
X0256650Y0365650D01*
X0249500Y0358500D01*
X0157650Y0358500D01*
X0146650Y0347500D01*
X0146650Y0344200D01*
X0150500Y0340350D01*
X0150500Y0326050D01*
X0151000Y0326000D01*
X0156000Y0316700D02*
X0155450Y0316150D01*
X0043250Y0316150D01*
X0033350Y0306250D01*
X0033000Y0306000D01*
X0028400Y0304050D02*
X0031150Y0301300D01*
X0035000Y0301300D01*
X0039400Y0305700D01*
X0060850Y0305700D01*
X0061000Y0306000D01*
X0061400Y0286450D02*
X0061000Y0286000D01*
X0061400Y0286450D02*
X0095500Y0286450D01*
X0103750Y0294700D01*
X0169200Y0294700D01*
X0177450Y0286450D01*
X0200550Y0286450D01*
X0201000Y0286000D01*
X0212650Y0290300D02*
X0178000Y0290300D01*
X0174700Y0282600D02*
X0164800Y0292500D01*
X0163700Y0290300D02*
X0174700Y0279300D01*
X0223100Y0279300D01*
X0244000Y0279300D01*
X0250600Y0285900D01*
X0251000Y0286000D01*
X0260500Y0286450D02*
X0261000Y0286000D01*
X0260500Y0286450D02*
X0233550Y0313400D01*
X0176350Y0313400D01*
X0185700Y0330450D02*
X0217050Y0330450D01*
X0220900Y0326600D01*
X0229700Y0309000D02*
X0229700Y0290300D01*
X0226400Y0292500D02*
X0226400Y0301300D01*
X0212650Y0290300D02*
X0220350Y0282600D01*
X0236300Y0282600D01*
X0219800Y0274900D02*
X0163700Y0274900D01*
X0156550Y0267750D01*
X0156550Y0265550D01*
X0152700Y0261700D01*
X0147750Y0261700D01*
X0146100Y0260050D01*
X0135650Y0260050D01*
X0127400Y0251800D01*
X0126300Y0251800D01*
X0134000Y0255100D02*
X0252250Y0255100D01*
X0261050Y0246300D01*
X0261000Y0246000D01*
X0256100Y0246850D02*
X0256100Y0180300D01*
X0248400Y0172600D01*
X0248400Y0163250D01*
X0241800Y0164900D02*
X0218150Y0164900D01*
X0223650Y0168200D02*
X0196700Y0195150D01*
X0196700Y0200100D01*
X0196700Y0204500D02*
X0215950Y0185250D01*
X0236850Y0185250D01*
X0240700Y0181400D01*
X0241000Y0181000D01*
X0242350Y0185800D02*
X0230250Y0197900D01*
X0208800Y0197900D01*
X0201100Y0205600D01*
X0201000Y0206000D01*
X0196700Y0204500D02*
X0196700Y0212200D01*
X0187350Y0221550D01*
X0193400Y0227600D01*
X0193400Y0228700D01*
X0192300Y0232000D02*
X0196700Y0232000D01*
X0197800Y0235300D02*
X0184050Y0235300D01*
X0179100Y0230350D01*
X0175800Y0227050D02*
X0187350Y0227050D01*
X0192300Y0232000D01*
X0197800Y0235300D02*
X0206050Y0227050D01*
X0211000Y0226500D02*
X0211000Y0226000D01*
X0211000Y0225400D01*
X0216500Y0219900D01*
X0216500Y0201200D01*
X0228600Y0202300D02*
X0228600Y0204500D01*
X0219800Y0213300D01*
X0211000Y0226500D02*
X0200000Y0237500D01*
X0181850Y0237500D01*
X0169200Y0224850D01*
X0169200Y0208350D01*
X0162600Y0201750D01*
X0158200Y0201750D01*
X0171400Y0215500D02*
X0171400Y0222650D01*
X0175800Y0227050D01*
X0174700Y0221550D02*
X0187350Y0221550D01*
X0176900Y0211100D02*
X0175800Y0211100D01*
X0171400Y0215500D01*
X0176900Y0211100D02*
X0205500Y0182500D01*
X0205500Y0173150D01*
X0240700Y0137950D01*
X0240700Y0126400D01*
X0241000Y0126000D01*
X0231000Y0126000D02*
X0230800Y0126400D01*
X0230800Y0144550D01*
X0198350Y0177000D01*
X0191750Y0185250D02*
X0167000Y0160500D01*
X0167000Y0153350D01*
X0149950Y0136300D01*
X0151050Y0126400D02*
X0151000Y0126000D01*
X0151050Y0126400D02*
X0152700Y0126400D01*
X0175250Y0148950D01*
X0184050Y0148950D01*
X0190650Y0155550D01*
X0191000Y0156000D01*
X0195050Y0166000D02*
X0181300Y0166000D01*
X0171400Y0156100D01*
X0171000Y0156000D01*
X0161500Y0156100D02*
X0161000Y0156000D01*
X0161500Y0156100D02*
X0161500Y0160500D01*
X0192300Y0191300D01*
X0195050Y0188550D02*
X0195050Y0166000D01*
X0199450Y0166000D01*
X0205500Y0159950D01*
X0205500Y0152800D01*
X0211000Y0147300D01*
X0211000Y0126000D01*
X0224750Y0119800D02*
X0211000Y0106050D01*
X0211000Y0106000D01*
X0231000Y0106000D02*
X0231350Y0106050D01*
X0231350Y0117600D01*
X0176900Y0116500D02*
X0176900Y0112650D01*
X0176900Y0116500D02*
X0174150Y0119250D01*
X0170850Y0114300D02*
X0165350Y0108800D01*
X0165350Y0098900D01*
X0141150Y0074700D01*
X0141150Y0070850D01*
X0108700Y0038400D01*
X0103200Y0038400D01*
X0096050Y0031250D01*
X0096000Y0031000D01*
X0095500Y0038400D02*
X0092750Y0038400D01*
X0095500Y0038400D02*
X0097700Y0040600D01*
X0107600Y0040600D01*
X0138950Y0071950D01*
X0138950Y0075800D01*
X0155450Y0092300D01*
X0155450Y0108800D01*
X0162600Y0115950D01*
X0170850Y0114300D02*
X0170850Y0125850D01*
X0171000Y0126000D01*
X0147200Y0097800D02*
X0138400Y0089000D01*
X0138400Y0079650D01*
X0136750Y0078000D01*
X0136750Y0073050D01*
X0113100Y0049400D01*
X0108150Y0049400D01*
X0110350Y0067000D02*
X0071300Y0067000D01*
X0049300Y0089000D01*
X0049300Y0252350D01*
X0046000Y0252350D02*
X0055350Y0261700D01*
X0130700Y0261700D01*
X0134550Y0265550D01*
X0142800Y0265550D01*
X0141150Y0268300D02*
X0158750Y0285900D01*
X0160950Y0285900D01*
X0161000Y0286000D01*
X0163700Y0290300D02*
X0143900Y0290300D01*
X0140050Y0286450D01*
X0111450Y0286450D01*
X0111000Y0286000D01*
X0113650Y0282600D02*
X0101550Y0270500D01*
X0065250Y0270500D01*
X0061400Y0266650D01*
X0061000Y0266000D01*
X0060850Y0265550D01*
X0055900Y0265550D01*
X0042700Y0252350D01*
X0042700Y0172600D01*
X0060850Y0180850D02*
X0061000Y0181000D01*
X0060850Y0180850D02*
X0060850Y0130250D01*
X0060300Y0129700D01*
X0052600Y0133000D02*
X0079550Y0106050D01*
X0080650Y0106050D01*
X0081000Y0106000D01*
X0082850Y0087900D02*
X0101550Y0087900D01*
X0119150Y0105500D01*
X0120800Y0105500D01*
X0121000Y0106000D01*
X0125200Y0101650D02*
X0125200Y0110450D01*
X0123000Y0112650D01*
X0118050Y0112650D01*
X0117500Y0112100D01*
X0116950Y0112650D01*
X0116950Y0197900D01*
X0150500Y0231450D01*
X0150500Y0245750D01*
X0151000Y0246000D01*
X0148850Y0258400D02*
X0254450Y0258400D01*
X0265450Y0247400D01*
X0265450Y0230900D01*
X0266000Y0230350D01*
X0282500Y0230350D01*
X0313850Y0199000D01*
X0317150Y0200100D02*
X0317150Y0191300D01*
X0314950Y0189100D01*
X0317150Y0200100D02*
X0301200Y0216050D01*
X0301200Y0225950D01*
X0301000Y0226000D01*
X0296250Y0221000D02*
X0295150Y0221000D01*
X0254450Y0261700D01*
X0239600Y0245750D02*
X0222000Y0245750D01*
X0218700Y0242450D01*
X0211000Y0245750D02*
X0225300Y0231450D01*
X0243450Y0231450D01*
X0261050Y0226500D02*
X0261000Y0226000D01*
X0261050Y0226500D02*
X0265450Y0230900D01*
X0249500Y0197350D02*
X0245650Y0197350D01*
X0203300Y0239700D01*
X0174700Y0239700D01*
X0174700Y0266100D02*
X0200550Y0266100D01*
X0201000Y0266000D01*
X0187900Y0282600D02*
X0174700Y0282600D01*
X0149400Y0310100D02*
X0145550Y0306250D01*
X0111450Y0306250D01*
X0111000Y0306000D01*
X0105950Y0306800D02*
X0105950Y0305150D01*
X0105950Y0306800D02*
X0099900Y0312850D01*
X0094400Y0312850D01*
X0113650Y0282600D02*
X0139500Y0282600D01*
X0143350Y0286450D01*
X0144450Y0286450D01*
X0141150Y0268300D02*
X0129600Y0268300D01*
X0134000Y0255100D02*
X0105400Y0226500D01*
X0101000Y0226500D01*
X0101000Y0226000D01*
X0087800Y0209450D02*
X0064700Y0232550D01*
X0064150Y0232550D01*
X0046000Y0252350D02*
X0046000Y0139600D01*
X0065250Y0153350D02*
X0065250Y0191300D01*
X0053700Y0202850D01*
X0086700Y0160500D02*
X0105950Y0179750D01*
X0105950Y0181400D01*
X0086700Y0160500D02*
X0086700Y0153350D01*
X0079000Y0145650D01*
X0077350Y0145650D01*
X0065250Y0153350D02*
X0090550Y0128050D01*
X0090550Y0126400D01*
X0091000Y0126000D01*
X0111000Y0106000D02*
X0111450Y0106050D01*
X0117500Y0112100D01*
X0125200Y0101650D02*
X0106500Y0082950D01*
X0106500Y0073050D01*
X0102650Y0069200D01*
X0079000Y0069200D01*
X0072400Y0075800D01*
X0071300Y0075800D01*
X0071000Y0076000D01*
X0081750Y0041700D02*
X0071300Y0031250D01*
X0071000Y0031000D01*
X0052600Y0020250D02*
X0289650Y0020250D01*
X0295700Y0026300D01*
X0295700Y0117600D01*
X0291000Y0126000D02*
X0290750Y0126400D01*
X0290750Y0130800D01*
X0288000Y0133550D01*
X0221000Y0181000D02*
X0220900Y0181400D01*
X0216500Y0181400D01*
X0212650Y0185250D01*
X0211550Y0185250D01*
X0211000Y0245750D02*
X0211000Y0246000D01*
X0255000Y0301850D02*
X0251150Y0305700D01*
X0251000Y0306000D01*
X0255000Y0301850D02*
X0262700Y0301850D01*
X0261000Y0306000D02*
X0260500Y0306250D01*
X0256650Y0306250D01*
X0246200Y0316700D01*
X0156000Y0316700D01*
X0151000Y0346000D02*
X0151050Y0346400D01*
X0158200Y0353550D01*
X0248400Y0353550D01*
X0260500Y0365650D01*
X0261000Y0366000D01*
X0251000Y0366000D02*
X0250600Y0365650D01*
X0245650Y0360700D01*
X0200550Y0360700D01*
X0195600Y0365650D01*
X0161500Y0365650D01*
X0161000Y0366000D01*
X0163700Y0350250D02*
X0212650Y0350250D01*
X0216500Y0346400D01*
X0250600Y0346400D01*
X0251000Y0346000D01*
X0234100Y0364000D02*
X0228050Y0370050D01*
X0209350Y0370050D01*
X0205500Y0366200D01*
X0201100Y0366200D01*
X0201000Y0366000D01*
X0279750Y0285900D02*
X0300650Y0285900D01*
X0301000Y0286000D01*
X0138400Y0223750D02*
X0134000Y0219350D01*
X0118600Y0219350D01*
X0105400Y0206150D01*
X0101000Y0206150D01*
X0101000Y0206000D01*
X0131000Y0156000D02*
X0131250Y0155550D01*
X0131250Y0150600D01*
X0135100Y0146750D01*
X0121000Y0076000D02*
X0120800Y0075800D01*
X0119150Y0075800D01*
X0110350Y0067000D01*
D16*
X0108150Y0049400D03*
X0092750Y0038400D03*
X0082850Y0087900D03*
X0060300Y0129700D03*
X0052600Y0133000D03*
X0046000Y0139600D03*
X0042700Y0172600D03*
X0077350Y0145650D03*
X0105950Y0181400D03*
X0087800Y0209450D03*
X0064150Y0232550D03*
X0053700Y0252350D03*
X0094400Y0312850D03*
X0105950Y0305150D03*
X0129600Y0268300D03*
X0142800Y0265550D03*
X0148850Y0258400D03*
X0167000Y0236400D03*
X0179100Y0230350D03*
X0174700Y0221550D03*
X0193400Y0228700D03*
X0196700Y0232000D03*
X0206050Y0227050D03*
X0219800Y0213300D03*
X0228600Y0202300D03*
X0216500Y0201200D03*
X0211550Y0185250D03*
X0198350Y0177000D03*
X0191750Y0185250D03*
X0195050Y0188550D03*
X0192300Y0191300D03*
X0196700Y0200100D03*
X0223650Y0168200D03*
X0218150Y0164900D03*
X0241800Y0164900D03*
X0248400Y0163250D03*
X0274800Y0177000D03*
X0296250Y0190200D03*
X0313850Y0192400D03*
X0313850Y0199000D03*
X0296250Y0221000D03*
X0256100Y0246850D03*
X0243450Y0231450D03*
X0239600Y0245750D03*
X0240700Y0249600D03*
X0236300Y0265000D03*
X0223100Y0279300D03*
X0218700Y0271600D03*
X0236300Y0282600D03*
X0229700Y0290300D03*
X0226400Y0292500D03*
X0226400Y0301300D03*
X0229700Y0309000D03*
X0222000Y0329900D03*
X0196150Y0301300D03*
X0187900Y0282600D03*
X0178000Y0290300D03*
X0176350Y0313400D03*
X0185700Y0330450D03*
X0163700Y0350250D03*
X0159850Y0301300D03*
X0144450Y0286450D03*
X0174700Y0266100D03*
X0155450Y0223200D03*
X0156550Y0215500D03*
X0158200Y0201750D03*
X0138400Y0223750D03*
X0126300Y0251800D03*
X0218700Y0242450D03*
X0249500Y0197350D03*
X0301200Y0151700D03*
X0317700Y0144000D03*
X0295700Y0117600D03*
X0231350Y0117600D03*
X0224750Y0119800D03*
X0194500Y0086250D03*
X0182950Y0096700D03*
X0176900Y0112650D03*
X0174150Y0119250D03*
X0162600Y0115950D03*
X0149950Y0136300D03*
X0138400Y0139600D03*
X0138400Y0130250D03*
X0143900Y0098900D03*
X0138400Y0079650D03*
X0160400Y0085700D03*
X0213750Y0038950D03*
X0279750Y0285900D03*
X0234100Y0364000D03*
D17*
X0257200Y0325500D02*
X0252800Y0321100D01*
X0165900Y0321100D01*
X0161000Y0326000D01*
X0160950Y0325500D01*
X0154350Y0318900D01*
X0118600Y0318900D01*
X0112000Y0325500D01*
X0111000Y0326000D01*
X0110900Y0326050D01*
X0110900Y0335950D01*
X0101000Y0345850D01*
X0101000Y0346000D01*
X0150500Y0285900D02*
X0151000Y0286000D01*
X0150500Y0285900D02*
X0144450Y0279850D01*
X0136200Y0279850D01*
X0122450Y0266100D01*
X0111450Y0266100D01*
X0111000Y0266000D01*
X0161000Y0266000D02*
X0161500Y0266100D01*
X0165900Y0270500D01*
X0202750Y0270500D01*
X0207150Y0266100D01*
X0211000Y0266100D01*
X0211000Y0266000D01*
X0201000Y0226000D02*
X0201100Y0225950D01*
X0201100Y0216050D01*
X0211000Y0206150D01*
X0211000Y0206000D01*
X0256100Y0176450D02*
X0256100Y0151700D01*
X0270950Y0136850D01*
X0270950Y0126400D01*
X0271000Y0126000D01*
X0270400Y0125300D01*
X0270400Y0114300D01*
X0266550Y0110450D01*
X0266550Y0038950D01*
X0283050Y0038950D01*
X0291000Y0031000D01*
X0266550Y0038950D02*
X0258850Y0038950D01*
X0251700Y0031800D01*
X0251000Y0031000D01*
X0250600Y0031250D01*
X0242900Y0038950D01*
X0218700Y0038950D01*
X0218150Y0040050D01*
X0191750Y0066450D01*
X0191750Y0075250D01*
X0191000Y0076000D01*
X0191200Y0076350D01*
X0191200Y0105500D01*
X0191000Y0106000D01*
X0218700Y0038950D02*
X0211000Y0031250D01*
X0211000Y0031000D01*
X0111000Y0156000D02*
X0110900Y0156100D01*
X0110900Y0180850D01*
X0111000Y0181000D01*
X0110350Y0181950D01*
X0106500Y0185800D01*
X0074600Y0185800D01*
X0056450Y0203950D01*
X0056450Y0228150D01*
X0060850Y0232550D01*
X0060850Y0245750D01*
X0061000Y0246000D01*
X0256100Y0176450D02*
X0260500Y0180850D01*
X0260500Y0205600D01*
X0261000Y0206000D01*
X0260500Y0325500D02*
X0257200Y0325500D01*
X0260500Y0325500D02*
X0261000Y0326000D01*
D18*
X0192300Y0163250D02*
X0188450Y0163250D01*
X0181300Y0156100D01*
X0181000Y0156000D01*
X0192300Y0163250D02*
X0195600Y0159950D01*
X0195600Y0151700D01*
X0176350Y0132450D01*
X0176350Y0122000D01*
X0180750Y0117600D01*
X0180750Y0106050D01*
X0181000Y0106000D01*
X0180200Y0104400D01*
X0186800Y0097800D01*
X0186800Y0065900D01*
X0213750Y0038950D01*
X0201650Y0030150D02*
X0201000Y0031000D01*
X0200550Y0031250D01*
X0181300Y0050500D01*
X0181300Y0075800D01*
X0181000Y0076000D01*
X0160400Y0085700D02*
X0180200Y0105500D01*
X0181000Y0106000D01*
X0195050Y0113200D02*
X0182400Y0125850D01*
X0181300Y0125850D01*
X0181000Y0126000D01*
X0195050Y0113200D02*
X0202750Y0113200D01*
X0206600Y0109350D01*
X0206600Y0101650D01*
X0209350Y0098900D01*
X0253900Y0098900D01*
X0256650Y0101650D01*
X0256650Y0122000D01*
X0260500Y0125850D01*
X0261000Y0126000D01*
X0256650Y0101650D02*
X0260500Y0097800D01*
X0260500Y0076350D01*
X0261000Y0076000D01*
X0241800Y0030700D02*
X0241000Y0031000D01*
X0240700Y0030700D01*
X0230250Y0030700D01*
X0222550Y0023000D01*
X0208800Y0023000D01*
X0201650Y0030150D01*
X0241800Y0030700D02*
X0249500Y0023000D01*
X0262700Y0023000D01*
X0270400Y0030700D01*
X0280850Y0030700D01*
X0281000Y0031000D01*
X0105400Y0101650D02*
X0105400Y0121450D01*
X0101000Y0125850D01*
X0101000Y0126000D01*
X0096600Y0121450D02*
X0101000Y0117050D01*
X0101000Y0106000D01*
X0105400Y0101650D02*
X0102650Y0098900D01*
X0089450Y0098900D01*
X0079550Y0089000D01*
X0079550Y0086800D01*
X0081750Y0084600D01*
X0091100Y0084600D01*
X0099350Y0076350D01*
X0101000Y0076350D01*
X0101000Y0076000D01*
X0096600Y0121450D02*
X0096600Y0151150D01*
X0101000Y0155550D01*
X0101000Y0156000D01*
M02*
