G75*
%MOIN*%
%OFA0B0*%
%FSLAX25Y25*%
%IPPOS*%
%LPD*%
%AMOC8*
5,1,8,0,0,1.08239X$1,22.5*
%
%ADD10C,0.00000*%
%ADD11OC8,0.06300*%
%ADD12C,0.06300*%
%ADD13OC8,0.05200*%
%ADD14C,0.05200*%
%ADD15C,0.05937*%
%ADD16C,0.01600*%
%ADD17C,0.02978*%
%ADD18C,0.02400*%
%ADD19C,0.02000*%
D10*
X0001000Y0001000D02*
X0001000Y0385961D01*
X0334701Y0385961D01*
X0334701Y0001000D01*
X0001000Y0001000D01*
D11*
X0033000Y0261000D03*
X0033000Y0306000D03*
X0033000Y0351000D03*
D12*
X0019000Y0351000D03*
X0019000Y0306000D03*
X0019000Y0261000D03*
D13*
X0061000Y0266000D03*
X0061000Y0246000D03*
X0061000Y0226000D03*
X0061000Y0206000D03*
X0061000Y0181000D03*
X0101000Y0181000D03*
X0111000Y0181000D03*
X0111000Y0206000D03*
X0101000Y0206000D03*
X0101000Y0226000D03*
X0111000Y0226000D03*
X0111000Y0246000D03*
X0101000Y0246000D03*
X0101000Y0266000D03*
X0111000Y0266000D03*
X0111000Y0286000D03*
X0101000Y0286000D03*
X0101000Y0306000D03*
X0111000Y0306000D03*
X0111000Y0326000D03*
X0101000Y0326000D03*
X0101000Y0346000D03*
X0111000Y0346000D03*
X0111000Y0366000D03*
X0101000Y0366000D03*
X0061000Y0366000D03*
X0061000Y0346000D03*
X0061000Y0326000D03*
X0061000Y0306000D03*
X0061000Y0286000D03*
X0151000Y0286000D03*
X0161000Y0286000D03*
X0161000Y0266000D03*
X0151000Y0266000D03*
X0151000Y0246000D03*
X0161000Y0246000D03*
X0161000Y0226000D03*
X0151000Y0226000D03*
X0151000Y0206000D03*
X0161000Y0206000D03*
X0161000Y0181000D03*
X0151000Y0181000D03*
X0201000Y0181000D03*
X0221000Y0181000D03*
X0241000Y0181000D03*
X0251000Y0181000D03*
X0271000Y0181000D03*
X0281000Y0181000D03*
X0301000Y0181000D03*
X0301000Y0206000D03*
X0301000Y0226000D03*
X0301000Y0246000D03*
X0301000Y0266000D03*
X0301000Y0286000D03*
X0301000Y0306000D03*
X0301000Y0326000D03*
X0301000Y0346000D03*
X0301000Y0366000D03*
X0261000Y0366000D03*
X0251000Y0366000D03*
X0251000Y0346000D03*
X0261000Y0346000D03*
X0261000Y0326000D03*
X0251000Y0326000D03*
X0251000Y0306000D03*
X0261000Y0306000D03*
X0261000Y0286000D03*
X0251000Y0286000D03*
X0251000Y0266000D03*
X0261000Y0266000D03*
X0261000Y0246000D03*
X0251000Y0246000D03*
X0251000Y0226000D03*
X0261000Y0226000D03*
X0261000Y0206000D03*
X0251000Y0206000D03*
X0211000Y0206000D03*
X0201000Y0206000D03*
X0201000Y0226000D03*
X0211000Y0226000D03*
X0211000Y0246000D03*
X0201000Y0246000D03*
X0201000Y0266000D03*
X0211000Y0266000D03*
X0211000Y0286000D03*
X0201000Y0286000D03*
X0201000Y0306000D03*
X0211000Y0306000D03*
X0211000Y0326000D03*
X0201000Y0326000D03*
X0201000Y0346000D03*
X0211000Y0346000D03*
X0211000Y0366000D03*
X0201000Y0366000D03*
X0161000Y0366000D03*
X0151000Y0366000D03*
X0151000Y0346000D03*
X0161000Y0346000D03*
X0161000Y0326000D03*
X0151000Y0326000D03*
X0151000Y0306000D03*
X0161000Y0306000D03*
D14*
X0161000Y0158600D02*
X0161000Y0153400D01*
X0151000Y0153400D02*
X0151000Y0158600D01*
X0131000Y0158600D02*
X0131000Y0153400D01*
X0121000Y0153400D02*
X0121000Y0158600D01*
X0111000Y0158600D02*
X0111000Y0153400D01*
X0101000Y0153400D02*
X0101000Y0158600D01*
X0091000Y0158600D02*
X0091000Y0153400D01*
X0081000Y0153400D02*
X0081000Y0158600D01*
X0071000Y0158600D02*
X0071000Y0153400D01*
X0071000Y0128600D02*
X0071000Y0123400D01*
X0081000Y0123400D02*
X0081000Y0128600D01*
X0091000Y0128600D02*
X0091000Y0123400D01*
X0101000Y0123400D02*
X0101000Y0128600D01*
X0111000Y0128600D02*
X0111000Y0123400D01*
X0121000Y0123400D02*
X0121000Y0128600D01*
X0131000Y0128600D02*
X0131000Y0123400D01*
X0131000Y0108600D02*
X0131000Y0103400D01*
X0121000Y0103400D02*
X0121000Y0108600D01*
X0111000Y0108600D02*
X0111000Y0103400D01*
X0101000Y0103400D02*
X0101000Y0108600D01*
X0091000Y0108600D02*
X0091000Y0103400D01*
X0081000Y0103400D02*
X0081000Y0108600D01*
X0071000Y0108600D02*
X0071000Y0103400D01*
X0071000Y0078600D02*
X0071000Y0073400D01*
X0081000Y0073400D02*
X0081000Y0078600D01*
X0091000Y0078600D02*
X0091000Y0073400D01*
X0101000Y0073400D02*
X0101000Y0078600D01*
X0111000Y0078600D02*
X0111000Y0073400D01*
X0121000Y0073400D02*
X0121000Y0078600D01*
X0131000Y0078600D02*
X0131000Y0073400D01*
X0151000Y0073400D02*
X0151000Y0078600D01*
X0161000Y0078600D02*
X0161000Y0073400D01*
X0171000Y0073400D02*
X0171000Y0078600D01*
X0181000Y0078600D02*
X0181000Y0073400D01*
X0191000Y0073400D02*
X0191000Y0078600D01*
X0201000Y0078600D02*
X0201000Y0073400D01*
X0211000Y0073400D02*
X0211000Y0078600D01*
X0231000Y0078600D02*
X0231000Y0073400D01*
X0241000Y0073400D02*
X0241000Y0078600D01*
X0251000Y0078600D02*
X0251000Y0073400D01*
X0261000Y0073400D02*
X0261000Y0078600D01*
X0271000Y0078600D02*
X0271000Y0073400D01*
X0281000Y0073400D02*
X0281000Y0078600D01*
X0291000Y0078600D02*
X0291000Y0073400D01*
X0291000Y0103400D02*
X0291000Y0108600D01*
X0281000Y0108600D02*
X0281000Y0103400D01*
X0271000Y0103400D02*
X0271000Y0108600D01*
X0261000Y0108600D02*
X0261000Y0103400D01*
X0251000Y0103400D02*
X0251000Y0108600D01*
X0241000Y0108600D02*
X0241000Y0103400D01*
X0231000Y0103400D02*
X0231000Y0108600D01*
X0231000Y0123400D02*
X0231000Y0128600D01*
X0241000Y0128600D02*
X0241000Y0123400D01*
X0251000Y0123400D02*
X0251000Y0128600D01*
X0261000Y0128600D02*
X0261000Y0123400D01*
X0271000Y0123400D02*
X0271000Y0128600D01*
X0281000Y0128600D02*
X0281000Y0123400D01*
X0291000Y0123400D02*
X0291000Y0128600D01*
X0291000Y0153400D02*
X0291000Y0158600D01*
X0281000Y0158600D02*
X0281000Y0153400D01*
X0271000Y0153400D02*
X0271000Y0158600D01*
X0261000Y0158600D02*
X0261000Y0153400D01*
X0251000Y0153400D02*
X0251000Y0158600D01*
X0241000Y0158600D02*
X0241000Y0153400D01*
X0231000Y0153400D02*
X0231000Y0158600D01*
X0211000Y0158600D02*
X0211000Y0153400D01*
X0201000Y0153400D02*
X0201000Y0158600D01*
X0191000Y0158600D02*
X0191000Y0153400D01*
X0181000Y0153400D02*
X0181000Y0158600D01*
X0171000Y0158600D02*
X0171000Y0153400D01*
X0171000Y0128600D02*
X0171000Y0123400D01*
X0161000Y0123400D02*
X0161000Y0128600D01*
X0151000Y0128600D02*
X0151000Y0123400D01*
X0151000Y0108600D02*
X0151000Y0103400D01*
X0161000Y0103400D02*
X0161000Y0108600D01*
X0171000Y0108600D02*
X0171000Y0103400D01*
X0181000Y0103400D02*
X0181000Y0108600D01*
X0191000Y0108600D02*
X0191000Y0103400D01*
X0201000Y0103400D02*
X0201000Y0108600D01*
X0211000Y0108600D02*
X0211000Y0103400D01*
X0211000Y0123400D02*
X0211000Y0128600D01*
X0201000Y0128600D02*
X0201000Y0123400D01*
X0191000Y0123400D02*
X0191000Y0128600D01*
X0181000Y0128600D02*
X0181000Y0123400D01*
D15*
X0176000Y0033969D02*
X0176000Y0028031D01*
X0166000Y0028031D02*
X0166000Y0033969D01*
X0141000Y0033969D02*
X0141000Y0028031D01*
X0131000Y0028031D02*
X0131000Y0033969D01*
X0106000Y0033969D02*
X0106000Y0028031D01*
X0096000Y0028031D02*
X0096000Y0033969D01*
X0071000Y0033969D02*
X0071000Y0028031D01*
X0061000Y0028031D02*
X0061000Y0033969D01*
X0051000Y0033969D02*
X0051000Y0028031D01*
X0201000Y0028031D02*
X0201000Y0033969D01*
X0211000Y0033969D02*
X0211000Y0028031D01*
X0221000Y0028031D02*
X0221000Y0033969D01*
X0241000Y0033969D02*
X0241000Y0028031D01*
X0251000Y0028031D02*
X0251000Y0033969D01*
X0261000Y0033969D02*
X0261000Y0028031D01*
X0281000Y0028031D02*
X0281000Y0033969D01*
X0291000Y0033969D02*
X0291000Y0028031D01*
X0301000Y0028031D02*
X0301000Y0033969D01*
D16*
X0305600Y0026300D02*
X0305600Y0147300D01*
X0301200Y0151700D01*
X0295700Y0151150D02*
X0291300Y0155550D01*
X0291000Y0156000D01*
X0295700Y0151150D02*
X0295700Y0117600D01*
X0285250Y0121450D02*
X0285250Y0168750D01*
X0278100Y0175900D01*
X0278100Y0178100D01*
X0275350Y0180850D01*
X0275350Y0182500D01*
X0259400Y0198450D01*
X0265450Y0204500D01*
X0265450Y0207250D01*
X0262700Y0210000D01*
X0257200Y0210000D01*
X0236300Y0230900D01*
X0236300Y0265000D01*
X0240700Y0249600D02*
X0248400Y0249600D01*
X0260500Y0261700D01*
X0262700Y0261700D01*
X0305050Y0304050D01*
X0305050Y0321650D01*
X0301200Y0325500D01*
X0301000Y0326000D01*
X0307250Y0325500D02*
X0286900Y0345850D01*
X0261050Y0345850D01*
X0261000Y0346000D01*
X0250600Y0351350D02*
X0229700Y0330450D01*
X0229700Y0309000D01*
X0226400Y0301300D02*
X0250600Y0325500D01*
X0251000Y0326000D01*
X0234100Y0346400D02*
X0217600Y0329900D01*
X0217600Y0323300D01*
X0204400Y0310100D01*
X0198900Y0310100D01*
X0192850Y0304050D01*
X0192850Y0284250D01*
X0193400Y0283700D01*
X0193400Y0228700D01*
X0196700Y0227600D02*
X0196700Y0200100D01*
X0192300Y0191300D02*
X0206600Y0205600D01*
X0206600Y0215500D01*
X0222000Y0230900D01*
X0222000Y0276000D01*
X0217600Y0280400D01*
X0217600Y0293600D01*
X0206600Y0304600D01*
X0206600Y0309000D01*
X0222000Y0324400D01*
X0222000Y0329900D01*
X0215400Y0324400D02*
X0215400Y0339800D01*
X0213200Y0342000D01*
X0230800Y0359600D01*
X0230800Y0365100D01*
X0235750Y0370050D01*
X0277000Y0370050D01*
X0300650Y0346400D01*
X0301000Y0346000D01*
X0301000Y0366000D02*
X0300650Y0366200D01*
X0284150Y0366200D01*
X0278100Y0372250D01*
X0043800Y0372250D01*
X0021250Y0349700D01*
X0019000Y0351000D01*
X0019050Y0350800D01*
X0024000Y0345850D01*
X0024000Y0263350D01*
X0046000Y0241350D01*
X0046000Y0172600D01*
X0070750Y0147850D01*
X0070750Y0126400D01*
X0071000Y0126000D01*
X0076800Y0123100D02*
X0076800Y0145100D01*
X0077350Y0145650D01*
X0080650Y0147850D02*
X0075150Y0153350D01*
X0075150Y0225950D01*
X0057000Y0244100D01*
X0057000Y0327700D01*
X0079550Y0350250D01*
X0102650Y0350250D01*
X0105400Y0347500D01*
X0105400Y0343650D01*
X0091100Y0329350D01*
X0091100Y0311750D01*
X0093300Y0309550D01*
X0095500Y0309550D01*
X0105400Y0319450D01*
X0124100Y0319450D01*
X0150500Y0345850D01*
X0151000Y0346000D01*
X0141150Y0350250D02*
X0112550Y0321650D01*
X0094400Y0321650D01*
X0094400Y0312850D01*
X0099350Y0310100D02*
X0096600Y0307350D01*
X0096600Y0296350D01*
X0106500Y0286450D01*
X0106500Y0276550D01*
X0115300Y0267750D01*
X0115300Y0263900D01*
X0107050Y0255650D01*
X0101000Y0261700D01*
X0101000Y0266000D01*
X0107050Y0255650D02*
X0115300Y0247400D01*
X0115300Y0224300D01*
X0103750Y0212750D01*
X0086700Y0212750D01*
X0084500Y0210550D01*
X0084500Y0182500D01*
X0106500Y0160500D01*
X0106500Y0122000D01*
X0112550Y0115950D01*
X0123550Y0115950D01*
X0130700Y0108800D01*
X0130700Y0106050D01*
X0131000Y0106000D01*
X0143900Y0098900D02*
X0145000Y0098900D01*
X0152150Y0091750D01*
X0162600Y0091750D01*
X0170850Y0083500D01*
X0170850Y0076350D01*
X0171000Y0076000D01*
X0161000Y0076000D02*
X0160950Y0075250D01*
X0157100Y0071400D01*
X0157100Y0024100D01*
X0165350Y0015850D01*
X0301750Y0015850D01*
X0310000Y0024100D01*
X0310000Y0150600D01*
X0308350Y0152250D01*
X0308350Y0159400D01*
X0284700Y0183050D01*
X0284700Y0194600D01*
X0253350Y0225950D01*
X0251150Y0225950D01*
X0251000Y0226000D01*
X0248400Y0234750D02*
X0242350Y0234750D01*
X0240150Y0232550D01*
X0240150Y0230350D01*
X0258300Y0212200D01*
X0263800Y0212200D01*
X0280300Y0195700D01*
X0280300Y0181400D01*
X0281000Y0181000D01*
X0281400Y0180850D01*
X0281400Y0175900D01*
X0307800Y0149500D01*
X0307800Y0025200D01*
X0300650Y0018050D01*
X0166450Y0018050D01*
X0159300Y0025200D01*
X0159300Y0036750D01*
X0163150Y0040600D01*
X0164250Y0040600D01*
X0199450Y0075800D01*
X0200550Y0075800D01*
X0201000Y0076000D01*
X0209350Y0075800D02*
X0174150Y0040600D01*
X0167550Y0040600D01*
X0165350Y0038400D01*
X0164250Y0038400D01*
X0161500Y0035650D01*
X0161500Y0026300D01*
X0167550Y0020250D01*
X0299550Y0020250D01*
X0305600Y0026300D01*
X0312200Y0023000D02*
X0302850Y0013650D01*
X0164250Y0013650D01*
X0145550Y0032350D01*
X0145550Y0060950D01*
X0131250Y0075250D01*
X0131000Y0076000D01*
X0130700Y0076350D01*
X0129050Y0076350D01*
X0117500Y0087900D01*
X0107050Y0087900D01*
X0091100Y0103850D01*
X0091100Y0105500D01*
X0091000Y0106000D01*
X0096600Y0101650D02*
X0108150Y0090100D01*
X0130150Y0090100D01*
X0137300Y0082950D01*
X0154350Y0082950D01*
X0160950Y0076350D01*
X0161000Y0076000D01*
X0151000Y0076000D02*
X0150500Y0076350D01*
X0141700Y0076350D01*
X0138400Y0079650D01*
X0111450Y0075800D02*
X0111450Y0060400D01*
X0140600Y0031250D01*
X0141000Y0031000D01*
X0131000Y0031000D02*
X0130700Y0031250D01*
X0091100Y0070850D01*
X0091100Y0075800D01*
X0091000Y0076000D01*
X0081200Y0076350D02*
X0081000Y0076000D01*
X0081200Y0076350D02*
X0081200Y0081850D01*
X0086150Y0086800D01*
X0086150Y0174250D01*
X0080100Y0180300D01*
X0080100Y0224850D01*
X0101000Y0245750D01*
X0101000Y0246000D01*
X0101550Y0245750D01*
X0110900Y0245750D01*
X0111000Y0246000D01*
X0126300Y0251800D02*
X0126300Y0232000D01*
X0111450Y0217150D01*
X0111450Y0206150D01*
X0111000Y0206000D01*
X0105950Y0195150D02*
X0129600Y0218800D01*
X0129600Y0268300D01*
X0132900Y0269950D02*
X0132900Y0162700D01*
X0153250Y0142350D01*
X0153250Y0128600D01*
X0151050Y0126400D01*
X0151000Y0126000D01*
X0156550Y0122000D02*
X0156550Y0180850D01*
X0151050Y0180850D01*
X0151000Y0181000D01*
X0150500Y0175350D02*
X0135100Y0190750D01*
X0135100Y0276000D01*
X0105950Y0305150D01*
X0101000Y0306000D02*
X0101000Y0301850D01*
X0132900Y0269950D01*
X0141150Y0267200D02*
X0142800Y0265550D01*
X0150500Y0265550D01*
X0151000Y0266000D01*
X0148850Y0258400D02*
X0143350Y0252900D01*
X0143350Y0223200D01*
X0150500Y0216050D01*
X0150500Y0206150D01*
X0151000Y0206000D01*
X0149400Y0201750D02*
X0158200Y0201750D01*
X0167000Y0209450D02*
X0178000Y0220450D01*
X0178000Y0225400D01*
X0167000Y0236400D01*
X0167550Y0239700D02*
X0168100Y0239700D01*
X0178000Y0229800D01*
X0178550Y0230350D01*
X0179100Y0230350D01*
X0178000Y0229800D02*
X0180200Y0227600D01*
X0180200Y0165450D01*
X0186800Y0158850D01*
X0186800Y0138500D01*
X0196700Y0128600D01*
X0196700Y0109900D01*
X0200550Y0106050D01*
X0201000Y0106000D01*
X0208800Y0105500D02*
X0200000Y0096700D01*
X0182950Y0096700D01*
X0176900Y0098350D02*
X0189000Y0086250D01*
X0194500Y0086250D01*
X0189000Y0082950D02*
X0215400Y0082950D01*
X0229150Y0069200D01*
X0233000Y0069200D01*
X0236850Y0073050D01*
X0236850Y0080750D01*
X0257200Y0101100D01*
X0252800Y0105500D01*
X0251150Y0105500D01*
X0251000Y0106000D01*
X0257200Y0101100D02*
X0272600Y0085700D01*
X0281400Y0085700D01*
X0290750Y0076350D01*
X0291000Y0076000D01*
X0271000Y0076000D02*
X0270950Y0075800D01*
X0269300Y0075800D01*
X0235750Y0042250D01*
X0187350Y0042250D01*
X0176350Y0031250D01*
X0176000Y0031000D01*
X0175250Y0038400D02*
X0173600Y0038400D01*
X0166450Y0031250D01*
X0166000Y0031000D01*
X0175250Y0038400D02*
X0181300Y0044450D01*
X0218150Y0044450D01*
X0249500Y0075800D01*
X0250600Y0075800D01*
X0251000Y0076000D01*
X0231000Y0076000D02*
X0230800Y0076350D01*
X0221450Y0085700D01*
X0221450Y0112650D01*
X0262700Y0112650D01*
X0269300Y0106050D01*
X0270950Y0106050D01*
X0271000Y0106000D01*
X0281000Y0106000D02*
X0281400Y0106050D01*
X0281400Y0117600D01*
X0285250Y0121450D01*
X0281000Y0126000D02*
X0280850Y0126400D01*
X0280850Y0137400D01*
X0265450Y0152800D01*
X0265450Y0166550D01*
X0251000Y0181000D01*
X0250600Y0181400D01*
X0250600Y0187450D01*
X0235200Y0202850D01*
X0235200Y0228700D01*
X0233000Y0230900D01*
X0233000Y0298000D01*
X0225300Y0298000D01*
X0217600Y0305700D01*
X0211000Y0305700D01*
X0211000Y0306000D01*
X0201100Y0305700D02*
X0201000Y0306000D01*
X0201100Y0305700D02*
X0215400Y0291400D01*
X0215400Y0279300D01*
X0218700Y0276000D01*
X0218700Y0271600D01*
X0224200Y0278200D02*
X0223100Y0279300D01*
X0224200Y0278200D02*
X0224200Y0229800D01*
X0219800Y0225400D01*
X0219800Y0213300D01*
X0226400Y0215500D02*
X0199450Y0188550D01*
X0195050Y0188550D01*
X0191750Y0185250D02*
X0211550Y0185250D01*
X0216500Y0179750D02*
X0216500Y0201200D01*
X0221450Y0199550D02*
X0221450Y0181400D01*
X0221000Y0181000D01*
X0216500Y0179750D02*
X0226950Y0169300D01*
X0226950Y0151700D01*
X0235200Y0143450D01*
X0235200Y0121450D01*
X0231350Y0117600D01*
X0224750Y0119800D02*
X0223650Y0120900D01*
X0223650Y0168200D01*
X0221450Y0166000D02*
X0221450Y0112650D01*
X0211000Y0106000D02*
X0211000Y0105500D01*
X0208800Y0105500D01*
X0201000Y0126000D02*
X0200550Y0126400D01*
X0200550Y0147850D01*
X0195050Y0153350D01*
X0195050Y0170950D01*
X0182400Y0183600D01*
X0182400Y0307350D01*
X0200550Y0325500D01*
X0201000Y0326000D01*
X0201650Y0326050D01*
X0211000Y0326050D01*
X0211000Y0326000D01*
X0212650Y0321650D02*
X0207150Y0321650D01*
X0184600Y0299100D01*
X0184600Y0184700D01*
X0211000Y0158300D01*
X0211000Y0156000D01*
X0212650Y0148950D02*
X0209350Y0148950D01*
X0202750Y0155550D01*
X0201100Y0155550D01*
X0201000Y0156000D01*
X0212650Y0148950D02*
X0218150Y0154450D01*
X0218150Y0164900D01*
X0221450Y0166000D02*
X0206600Y0180850D01*
X0201100Y0180850D01*
X0201000Y0181000D01*
X0198350Y0177000D02*
X0195600Y0177000D01*
X0186800Y0185800D01*
X0186800Y0281500D01*
X0187900Y0282600D01*
X0178000Y0290300D02*
X0165350Y0290300D01*
X0161500Y0286450D01*
X0161000Y0286000D01*
X0155450Y0285350D02*
X0155450Y0287550D01*
X0152700Y0290300D01*
X0148300Y0290300D01*
X0144450Y0286450D01*
X0141150Y0287550D02*
X0146100Y0292500D01*
X0155450Y0292500D01*
X0176350Y0313400D01*
X0161500Y0306250D02*
X0161000Y0306000D01*
X0161500Y0306250D02*
X0185700Y0330450D01*
X0198900Y0342000D02*
X0195050Y0345850D01*
X0161500Y0345850D01*
X0161000Y0346000D01*
X0163700Y0350250D02*
X0141150Y0350250D01*
X0132350Y0353550D02*
X0203850Y0353550D01*
X0211000Y0346400D01*
X0211000Y0346000D01*
X0213200Y0342000D02*
X0198900Y0342000D01*
X0196700Y0355750D02*
X0037750Y0355750D01*
X0033000Y0351000D01*
X0028400Y0349150D02*
X0028400Y0353000D01*
X0041050Y0365650D01*
X0060300Y0365650D01*
X0061000Y0366000D01*
X0061400Y0365650D01*
X0095500Y0365650D01*
X0099350Y0361800D01*
X0146650Y0361800D01*
X0150500Y0365650D01*
X0151000Y0366000D01*
X0148850Y0370050D02*
X0196700Y0370050D01*
X0200550Y0366200D01*
X0201000Y0366000D01*
X0206600Y0365650D02*
X0196700Y0355750D01*
X0206600Y0365650D02*
X0211000Y0365650D01*
X0211000Y0366000D01*
X0234100Y0364000D02*
X0234100Y0346400D01*
X0250600Y0351350D02*
X0250600Y0365650D01*
X0251000Y0366000D01*
X0215400Y0324400D02*
X0212650Y0321650D01*
X0196150Y0301300D02*
X0211000Y0286450D01*
X0211000Y0286000D01*
X0201000Y0286000D02*
X0200550Y0285900D01*
X0196700Y0282050D01*
X0196700Y0232000D01*
X0200550Y0231450D02*
X0196700Y0227600D01*
X0200550Y0231450D02*
X0200550Y0245750D01*
X0201000Y0246000D01*
X0218700Y0239700D02*
X0206050Y0227050D01*
X0218700Y0239700D02*
X0218700Y0242450D01*
X0239600Y0245750D02*
X0250600Y0245750D01*
X0251000Y0246000D01*
X0256100Y0246850D02*
X0256100Y0251800D01*
X0307250Y0302950D01*
X0307250Y0325500D01*
X0301000Y0306000D02*
X0300650Y0305700D01*
X0292950Y0298000D01*
X0233000Y0298000D01*
X0229700Y0290300D02*
X0229700Y0207800D01*
X0221450Y0199550D01*
X0228600Y0202300D02*
X0228600Y0184150D01*
X0235200Y0177550D01*
X0235200Y0153350D01*
X0250600Y0137950D01*
X0250600Y0126400D01*
X0251000Y0126000D01*
X0248400Y0163250D02*
X0246750Y0164900D01*
X0241800Y0164900D01*
X0269300Y0177000D02*
X0249500Y0196800D01*
X0249500Y0197350D01*
X0251150Y0205600D02*
X0251000Y0206000D01*
X0251150Y0205600D02*
X0252250Y0205600D01*
X0259400Y0198450D01*
X0269300Y0177000D02*
X0274800Y0177000D01*
X0286900Y0195150D02*
X0300650Y0181400D01*
X0301000Y0181000D01*
X0296250Y0190200D02*
X0296250Y0221000D01*
X0286900Y0230900D02*
X0286350Y0231450D01*
X0300650Y0245750D01*
X0301000Y0246000D01*
X0301200Y0251800D02*
X0310550Y0242450D01*
X0310550Y0153350D01*
X0312200Y0151700D01*
X0312200Y0023000D01*
X0314400Y0021900D02*
X0314400Y0191850D01*
X0313850Y0192400D01*
X0317700Y0195150D02*
X0313850Y0199000D01*
X0317700Y0195150D02*
X0317700Y0144000D01*
X0286900Y0195150D02*
X0286900Y0230900D01*
X0286350Y0231450D02*
X0243450Y0231450D01*
X0248400Y0234750D02*
X0259400Y0245750D01*
X0260500Y0245750D01*
X0261000Y0246000D01*
X0262700Y0281500D02*
X0237400Y0281500D01*
X0236300Y0282600D01*
X0226400Y0292500D02*
X0226400Y0215500D01*
X0174700Y0221550D02*
X0159300Y0221550D01*
X0157650Y0223200D01*
X0155450Y0223200D01*
X0151050Y0223200D02*
X0156550Y0217700D01*
X0156550Y0215500D01*
X0151050Y0223200D02*
X0151050Y0225950D01*
X0151000Y0226000D01*
X0138400Y0223750D02*
X0138400Y0212750D01*
X0149400Y0201750D01*
X0167000Y0209450D02*
X0167000Y0153350D01*
X0161500Y0147850D01*
X0161500Y0126400D01*
X0161000Y0126000D01*
X0156550Y0122000D02*
X0159300Y0119250D01*
X0174150Y0119250D01*
X0176900Y0112650D02*
X0176900Y0098350D01*
X0167000Y0101650D02*
X0167000Y0108800D01*
X0163150Y0112650D01*
X0156000Y0112650D01*
X0138400Y0130250D01*
X0132900Y0136300D02*
X0149950Y0136300D01*
X0138400Y0139600D02*
X0126850Y0151150D01*
X0126850Y0158850D01*
X0123000Y0162700D01*
X0120250Y0162700D01*
X0102100Y0180850D01*
X0101000Y0180850D01*
X0101000Y0181000D01*
X0105950Y0181400D02*
X0105950Y0195150D01*
X0087800Y0188000D02*
X0087800Y0209450D01*
X0082300Y0211650D02*
X0085600Y0214950D01*
X0096050Y0214950D01*
X0107050Y0225950D01*
X0110900Y0225950D01*
X0111000Y0226000D01*
X0082300Y0211650D02*
X0082300Y0181400D01*
X0096600Y0167100D01*
X0096600Y0101650D01*
X0082850Y0087900D02*
X0080650Y0087900D01*
X0065800Y0102750D01*
X0065800Y0149500D01*
X0042700Y0172600D01*
X0019050Y0175350D02*
X0063600Y0130800D01*
X0063600Y0091750D01*
X0076800Y0078550D01*
X0076800Y0071400D01*
X0098800Y0049400D01*
X0108150Y0049400D01*
X0112000Y0040600D02*
X0141150Y0011450D01*
X0303950Y0011450D01*
X0314400Y0021900D01*
X0211000Y0075800D02*
X0211000Y0076000D01*
X0211000Y0075800D02*
X0209350Y0075800D01*
X0189000Y0082950D02*
X0185700Y0086250D01*
X0182400Y0086250D01*
X0167000Y0101650D01*
X0162600Y0115950D02*
X0179650Y0115950D01*
X0189550Y0125850D01*
X0190650Y0125850D01*
X0191000Y0126000D01*
X0151000Y0156000D02*
X0150500Y0156100D01*
X0150500Y0175350D01*
X0156550Y0180850D02*
X0160950Y0180850D01*
X0161000Y0181000D01*
X0121000Y0156000D02*
X0120800Y0156100D01*
X0119700Y0156100D01*
X0087800Y0188000D01*
X0080650Y0147850D02*
X0080650Y0126400D01*
X0081000Y0126000D01*
X0076800Y0123100D02*
X0071300Y0117600D01*
X0071300Y0106050D01*
X0071000Y0106000D01*
X0060300Y0129700D02*
X0060300Y0078000D01*
X0097700Y0040600D01*
X0112000Y0040600D01*
X0105950Y0031250D02*
X0106000Y0031000D01*
X0105950Y0031250D02*
X0098800Y0038400D01*
X0092750Y0038400D01*
X0111000Y0076000D02*
X0111450Y0075800D01*
X0121000Y0126000D02*
X0121350Y0126400D01*
X0123000Y0126400D01*
X0132900Y0136300D01*
X0061000Y0226000D02*
X0060850Y0226500D01*
X0060850Y0233100D01*
X0033350Y0260600D01*
X0033000Y0261000D01*
X0037750Y0260050D02*
X0037750Y0339800D01*
X0028400Y0349150D01*
X0053700Y0338700D02*
X0061000Y0346000D01*
X0053700Y0338700D02*
X0053700Y0252350D01*
X0037750Y0260050D02*
X0064150Y0233650D01*
X0064150Y0232550D01*
X0019050Y0260600D02*
X0019000Y0261000D01*
X0019050Y0260600D02*
X0019050Y0175350D01*
X0046000Y0139600D02*
X0052600Y0133000D01*
X0161000Y0246000D02*
X0161500Y0245750D01*
X0167550Y0239700D01*
X0174700Y0266100D02*
X0155450Y0285350D01*
X0141150Y0287550D02*
X0141150Y0267200D01*
X0159850Y0301300D02*
X0121900Y0301300D01*
X0113100Y0310100D01*
X0099350Y0310100D01*
X0094400Y0321650D02*
X0094400Y0329350D01*
X0110900Y0345850D01*
X0111000Y0346000D01*
X0111000Y0366000D02*
X0111450Y0366200D01*
X0145000Y0366200D01*
X0148850Y0370050D01*
X0132350Y0353550D02*
X0104850Y0326050D01*
X0101000Y0326050D01*
X0101000Y0326000D01*
X0262700Y0281500D02*
X0267100Y0285900D01*
X0279750Y0285900D01*
X0301000Y0266000D02*
X0301200Y0265550D01*
X0301200Y0251800D01*
D17*
X0296250Y0221000D03*
X0313850Y0199000D03*
X0313850Y0192400D03*
X0296250Y0190200D03*
X0274800Y0177000D03*
X0249500Y0197350D03*
X0228600Y0202300D03*
X0219800Y0213300D03*
X0216500Y0201200D03*
X0211550Y0185250D03*
X0198350Y0177000D03*
X0191750Y0185250D03*
X0195050Y0188550D03*
X0192300Y0191300D03*
X0196700Y0200100D03*
X0174700Y0221550D03*
X0179100Y0230350D03*
X0167000Y0236400D03*
X0155450Y0223200D03*
X0156550Y0215500D03*
X0158200Y0201750D03*
X0138400Y0223750D03*
X0126300Y0251800D03*
X0129600Y0268300D03*
X0142800Y0265550D03*
X0148850Y0258400D03*
X0174700Y0266100D03*
X0187900Y0282600D03*
X0178000Y0290300D03*
X0196150Y0301300D03*
X0176350Y0313400D03*
X0185700Y0330450D03*
X0163700Y0350250D03*
X0159850Y0301300D03*
X0144450Y0286450D03*
X0105950Y0305150D03*
X0094400Y0312850D03*
X0053700Y0252350D03*
X0064150Y0232550D03*
X0087800Y0209450D03*
X0105950Y0181400D03*
X0077350Y0145650D03*
X0060300Y0129700D03*
X0052600Y0133000D03*
X0046000Y0139600D03*
X0042700Y0172600D03*
X0082850Y0087900D03*
X0108150Y0049400D03*
X0092750Y0038400D03*
X0138400Y0079650D03*
X0143900Y0098900D03*
X0160400Y0085700D03*
X0182950Y0096700D03*
X0194500Y0086250D03*
X0176900Y0112650D03*
X0174150Y0119250D03*
X0162600Y0115950D03*
X0149950Y0136300D03*
X0138400Y0139600D03*
X0138400Y0130250D03*
X0218150Y0164900D03*
X0223650Y0168200D03*
X0241800Y0164900D03*
X0248400Y0163250D03*
X0231350Y0117600D03*
X0224750Y0119800D03*
X0213750Y0038950D03*
X0295700Y0117600D03*
X0317700Y0144000D03*
X0301200Y0151700D03*
X0243450Y0231450D03*
X0239600Y0245750D03*
X0240700Y0249600D03*
X0236300Y0265000D03*
X0223100Y0279300D03*
X0218700Y0271600D03*
X0236300Y0282600D03*
X0229700Y0290300D03*
X0226400Y0292500D03*
X0226400Y0301300D03*
X0229700Y0309000D03*
X0222000Y0329900D03*
X0234100Y0364000D03*
X0279750Y0285900D03*
X0256100Y0246850D03*
X0218700Y0242450D03*
X0206050Y0227050D03*
X0196700Y0232000D03*
X0193400Y0228700D03*
D18*
X0200550Y0226500D02*
X0201000Y0226000D01*
X0200550Y0226500D02*
X0205500Y0231450D01*
X0205500Y0246850D01*
X0211000Y0252350D01*
X0211000Y0266000D01*
X0248950Y0210550D02*
X0252800Y0210550D01*
X0257200Y0206150D01*
X0260500Y0206150D01*
X0261000Y0206000D01*
X0248950Y0210550D02*
X0246200Y0207800D01*
X0246200Y0195700D01*
X0270950Y0170950D01*
X0270950Y0156100D01*
X0271000Y0156000D01*
X0191000Y0076000D02*
X0183500Y0083500D01*
X0181300Y0083500D01*
X0170300Y0094500D01*
X0153250Y0094500D01*
X0129050Y0118700D01*
X0119150Y0118700D01*
X0112000Y0125850D01*
X0111000Y0126000D01*
X0110900Y0126400D01*
X0110900Y0155550D01*
X0111000Y0156000D01*
X0161000Y0206000D02*
X0160950Y0206150D01*
X0153250Y0213850D01*
X0153250Y0217150D01*
X0146100Y0224300D01*
X0146100Y0250700D01*
X0160950Y0265550D01*
X0161000Y0266000D01*
X0160950Y0267200D01*
X0151050Y0277100D01*
X0151050Y0285900D01*
X0151000Y0286000D01*
X0111000Y0266000D02*
X0106500Y0270500D01*
X0098800Y0270500D01*
X0098250Y0271600D01*
X0081750Y0288100D01*
X0081750Y0324950D01*
X0081200Y0326050D01*
X0101000Y0345850D01*
X0101000Y0346000D01*
X0081200Y0326050D02*
X0061400Y0326050D01*
X0061000Y0326000D01*
X0098800Y0270500D02*
X0074600Y0246300D01*
X0061400Y0246300D01*
X0061000Y0246000D01*
D19*
X0101000Y0126000D02*
X0101000Y0123650D01*
X0111450Y0113200D01*
X0122450Y0113200D01*
X0126300Y0109350D01*
X0126300Y0101650D01*
X0138950Y0089000D01*
X0161500Y0089000D01*
X0166450Y0084050D01*
X0166450Y0071950D01*
X0169200Y0069200D01*
X0174150Y0069200D01*
X0180750Y0075800D01*
X0181000Y0076000D01*
X0160400Y0085700D02*
X0138400Y0085700D01*
X0131250Y0092850D01*
X0115300Y0092850D01*
X0102650Y0105500D01*
X0101000Y0105500D01*
X0101000Y0106000D01*
X0213750Y0038950D02*
X0220900Y0031800D01*
X0221000Y0031000D01*
X0221450Y0031250D01*
X0231350Y0031250D01*
X0239050Y0038950D01*
X0252800Y0038950D01*
X0260500Y0031250D01*
X0261000Y0031000D01*
X0261600Y0030150D01*
X0268750Y0023000D01*
X0292950Y0023000D01*
X0300650Y0030700D01*
X0301000Y0031000D01*
X0300650Y0031800D01*
X0300650Y0075250D01*
X0274800Y0101100D01*
X0272600Y0098900D01*
X0269300Y0098900D01*
X0262700Y0105500D01*
X0261050Y0105500D01*
X0261000Y0106000D01*
X0274800Y0101100D02*
X0275350Y0101650D01*
X0275350Y0139050D01*
X0261050Y0153350D01*
X0261050Y0155550D01*
X0261000Y0156000D01*
X0269300Y0082950D02*
X0272600Y0082950D01*
X0276450Y0079100D01*
X0276450Y0035650D01*
X0280850Y0031250D01*
X0281000Y0031000D01*
X0262700Y0076350D02*
X0261050Y0076350D01*
X0261000Y0076000D01*
X0262700Y0076350D02*
X0269300Y0082950D01*
M02*
